<svg version="1.0" xmlns="http://www.w3.org/2000/svg" width="377" height="683" viewBox="0 0 283 512"><path d="M190 9c-1 3-6 5-11 5l-21 4-6 5c-4 3-4 3-4 1l2-4v-2c-1 0-6 5-8 11-2 3-3 7-3 11v7l-3 4c-2 4-2 4 0 4s2 1 2 3c0 3 3 10 5 10l-1-1h1l2 3c0 3-4 7-6 7l-2 1 4 1c3 0 3 0 2 2l-1 7v8l-2 8-1 4c-2 0-6 7-8 15a71 71 0 0 1-6 13l-2 4c-2 3-2 4-4 3-3-1-8-7-8-8l-2-6c-2-4-2-5-1-8 2-5 2-5 0-6s-6 5-6 9c-1 5-5 9-10 11s-8 1-9-1c-1-3-8-5-9-4l2 3 2 2c-6-2-10-2-13-1-5 1-5 2 0 4 4 1 4 1 1 1-4 0-8 2-8 4l2 1 2 1c0 2 0 2 7 1h17l12 1 9 6 10 5v4c1 3 1 4-2 8l-5 7-1 5-3 5c-2 6-7 13-9 13s-8 3-8 5l-3 2c-3 1-5 7-4 10 1 1 1 2-2 7-13 23-24 53-27 70-1 7-1 8 1 13 3 8 7 15 14 22 6 7 6 8 1 12-2 2-3 3-3 6s-5 14-26 52a418 418 0 0 0-34 77c1 0 15-18 19-25a2685 2685 0 0 0 54-97c2-2 3-3 3-6s2-7 8-16c8-13 17-25 18-25l2 15 2 16 8 10c4 4 9 9 10 12l4 5 30 34c3 3 3 6 6 22a107 107 0 0 1-11 68c-5 6-7 11-7 13 0 3 8 5 12 4 4 0 14-7 17-11 2-2 3-6 4-9 0-6 2-8 4-8s6-4 8-8c2-3 1-8-1-12l-2-3 3-5c5-9 6-13 4-19-3-6-2-11 0-11 2-1 5-10 4-15-1-4-5-8-10-11-3-1-3-1-3-10a121 121 0 0 0-7-41l-1-3-2-2-3-7c-3-6-3-6-4-21 0-13 0-17 2-19v-4l-1-4c0-1 1-2 6-4l5-2a181 181 0 0 1 8 55v15h4c10-1 31-9 42-17 15-10 24-22 31-37 4-7 4-10 5-16 0-10 0-12-4-16-3-3-4-5-5-10-4-13-13-25-23-33-5-3-8-6-9-9l-3-3-13-5h-2c-2-1-22-1-23 1-2 2-5 1-7-3l-4-5c-2-1-9-12-9-15l2-9c2-6 3-7 4-6l7 1c4 0 5 0 6-2l4-2c2 0 4-2 5-11l2-10 3-20 2-2c2-1 3-2 4-7 3-8 2-14 0-22-2-4-3-8-2-9 0-1 1-1 1 1 1 1 1 1 1-1l2-8c2-6 3-10 1-7h-3c-1-1-2-2-1-4 0-2 0-2-1-1l-4 1c-3 0-3-1-4-3-4-8-2-14 2-9v4c-1 1-1 1 1 1s4-3 3-6c-1-2-1-2 1-2s2 0 2 2c-1 3 0 4 2 2 1-2 2-1 2 1v-5c0-10-6-18-10-16-2 0-2 0-2-2 0-3-6-8-8-8s-2 0 0 1 3 4 2 5c-2 0-6-4-6-6l-2-13-1 2zm24 65h-1l1-2v2zm7 133 4 1 4 2 3 3-14 1-14 1 7-4c7-3 7-3 5-4l-11 1h-10v-2c6-2 21-2 26 0zM98 265c0 6 0 7 2 9l3 2-3 1-2 3c0 2 0 2-4 2h-5v5c0 7-4 22-9 33-4 10-5 9-5-4l-1-14c-1-8 2-24 6-28 2-3 18-16 19-16l-1 7zm43 49c2 8 2 15 1 15l-2-3c-2-2-2-3-1-10l1-8 2 6z"/></svg>