<svg version="1.0" xmlns="http://www.w3.org/2000/svg" width="413" height="683" viewBox="0 0 310 512"><path d="M195 10a107 107 0 0 0-5 32c0 6 0 6-3 6-2 0-3-1-5-5-4-8-12-16-19-19-5-2-7-3-17-3-14 0-15 1-9 8 10 9 26 19 36 22l4 1-5 2c-10 4-15 11-19 24-3 9-7 15-11 18-5 3-15 7-21 7l-5 1c-4 2-29-1-27-3l-2-1c-4 0-8-4-9-9-1-6 4-13 12-17 2-2 2-2 0-2-3 0-9 2-11 5l-4 4-2 3v-3c0-2 0-2-1-1-3 3-2 9 0 13l2 4-3-2-7-4c-3-2-3-2-2 0s6 5 11 8l6 3c1 2-6 8-9 8s-12-4-15-6l-2-5c0-3 0-3-1-2-2 3-1 8 2 11l5 4c4 1 0 2-7 2-14 0-27 5-35 13-11 11-14 21-8 30 1 3 4 5 5 6l-1-1c-5-6-3-19 3-26 3-2 3-2 3 0-2 3-2 9-1 9l1-4 4-6c4-4 4-4 11-4h8l-4 6c-5 9-6 14-6 25 0 12 1 16 8 23 5 4 15 8 20 8 3-1 3 0 3 3 2 11 12 20 21 20 5 0 19-9 20-14 1-3 0-5-3-5v1c2 0 1 4 0 6-4 4-17 5-22 3-3-2-7-9-7-14l2-6c3-2 3-2 6-1 2 1 5 3 8 3 3 1 7 2 9 4 5 3 10 5 17 5 5 0 7 0 10-2s6-2 6 1c0 2 3 5 8 8 2 1 0 3-3 3h-12l-10-1-2 4-2 26-1 22 3 4c2 3 4 4 6 4 3 0 3 0 3 4l-1 21c-1 25-2 31-14 58-4 9-4 10-5 23l1 18c2 11 3 33 2 46l-1 37c1 15 1 15 4 20 4 6 8 10 12 10 3 0 4-1 6-6 2-6 2-13 0-17-3-6-6-31-6-46a264 264 0 0 1 23-100l8-30 6-15 5-14 5-10 4-13c2-9 4-13 6-10l1 9c0 5 2 11 3 14a333 333 0 0 1 13 36c7 18 10 26 13 38l5 18c1 5 10 23 18 38 6 12 8 18 9 30 1 11 0 17-3 28l-2 6 2 6 5 6c2 1 6-2 8-6s3-6 2-16c0-13-1-26-3-36l-2-20c-2-22-3-26-12-41l-6-11-1-24a448 448 0 0 0-6-65v-4l4 3c4 4 6 6 6 13 3 16 10 27 23 33 9 4 17 5 23 3l7-1c5 1 12 1 15-1 5-2 7-6 8-11 0-7-1-7-6-2-3 4-4 4-8 5-4 0-6 0-7-2h-4c-7 2-14-2-31-14-10-8-16-14-14-15 2 0 2-1-1-4l-2-6c1-3-2-11-5-12l-3-2v-27l-6-3c-6-3-9-7-9-12 0-2 0-2 4 0 5 3 16 3 20 0l3-1c0 2 9 5 12 4 4 0 10-6 13-11 1-4 2-4 2-2v14c-1 3-2 6-4 7-3 3-4 3-6 3-4-1-6-3-8-7l-1-2 1 3c0 3 6 9 10 10 9 2 20-9 20-21 0-5-3-15-6-21l-5-11c0-3-2-7-3-8-1-3-1-3 3-5 3-2 3-2 3-7-1-4 0-5 1-6 2-2 2-2-1-13-4-12-5-14-8-14-1 0-2-1-2-3s-1-3-3-2l-3-4-1-6a82 82 0 0 0-28-33l-4-2c-3-2-10-2-13 0-1 1-2 1-6-1l-5-3 4-3 7-7c6-6 7-11 5-15L197 8l-2 2zm29 72 5 1c1 0 3 5 3 9l3 4c3 3 5 13 3 17l-1 6c0 3-2 10-4 10v-1l-3-3c-5-3-10-9-13-14-3-3-3-4-2-7l1-4 3 2 5 2c3 0 3 0 1-1s-4-5-6-13-2-9 0-8l5 1zM84 106l3 3h-4l-7 1h-2l2-3 4-3 4 2zm-28 39c-2 6-1 13 5 21l5 8-1 6-3 6-6-2c-5-2-10-9-11-15-1-4 3-16 8-23s6-7 3-1zm40 1-14 10c-4 4-4 4-6 3s-2-1-1 1 1 2-2 5l-4 4v-3c-1-5 1-11 5-15 5-6 14-10 25-10h5l-8 5zm164 5 4 10-9-11c0-2 4-1 5 1zm-2 18 2 7c0 5-3 12-7 16-3 4-4 4-7 4-4-1-8-4-8-7l3-3c5-4 11-11 13-15l2-5 2 4zm-167 9v8h-4l-9-2 2-6c1-4 2-5 6-7l4-2 1 8zm72 0-1 7c-1 3-5 2-7-1-1-2-1-2 2-5l4-5 1-1 1 5zm52 5h8c5-1 5-1 5 2 0 2-2 6-4 6l-3 2c-2 1-2 1-6-1l-5-5c-2-3-2-3 0-5 2-1 1-1 5 1zm-48 2-8 8-7 6-7-7-6-8c2-2 4-1 7 2 4 4 6 5 12 4 3 0 8-4 9-6 0-2 1-2 1-1l-1 2zm-16 1 1 2-3-2c-3-2-4-3-2-3l4 3zm-35 3c8 2 11 3 8 5s-8 1-13-2c-6-4-7-6-4-5l9 2zm141 99c5 4 6 5 4 5-6 0-10-2-15-8l-7-9c-2-3-2-3 4 2l14 10z"/><path d="M94 100h5c2-1 0-1-2-1-3 0-4 0-3 1zm13 1h2l-2-1v1z"/></svg>