<svg version="1.0" xmlns="http://www.w3.org/2000/svg" width="569" height="683" viewBox="0 0 427 512"><path d="M104 11c-2 1-2 1 1 1l3-1c0-2-2-2-5 0zm28 4c-2 5-3 5-6 1-2-2-7-3-7-1 0 3-8 3-19 1l-15-2h-9l-4 3-3 5c0 2 1 2 6 2l5-1-2 3C67 37 67 38 67 41l2 3c2 0 2 0 1-3-1-4 3-10 11-15 7-5 10-6 11-4l9 1 10 2-2 4c-2 3-3 5-2 7a200 200 0 0 1-2 38l-3 13c0 9-5 31-8 37-5 11-15 26-28 42-10 12-21 29-26 41-13 28-10 52 11 78 11 13 25 28 27 28h4c2 2 2 2 5-1 3-2 4-2 6-1l2 2c0 2 4 5 7 5l5 3c2 2 9 5 16 6 11 1 21-4 20-10-1-3-5-6-7-6v-1c0-3 0-3-4 1l-9 5h-12l-8-4-2-1h-1l-3-1h-2c-1-1 0-2 4-6l9-7c5-4 18-21 19-26l1-5-9-7-27-28c-6-8-9-14-10-23-1-7-1-8 1-14 3-7 9-14 20-20 12-8 29-23 39-34 8-8 8-10 8 15 0 21 0 22-3 34a120 120 0 0 0-4 19l-6 9-3 3c-6 2-8 8-4 13v2c-2 0-1 2 1 2 1 1 1 1-2 2-4 2-4 2-1 5 2 1 2 2 2 4-1 3 0 12 1 16 1 2 2 2 4 2 5-1 6-3 2-8l-5-9c0-4 0-4 5-7 1-1 1-1-1-2l-1-2 5-3 3-3 1 6c1 27 8 82 12 94 0 2 4 9 10 17 15 24 18 30 21 44 2 10 2 14 3 40 0 31-1 38-5 45l-7 18c-1 4-1 5 1 6l4 2c5 0 18-9 20-15l2-7c1-6 3-8 5-8s4-1 6-4c3-4 3-4 3-14 0-9 0-10 3-15 2-5 3-9 1-17l1-6c1 0 3-3 3-5 2-5 1-10-4-15l-3-4-3-5c-3-4-3-4-2-6 2-2 2-3 0-3l-3-4-2-11-8-32 11 2 16 3c9 1 21 4 35 11s18 10 27 18l7 6-3-6c-6-11-16-18-40-27-22-9-33-16-44-27-6-6-6-6-2-3 25 18 46 24 81 24 15 1 16 0 24-3 17-6 35-19 40-31 3-6 6-16 5-17s-4 1-16 9l-11 5-10 5c-5 2-20 6-23 5l-9-1h-7l-5 6-7 5a265 265 0 0 1-48-59h6c2 0 5-3 6-7v-4h-7c-8-1-13-3-13-5-1-1-1-1 1-1 4 2 9 2 15 0l6-2 9 9c15 14 39 27 54 31h37c26-4 44-12 64-29 6-5 14-16 14-18s-3-4-10-6c-4-2-5-2-4-4l1-3 2-4 2-9c3-13 2-28-2-26l-3-1c-1-2-7-1-9 1-4 3-4 4-1 6v1c-3-2-3-1 0 3 4 4 6 10 8 17 0 3 0 5-2 6l-1 4v4c-1 2-1 2-4 1l-17-2-24-2-17-2c-6 0-6 0-12 5-6 6-14 10-22 11-4 0-5 0-7-2-5-5-12-26-18-51-2-7-4-12-10-23-1-3-3-4-5-5l-7-4c-2-2-3-3-1-2h5c3 1 4 0 4-1 0-2 0-2-4-1l-5-1 3-1 4-1c2-3 0-3-3-1h-3l-1-4c0-3-1-3-4-2s-3 1-4-1l-2-4-4-6c-2-4-2-5-7-5-2-1-7-2-9-4-4-2-5-3-5-5l2-7c0-5 0-5-2-7-3-2-3-3-2-8s1-5 4-5l5-1c1-1 1-1-1-3l-5-10c-1-3-1-3 2-3s4-1 1-2l-7-7a54 54 0 0 0-10-10l11 4c9 2 10 3 13 7l13 12 14 11c11 8 24 13 34 12l13-4 8-4c2 0 8 7 12 14s5 5 1-3l-3-7 2 1 7 3 5 2-2-4c-2-3-9-8-15-10l-11-10c-5-5-10-10-16-13-9-6-12-8-6-5l4 1-6-4-9-5h-7v3h1c2-3 23 11 21 14 0 1 1 3 4 4l3 3a325 325 0 0 1-37-15c-3-3-4-3-2 0 5 6 0 7-5 2-2-3-5-4-8-5s-4-2-7-6c-3-5-10-12-11-12l1 3 4 7c2 4 2 4 0 4a1777 1777 0 0 0-84-26c-2 1-2 0-2-3-1-3-1-3-5-4-5 0-5 0-7 3zm26 19a554 554 0 0 0 32 7l5 2h-3l-11 5c-4 2-9 8-10 13l-5 8-3 3h7l-1 3v12l3 2-1-2c-1-2-2-3-1-5 1-3 3-4 3-1l3 4c4 6 2 9-7 12l-4 2c-1 0-2 0-2-2l-4-3c-3-1-5-3-6-6l-3-5-4-5-7-7c-3-2-3-2-3 0-1 1-2 1-3-2-3-5-5-6-5-3 0 6-3-7-3-16l-2-11c-1-1 0-2 2-4l3-2 1 3c1 6 9 5 12-1 1-3 1-3 6-3l11 2zm78 23c2 4 1 4-3 0-3-3-3-4-1-3l4 3zm17 4c11 4 11 3 16 10l8 8 4 3-3 1c-7 1-22-6-28-14l-6-11 9 3zm33 12 12 5c0 3-17-3-24-8-3-3-1-3 12 3zm19 7 3 2-3 1-12 1c-5 0-5-1-1-3 6-2 10-2 13-1zm-55 56h-2v-1l2 1zm-15 23c8 7 7 8-11 14-11 4-14 5-16 10-1 2-1 3-3 2-2 0-2 0 0-5 3-7 2-5 11-18l7-11 3 2 9 6zm-18 53a101 101 0 0 0 12 19l-3 4c-4 2-5 2-9 2-6-1-6-2-5-4 2-3 1-6-2-7-3-2-5-7-7-20-1-8-1-8 3-8 4-1 5 0 6 2l5 11zm-73 9c0 2 0 2-1 1v-3c1-2 1-1 1 2zm-14 95-3 1 1-1c3-2 4-2 2 0z"/><path d="m175 16-6 2c-2 0-1 2 1 2l4 1c2 1 4 1 11-1 13-4 24-1 33 7l5 3-4-5c-10-9-32-14-44-9zM81 33l-1 2 3-2h-2zm170 9c-1 2 2 6 4 6s2-3 0-5c-2-3-3-4-4-1zM74 45c0 2 2 5 3 3v-2c-2-2-2-2-3-1zm217 8 2 2 2 1-2-2-2-1zm18 13 3 5c1 2 2 2 2 1 2-1-2-5-5-7-2-1-2-1 0 1zm8 10 1 1 1-1-1-1-1 1zm-25 20 1 1h1l-1-2-1 1zm14 1c-2 2-3 2-7 2l-4-1 3 3c4 3 8 4 12 1 3-2 3-4 0-6-2-1-2-1-4 1zm9 6c0 2 2 3 3 3l-2-4-1 1zm14 7 2 6c4 12 1 28-6 33l-7 6-6 5c-1 1-1 1 2 1l7-1h1v2c2 0 11-10 13-13v-2l1-5v-14l-3-14-4-4zm-25 47 1 3h1l1-2c1-1 0-3-1-3l-2 2z"/></svg>