<svg version="1.0" xmlns="http://www.w3.org/2000/svg" width="345" height="683" viewBox="0 0 259 512"><path d="M125 8c-1 2-3 4-7 6-5 3-8 7-10 13-1 3-1 4 1 6v4l-4 3c-3 0-5 2-9 8-3 6-5 7-6 3l-3-2c-1 0-2-1-2-3 0-4-2-7-8-9-3-1-7-3-11-7l-9-7h-3l3-5 1-4-5 1c-3 1-5 2-8 1l-10-1c-5 1-7 1-9-1-5-2-6-1-4 3l2 3-4 1c-3 0-6 2-8 3-3 2-8 9-6 10 0 1 3 0 5-2 5-4 7-4 15-4 5 1 6 1 5 3-2 3 0 5 3 4 3 0 3 0 3 2l1 5c2 3 3 11 3 18l1 8 6 3c2 0 7 2 14 7a163 163 0 0 0 20 14l-2 5c-2 8 1 16 9 21l2 1-5 6-5 7c0 3 4 8 6 8l-4 5c-4 5-5 6-4 9s9 13 11 13c1 0 2-3 2-9 1-3 1-1 1 4 0 9 0 12-3 20l-3 11-4 6c-4 4-5 4-7 4l-10-7c-7-6-7-6-11-6l-9 5c-4 3-5 3-7 2-4-2-6-1-12 5-4 4-5 6-6 11s-2 6-3 6c-5 0-9 15-6 22 1 3 2 5 1 7l1 8c2 3 2 5 1 5-1 1 0 3 1 7s2 6 5 9l6 7c2 5 11 9 21 10 5 1 8 1 9 3 2 2 2 2 15 2 8 1 9 1 11 3 1 2 4 3 7 0 3-1 3-1-1 8l-3 16c-1 16 3 18 27 20l17 2a393 393 0 0 1 34 104l3 18c0 9 0 10-2 16-5 11-5 18 0 20 7 2 16 1 20-4 3-3 3-3 3-10s0-7 2-6c2 0 3 0 5-3 2-5 1-19-2-26-3-4-3-5-2-9s1-4-3-8c-2-2-4-4-4-6l-3-3c-2-1-3-2-4-10-2-10-4-20-5-37-1-10-2-18-6-29 0-2 1-1 3 1l3 4-1-4v-3l2 3c3 2 8 17 8 20l3 4c4 3 10 4 14 1 4-4 4-17-1-24-3-5-4-7-1-8 2-1 1-10-2-15-2-3-8-6-13-6h-5l-11 1c-7 1-9 1-12-1l-6-3c-1-2-1-2 1-2l2 1 2 2c1 1 3 1 6-1l9-2 5-2 3-2 4-2c3-3 3-3 5-1 2 3 5 3 9-2 3-3 4-3 6-3 5 2 12-2 15-8 1-2 1-3 3-2 2 0 3 0 4-4l2-5 2-5c4-5 7-17 7-21v-6c1-5 0-9-3-9-1 0-2-1-3-5l-2-8-2-9c-2-5-3-6-6-9-10-6-11-7-15-7h-6c-1-1-3-1-8 1-8 4-16 4-15 2l-1-6-1-4 3 1c5 1 12-3 18-8 6-6 9-12 10-21l1-6 9-1 13-1c4-1 8 1 10 6 2 2 5 5 11 8l8 4c1 0 1-8-1-11s-8-8-12-9l-27-6h-5l1-5c1-3 2-5 4-6 4-3 4-4-1-4-4 0-5 0-5-2-1-4-1-6 1-6 10 0 19-11 13-19l-3-2v2l1 3c-1 2-1 2-3-1-1-4-3-5-2-2 1 4-4 8-9 8-4-1-5-3-5-7 1-4 9-13 12-14s5-4 3-6l-4-1c-2-1-6 0-12 2-15 5-15 4 0-7 14-9 19-16 19-25 0-8-6-17-17-25l-5-3h3c5-2 9-7 7-12-1-5-3-5-3-1-1 4-4 6-11 7-7 0-19-4-18-6l-3-9-1 2-3 6c-1 4-1 4-3 2l-1-4c0-5-15-14-25-16-2 0-5-1-7-3-4-4-5-4-6 0zm46 52c2 3 4 4 4 2l8-1c10 0 12 1 12 6 0 6-3 14-7 18-7 8-11 18-10 23 0 2 1 3 4 4h8l3-1-1 6c0 5 0 6 3 12 2 4 5 7 7 8 3 2 3 2 1 2l-7 3c-2 1-5 2-6 1-2 0-9 4-9 6l-2 3c-2 1-2 0-2-5-1-5-1-7-3-8l-2-6c0-5-2-8-10-16-11-12-11-12-7-17 4-4 7-11 7-15 0-5 2-7 4-7 2 1 4 0 5-1 4-3 4-4 1-4-4 0-4-1-4-7 0-11 0-11 3-6zm-20 33-2 2 3-6-1 4zm-52 9 2 5-1 4-4-4c-4-3-4-4-2-5 2-2 2-2 5 0zm-5 49h-1l1-2v2zm57 10c1 0 2 3 2 9 0 4 0 5-2 5l-6-2c-8-2-8-3-2-10 4-4 6-5 6-4l2 2z"/></svg>