<svg version="1.0" xmlns="http://www.w3.org/2000/svg" width="683" height="601" viewBox="0 0 512 451"><path d="m319 10-1 6c0 4 0 4-6 5-9 2-20 13-20 22l-1 4-1 5c0 4 0 4-2 3-7-3-7-3-12 2-3 5-4 6-3 9 0 2 1 5 3 6l2 4 2 1c6-1 8 0 7 2l1 8c2 4 3 7 8 12l6 8-5-1-6 1c-2 2-3 2-7 1-7-2-16-1-19 1h-2l3-8c2-5 2-5 0-8l-2-9-3-3c-2 0-4-2-4-3a38 38 0 0 0-34-23c-17-1-28 6-33 21-3 8-2 14 2 23l4 7-2 8c-2 8-2 9-1 13l4 4c1 1 1 1 1-1-1-1 0-2 2 0l4 2c3 1 3 1 2 2-1 2-4 2-14 2-17 0-24-1-27-5s-6-11-4-14c0-2 1-3 5-2h6c4 2-2-4-6-5-5-3-10-3-14 1l-4 4v-3c-1-3-1-2-1 1 0 7 3 12 13 23 13 14 18 16 31 12 10-3 16-6 22-11 5-5 5-5 14-2h9l6-1-4 7-4 7-7 2-11 4-9 2-7 2c-3 3-3 3 1 1h6l-3 4c-4 4-7 12-7 15 0 2 0 2 1-1 2-3 6-7 15-11 6-3 9-4 9-2-4 9-5 15-2 15v-6c1-3 1-3 3-2 2 3 3 2 2 0-2-4 3-10 9-12 3 0 4 3 4 15 1 15 4 19 15 19l5 1c0 2-1 4-2 3l-8 1c-5 0-6 0-5 1 2 2 1 2-2 2l-10 1c-7 0-10 1-10 3s3 2 3 1l2-1v1c0 1 1 1 6-1 4-1 8-1 15 2 3 2 2 3-4 3s-12 4-12 7c0 1-2 3-8 6l-9 4-11-8c-13-10-26-19-36-24s-24-10-30-11c-16-2-46 8-67 21-9 6-26 24-26 28l4-1 5-1-1 4c-1 1-3 5-3 8-3 8-4 11-6 11l-4 3c-2 2-2 3-1 4 1 2 7 3 9 0 1-1 1-1-1-1l-2-1 3-1c2 1 3-1 1-2v-4c1-4 15-12 36-22l33-10c13-2 12-3 13 9 0 10 1 12 5 17l9 9c-3 2-15 6-20 6-8 1-12 4-8 6 1 1 1 1-1 1l-3 2c0 1-2 2-5 2-5 1-7 2-10 5l-10 7a336 336 0 0 1-56 27c-1 2-2 2-3 2h-8c-1-1-2 0-5 3l-6 7c-1 3-1 4 1 8s4 5 12 5c4 0 5 0 9-4l4-5 4-2 6-2c14-10 55-28 63-28 3 0 8-4 10-6 1-2 8-2 7-1l1 2c2 1 7-2 10-6l12-9 9-5c3-3 4-3 11 2l30 13 4 2-2 3-6 8c-5 6-7 7-17 12a117 117 0 0 0-54 49c-5 10-14 22-16 23l-7 8-6 10-11 13-3 4c-3 2-6 9-7 13l1 6c1 2 3 3 6 4 7 2 14-1 18-9l5-8c3-3 10-17 10-20 0-2 1-5 4-7l4-6c0-2 14-16 22-21l19-13 19-13 16-11 16-10 18-12a459 459 0 0 0 33-19c4 3 4 2 0 12-4 7-5 10-5 14 0 7 3 12 7 17l4 3 7-1h23l4 1v9l-2 17c0 6 0 7 3 9 5 4 12 1 16-7 2-6 3-30 1-37-1-3-4-6-8-6l-3-2-3-6-3-3 5-3c10-8 16-16 20-29 2-6 3-9 3-17l1-9c3 0 8 3 11 7s8 7 12 7 8-4 11-11 4-8 1-16l-2-6 2-7c1-4 2-7 1-10 0-3 0-4 2-7l3-4h11c4-4 17-2 25 5 7 5 12 16 14 30 1 15 0 23-5 35-3 9 0 8 13-4a51 51 0 0 0 16-23l2-4 1-12c0-8 0-10-2-16-4-7-9-12-15-15-7-3-22-5-36-6l-11-1-3-4c-1-3-3-6-5-7l-2-4c0-1 14-16 27-27l4-4 9 2c15 4 32 13 43 22l9 8c4 3 8 7 11 12l5 6 3-18c0-7-1-13-3-18-3-5-12-14-18-18s-19-7-29-7l-7-1c-2-2 27-15 33-15l3-2 2-2 3-2c3-3 13-7 19-8l7-1c2 0 3-1 2-3 0-2 0-2 2-2l4 2c1 2 1 2 3 1s2-2 2-6l-1-8c-1-2-1-2-5-2-3 0-3 1-3 3s-1 3-2 3c-2 1-3 0-3-1-1-1-4 0-11 4-6 5-14 8-19 8l-3 1-3 1-7 4c-6 4-24 13-30 14-2 0-5 1-7 3-3 3-13 8-14 8-1-1 1-4 4-5s4-3 1-3c-2-1-2-1-1-6v-10c0-5 0-5 4-6 8-3 8-5-2-14-7-6-10-9-14-17-13-23-34-43-55-51-4-2-8-4-13-9-6-5-8-7-9-6zm-78 54c6 3 12 10 12 12s-1 1-5-3l-10-7c-6-2-15-1-23 1l-7 2 11-7c5-2 16 0 22 2zm75 71 1 6 5-2 5-1 14 18-3 2-13 1c-13-1-17-2-20-6-2-2-3-3-5-3-3 0-4-1-6-5s-2-7-2-9c1-4 1-4 6-4l10-1 7-2 1 6zm0 36c5 3 7 4 6 5s-3 0-6-2c-11-8-11-9 0-3zm-9 12c-2 1-3 0-3-5l-1-4 3 4c3 3 3 4 1 5zm38-2-1 2c-2 2-8 3-12 1l-2-1 4-2c3-2 9-2 11 0zm-17 16 3 1-2 6c-2 7-4 9-5 5l-2-1c-2 0-11-12-12-15l3-2c3-2 4-2 8 1l7 5zm39 18v2c0 1 0 3-2 5l-2 4-1-3c-3-3-2-7 1-8h4zm-224 7-6 5c-3 2-3 2-2 0l1-5-1-3h12l-4 3zm22-1c3 1 4 2 7 8 4 6 4 7 2 7-2 1-4 5-4 8v3c-3 2-13-12-17-23l-2-5h5l9 2zm77 9c-4 4-10 5-15 3-1-1-1-1 2-2 4-2 5-2 7-1h5c3-2 4-2 1 0zm-17 24-6 7-4 8-4 5h-9c-11 0-19-1-21-4s-5-9-5-12c0-2 1-3 6-5l5-2 5 2c4 2 6 2 14 2 6-1 10-1 13-3l8-2h3l-5 4zm56 18c-1 2-2 4-4 4h-2l8-9-1 5z"/></svg>