<svg version="1.0" xmlns="http://www.w3.org/2000/svg" width="479" height="683" viewBox="0 0 359 512"><path d="M241 28c-4 6-5 14-4 22l5 14c2 4 1 6-3 7-2 0-2 1-2 5v5h6v6l-4 16c-2 8-3 10-6 11l-4 4-3 5c-2 1-3 4-3 5 0 5-1 7-4 7l-6 3-2 3-3-3c-1-2-2-2-4-1h-3a300 300 0 0 1 5-11l-7 11-5 1c-7 0-9 2-15 13-3 6-4 6-7 7h-4l2-3c2-4 3-9 1-9l-1 1c-1 3-4 4-7 2l-2-2h1c1 2 3-5 2-9 0-4 0-4 2-4l6-2-1-1c-1 1-7-2-7-3l2-1c2 0 6-4 6-6h-2c-3 1-9-3-12-8-4-6-10-12-14-13l-3-1 2-2 4-5c1-3 1-8-1-8l-1 1c1 3-3 5-7 5-6 0-11 3-12 6l-3 3-5 2-10 1c-6 0-7 1-7 5 0 3 0 3-2 2l-4-2c-2-1-2-1-2 1-1 4 0 7 2 9l2 2c0 1-8 6-10 6h-3l3 2c2 2 3 2 7 2 5-1 6 0 4 1l-1 2v2c2 2 2 2 1 4-2 4-1 11 2 11v-7l2-4v5l2 9 2 6c0 1-4 2-6 1-2-2-1 1 1 3s2 4-1 7l-1 3c0 2 0 2-2 1l-2 1v1l-6 3c-3 3-3 4-2 5h8l-3 3-3 3c0 3-4 5-6 4l-5-1c-2 1-4 0-11-4-9-5-10-6-15-5l-6-1c0-2-3-1-4 1l-2 1-3 3-2 3-2-2-4-7c-1-5-7-14-8-14-2 0-2 3 0 6l2 7c1 3 1 3-1 2l-7-7c-5-6-8-7-8-4l5 7c6 6 6 8 2 8-7-1-13 0-13 1 0 2 2 3 8 3l4 1-4 2c-4 1-5 2-4 3h6c5-1 7-1 7 1s3 5 6 5l3 1 3 2c2 1 4 3 6 7s4 6 7 8c4 2 5 2 15 2 13 0 18-1 28-8l7-2-3 3c-3 1-3 2-3 5 1 2 0 5-2 10-5 15-8 30-6 41 2 17 14 34 30 43 6 4 26 11 30 11l4 2c2 2 3 2 4 1 2-2 7-1 12 1l4 2 2 9 4 18c2 11 2 14-5 26-4 8-6 15-6 24 0 6 0 7-2 7l-2 3-2 4c-2 2-2 4 1 4l-1 3c-3 5-3 6-2 9l4 3c3 0 3 0 3-2l1-3c1 0 2 3 2 7s-3 7-5 6l-2 1-3 2c-1 0-2 2 0 3 1 1 1 2-3 12l-2 6 2 3c3 4 4 4 7 0l4-2-2 10c-1 2 7 11 13 15 3 3 4 3 6 2v-24l1-6 2-2c2-1 2-1-1-5l-3-7v-4l5 1c5 0 6 0 7-2 2-2 2-2-1-9s-4-9-1-11v-3l-2-2v-2c0-2 0-3-2-4-2-2-2-2 1-13 2-13 6-26 9-31 2-4 2-6 2-12 0-11 3-7 6 8l4 10c2 5 11 17 16 21 2 2 3 4 3 7l-1 3v3l-1 2v3c2 1 3 1 5-1 1-1 1-1-1-3v-1c3 0 5 4 6 9 1 4 1 4 4 5 3 0 3 0 3-3-1-2-1-3 1-4s5 2 6 7 1 5-1 7c-3 2-3 6-1 6l2 3 2 8 2 7 3 3c3 2 4 2 6 0l2-3c1-2 1-2 1 0 2 5 2 6 7 9 5 4 15 6 19 5 3-1 4-1 4-4 0-2 0-4-2-5-4-4-10-12-14-20s-5-9-3-10c3-2 2-6-1-6l-2-1-3-1-6-3-3-3 2-4c2-4 2-4 8-2 1 0 2-2 1-7 0-2 0-2-6-3l-5-1 1-3c0-2 1-3 4-4s4-3 5-5c2-4 1-15 0-20-2-4-2-10 1-13l1-9c2-11-4-30-12-40-6-7-19-15-30-19l-4-2 7-5c2 0 2-1 2-4-1-4-1-4 1-6 4-3 4-3 1-7l-3-4 3-1 4-4c2-2 2-2-3-2-4 0-5 0-6-2-1-3-1-3 11-4l12-2 4 2 10 6c6 3 6 3 6 1l-3-7c-2-5-3-5 9-6 18-2 35-1 46 4 3 2 4 2 4 5s-1 4-5 6-7 2-11 2c-6 0-7 1-7 2l4 8c3 5 4 6 6 6 3 0 11-5 15-10 2-3 4-4 6-4 3 0 3 0 3 5l-2 8c-2 2-8 6-11 6-2 0-5 3-6 7l-1 5c-1 3 0 6 3 6 5 0 9-3 15-11 6-9 7-9 7-1 0 4-1 7-3 10l-5 8-6 5-4 3-3 4c-3 2-3 6 0 7l6 2c4 0 5 0 8-3 4-4 6-9 9-18 1-4 2-8 4-10 4-5 5-10 5-21a102 102 0 0 0-2-26c-1-6-7-19-12-26-10-14-26-21-51-23-11 0-23 1-37 5-7 1-20 7-35 14-14 7-20 8-28 8-10 0-14-2-14-7 0-2 2-3 4-2l1-1 7-7 13-10a163 163 0 0 0 27-40c3-3 5-7 5-11l4-8c2-1 6-9 6-11l1-4 2-4 3-11c3-9 3-10 3-36 0-25 1-27 3-32l6-8c3-4 4-7 1-9-3-3-6-2-9 3l-4 9c-2 4-2 4-2 2l-1-10-1-8-2 4zm-130 77-1 1h-1l1-1h1zm121 30c-1 4-2 5-3 3-2-1-2-2 0-4 2-3 3-3 3 1zm-7 15c-3 6-5 8-5 5l8-10-3 5zm-18 13-1 6c-1 8-14 28-22 34l-4 3-4-3c-5-3-7-6-5-7l1-2c-1-1 0-2 1-3 1-2 1-2 5 2s7 5 8 3 0-4-3-4c-4 0-5-2-3-4 2-1 2-1 4 1 3 3 3 3 5 1 4-2 4-4 0-5-3-2-4-2-2-4v-6l-3-1-2-1 2-1 3-1 8-2c4-1 7-2 9-4l3-2zm-23 19c0 2-4 0-5-1 0-2 0-2 2-1l3 2zm-55 53 4 4-2 2-2 9-2 10v6l1 8c1 7 1 7-1 6-10-3-23-12-26-18-1-4-2-15-1-23l1-5 2 2c3 2 7 4 9 3v-4l-1-5 6 12-1 2c-2 0-4 3-4 6l-1 4c-2 3 0 4 3 2 5-4 7-7 6-22v-13l3 5 6 9zm205 26c1 1 1 1-1 1l-3-2c-2-4-1-6 1-3l3 4zm8 18c1 1 1 1 0 0l-2-2c0-2 0-2 1-1l1 3zm5 15-1 2-1-1 1-1h1zm-125 47c6 3 11 7 14 11l3 4-4 2c-7 3-8 9-2 11l4 5c3 4 3 4 7 0l3-2 1 7 3 8c2 1 2 2 0 6l-4 7c0-2 0-3-2-3l-2-2-3-1c-3 0-4-1-12-15-12-18-13-19-14-25 0-3-2-7-5-12l-4-7 17 6z"/><path d="m238 65-1 2 2-2 1-2-2 2zm-10 20-2 3 3-3 1-3-3 3zm-11 20-2 6 3-6 3-6-4 6z"/></svg>