<svg version="1.0" xmlns="http://www.w3.org/2000/svg" width="639" height="683" viewBox="0 0 479 512"><path d="M309 27a250 250 0 0 1-15 27l-3 5v18l-2 3-3-4c-4-5-5-4-5 1 0 3 0 4-2 3l-1 4 2 6c0 1 0 2-2 2s-2 2 0 7l3 4c2-1 2-1 1 1-2 3-7 4-28 2-18-2-29-1-38 4-9 4-13 10-13 16l3 8c2 4 4 5 4 3 0-3 6-14 10-18 6-5 13-9 19-10 3 0 6 0 13 3l12 4c4 1-6 6-27 14-14 6-26 16-31 26-3 6-3 6-2 8l2 3-6 1c-18 2-39 11-48 19-8 8-12 20-9 24l3 5c1 4 1 5-1 8-2 5-6 8-10 8-3 0-4-2-3-6 0-3 0-4-2-4-5 0-8 9-4 13 3 3 5 3 13 0 12-4 21-11 27-22a665 665 0 0 1 8-19c1-5 7-11 12-13 3-2 5-2 11 0h33l8-3 9-2c4 1 4 1-10 6-7 3-16 6-18 8a99 99 0 0 0-49 51c-1 4-2 5-10 9l-16 5-10 2c-4 2-6 2-17 2s-12 0-12 2-1 2-9 3l-1 4c0 3 0 3-4 3-4-1-4-1-7 3l-5 7a223 223 0 0 1-53 27c0 1-2 3-4 2l-6-1c-6 0-7 1-8 7-1 4 2 14 5 17s12 6 18 6c3 0 4-1 4-3l2-3 1-3c0-2 1-2 2-2 1 1 5-1 11-5a188 188 0 0 1 48-22h11l1-4 2-5 4 2c3 4 3 4 6 0 2-3 3-3 5-3 2 1 2 0 7-7 4-7 8-12 11-12l5-5c2-3 6-6 11-8l7-4 2 3 5 7 17 8 1-7c0-7 2-12 6-18l3-6c0-4 1-4 11-10l12-5h3l5-3 6-3c5-4 7-5 17-8l13-6 4-3-3 3c-2 1-2 2-2 5 0 6-1 8-3 8l-5 3c-3 3-5 4-12 5-12 3-23 8-28 14l-11 12c-8 8-9 11-3 12 3 1 4 2 2 3l-4 8c-3 5-4 8-5 14l-4 13c-6 10-8 22-6 34a679 679 0 0 1 7 29l4 8 2 8 6 12c7 14 10 15 6 2l-4-15c-1-3-2-8-4-10l-3-8c-1-3-2-7-4-9-4-6-5-10-5-17 0-9 4-17 5-11 3 11 7 22 11 27l5 6 3-4c2-5 12-17 18-22 4-4 4-4 7-3l10 2 8 1c3 0 4 8 4 19 1 8 1 9 3 12 3 4 10 5 12 2 3-4 3-12 1-20-2-7-2-8-1-14 2-8 0-12-4-15h-6c-4 1-4 1-7-1-5-5-5-5 3-10l9-7 2-3 6 2c5 3 13 4 23 5 4 1 5 1 6 4l5 8 9 13c2 5 6 11 9 14l4 6-2 4c-2 4-11 14-12 14-2 0-3 2-3 6 0 3 0 3-4 3-3 0-4 1-13 10s-10 11-8 12 13-2 22-6c6-2 7-3 8-6s2-4 5-5c5-2 11-7 14-13l3-3 3 9 8 15 4 8 5 12a83 83 0 0 1 6 15l3 8 2 14c2 5 2 11 2 21s1 15 2 18l2 5 5 1h6l3-5c6-7 6-10 1-24a136 136 0 0 1-7-31l-2-11a181 181 0 0 0-13-63c-1-3-5-7-7-8l-7-8c-6-7-6-7-6-14a81 81 0 0 0-7-31l7-4 7-3 9 5 41 20c4 1 5 3 8 9s4 7 4 16l1 13c2 3 2 4-1 6-2 2-3 4-5 16-2 16-2 19-1 19 3 0 22-24 22-27l-1-4c-2-4-2-5 1-10 3-3 3-4 2-10-1-8-2-10-7-17a118 118 0 0 0-25-22l12-1 28-5-6-12-3-4 6-2c9 0 14-2 18-6 5-6 6-13 3-23-4-14-24-36-34-37-2-1-5-2-6-4l-5-3c-5-1-30-2-33-1-2 1-2 1 15 7 7 3 12 4 15 4s5 0 6 2l2 4 5 3c5 2 28 25 30 29 0 2 0 3-3 6-4 6-10 8-21 10-9 1-11 1-15-1l-8-2h-29c-10-3-11-3-11-7-2-8-5-11-12-11l-6-2 2-1 4-2c2-3 3-9 1-15-3-6-14-8-27-3-9 3-10 2-4-8l8-13c2-5 3-6 7-7l9-5c13-10 16-18 11-30-4-10-4-9 2-12l9-3c2 0 5-1 7-3 5-5 24-14 30-14l3-2 2-2 4-3c4-3 14-6 19-6 4 0 7-2 7-6l2-2c2-1 2-1 2 2 1 2 2 2 4 2h4V99l-6-4-8-3c-3 0-4 3-3 6 2 3 1 3-3 2-4 0-5 0-7 2l-6 6-8 6-6 2-4 1c-1 0-4 1-5 3-4 4-24 14-28 14l-6 3-8 6-5 2-2-2c-2-2-2-2 1-5l12-7 12-9 3-3-2-6-19-31-8-8c-5-4-8-9-9-13-1-3-6-5-10-5l-3 1-4-18-6-17c-1 0-2 4-2 12a196 196 0 0 1-5 29c0 2 0 2-2 2l-3-1c-2 0-3 0-3-7l-1-11-1-15-1-11-4 7zm35 33-1 1c-1 1-2 0-2-1s1-2 2-1l1 1zm2 8 1 4v4h-2c-3-1-4-1-3-5l1-4 3 1zm4 15 6 2c5 2 8 5 11 16 4 12 4 12-2 16-2 3-6 5-9 6l-4 2-2-3v-5c1-2 0-4-1-3-3 1-3-2-1-4 3-3 3-5 0-5s-4-2-2-4l1-6c-2-11-2-13 0-13l3 1zm-76 43c-1 2-2 2-5 2-6 1-6-1 1-4l6-1-2 3zm-11 3 2 5c2 1 2 1 0 3-3 5-19 19-27 25s-9 6-13 6l-5-1 6-16c4-7 13-16 21-20 10-5 15-5 16-2zm91 20c1 1 0 3-1 3l-1-2c0-3 2-4 2-1zm8 17v18c0 2-1 3-4 3h-3v-12c0-12 0-13 2-14 3-1 3-1 5 5zm-27 15c-1 9-3 15-5 17l-1 2c1 0 0 4-2 7-3 6-4 8-3 4l-1-3c-3-2 1-17 8-29l4-6v8zm-87 14 6 1-12 10-6 2h-6c-10 4-12 6-13 10 0 2-1 3-4 4l-4 2c-1-1 9-14 14-19 6-6 15-11 17-10h8zm-14 55-4 3-8 5c-3 2-8 3-10 1-1-2 4-5 12-8 9-3 11-4 10-1z"/></svg>