<svg version="1.0" xmlns="http://www.w3.org/2000/svg" width="384" height="683" viewBox="0 0 288 512"><path d="M136 1c-10 2-20 8-26 17l-3 5-4-3c-2-2-4-5-4-9l-2-4-2 3-5 12c-2 7-2 9-2 17v13c3 2 3 3 0 6l-2 2h2l3 1-4 5c-6 6-11 17-12 26-1 7-1 10 1 7 1-1 1 0 1 3 0 5 2 12 4 12v-7l3 4 3 4-3 2c-2 1-2 0-5-3l-4-4-10-1c-8 1-9 0-12-2l-4-2-11-8-2-5-2-4-5-11c-1-4-3-6-8-6S5 76 3 80c-1 3-1 3 4 13 4 8 5 10 4 11v3c5 3 5 3 3 5s-1 4 3 4c2 0 2 1 2 4 0 2 1 3 4 5l4 4 3 3c5 2 7 6 8 15l2 9-3 1c-7 1-14 4-16 6-3 2-3 2-1 3l8 8 3 5-2 2c-2 1-2 2-2 4 1 2 0 2-1 2-2-1-4 1-3 4 1 5 1 5 3 4s5 2 5 7 2 9 7 14l4 4 9-1 9 1-2 3c-3 4-6 14-5 18l-2 11c-9 26-9 25-7 29l5 7c2 1 3 4 4 6l2 8 2 5c0 5 12 33 21 50l10 19 8 12c7 7 10 12 13 21l4 7v7c-3 7-3 12 1 15l6 8c3 5 3 5 1 5-3 1-3 1-2 12 1 4 1 6 4 8 4 4 4 8 1 18-2 8-2 10 8 20 3 3 4 3 6 3 4-1 7-5 8-9v-10c-2-8-2-11 1-14 6-4 6-11 1-20l-3-10c-1-4 0-12 4-20l3-7-3-5c-2-1-5-4-6-7-2-4-3-5-5-3-1 1-1 0-1-3 0-7-2-12-8-19l-9-13h5l16 1c11 1 11 1 14 4s4 4 7 4 4 1 4 2 12 11 15 11c2 0 5 4 9 12 4 6 7 9 13 9 5 1 5 1 8-1 3-3 3-8 2-14-1-3-2-5-6-8-5-4-8-9-8-14 0-3-3-9-6-10-9-2-13-6-16-18l-2-6-6-2c-4 0-6-1-8-3-4-2-5-2-6 2s0 4-17 2l-8-1-1-3 7-39c2-5 3-6 3-3 0 4 5 9 8 9l3-3 2-2c1 1 3 0 4-1h5l4 2c2 0 3 1 4 3 3 7 12 9 15 4v-7c-2-3-2-3 0-3 2-1 3-7 0-12-1-3-7-8-9-8s-4-3-12-18l-8-11c-3-4-3-4 1-4l9-1 7-2c3 0 9 10 13 20 3 7 3 9 2 11-3 7 2 18 8 17l1 3c0 8 14 15 19 9l1-5c-1-2-1-3 2-2l5 2 4 2 1 3c1 3 6 9 11 10 3 1 3 1 5-1l2-3c-1-1 0-1 1-1 5 2 8-4 5-9-2-4-6-8-8-8l-2-2c0-2-2-4-5-7l-9-11c-7-9-16-19-28-30l-11-9 3-4c6-7 9-12 14-27 7-16 10-22 17-29 10-9 25-13 33-9 6 4 5 10-2 15-4 2-7 6-7 10 0 3 4 8 8 10 7 3 18-1 24-8 7-8 8-22 3-31-5-8-8-11-15-15-8-4-16-5-25-4-24 4-40 19-51 49l-6 14c-3 10-9 18-11 17-1-1 0-2 1-4 1-3 2-5 1-8l1-7c2-5-1-4-6 2-7 8-7 8-12 3-7-6-14-16-18-25l-4-8 2-5c3-4 3-6 3-12s0-6 2-6c2 1 5 0 7-3 2-1 2-1 4 2s7 6 12 8h3l-3-3c-2-2-3-5-3-8l-1-6 5 2 10 3h7l-3-2c-4-2-7-7-7-11l3-3 11-9c7-7 10-10 13-16 3-7 3-10 4-16 0-6 0-8 2-9 2-2 3-7 1-9s-2-5-2-11c0-8 0-8-3-11l-4-6-3-4-2-3c0-2-12-17-19-22-6-6-17-11-25-12h-15zM90 110c0 3 0 3-1 2v-6l1 4zm-3 13v1l-1-1v-2c1 0 2 1 1 2zm10 9h-1l-1-1h1l1 1zm-49 17 5 3 8 2 13 3 8 2-2 2-3 5-4 5-5 5-3 4c-2 2-3 2-6 0s-4-2-8-1l-4 1v-8l1-10c3-4 2-6-3-6-3 0-3-1-4-12-1-6-1-7 1-9 1-2 2-2 3 5l3 9zm53-14h-1l-1-1 1-1 1 2zm40 10v2l-1-1v-2l1 2zm-4 64c4 4 4 5 3 8 0 3 0 5 2 7 1 2 1 4-2 2-2-1-10-17-10-22-1-5-1-5 1-3l6 8z"/></svg>