<svg version="1.0" xmlns="http://www.w3.org/2000/svg" width="455" height="683" viewBox="0 0 341 512"><path d="m208 3-6 4-4 2h-4v6c0 6 0 7-6 17l-11 17-5 7h-9l2 2v2c-3 1-2 3 0 3l2 3c0 2-1 3-5 5l-7 4-2 2v-2l1-6c1-3 1-4-1-10l-4-6-4 8c-2 6-2 9-2 13l1 5-3-2c-3-2-3-2-1-4s1-2-1-2h-3l3-3c3-3 4-6 0-3h-3l-10 2-9 1 1 4c2 4 2 4 1 7l-4 7c-1 4-1 5-3 4l-5 2c-3 2-5 3-8 3-4 0-4 0-5 4l-1 5-1 1-2 4c-1 2-1 4 2 8l3 6 7 7 7 7-2 5c-2 7-4 11-5 11l-3 2c-3 2-3 2-1 4 1 1 1 1-3 6l-10 7c-8 3-9 5-4 5h4v3c-2 6-7 16-42 74-36 61-39 67-42 81v4l6-5c4-2 8-7 11-10l32-48 29-45 13-8c12-8 18-13 24-20l3-4-1 4c-4 9-9 15-26 32-26 26-33 37-34 52 0 8 1 12 5 17 7 7 14 7 42 0l22-6c2 0 2 4 4 40 0 20-1 25-8 40-4 7-6 14-8 23-4 15-8 29-9 28-2 0-5 4-5 7l-1 5-3 10-1 11c-1 14-1 15 1 19 5 8 8 8 12 0 2-3 2-5 2-11 0-13 7-35 17-55l2-4 2 5 4 15 3 14v5c-1 1-1 11 1 34 1 15 3 20 7 25 3 3 3 3 5 1l4-8c2-6 2-7 1-14l-2-16-2-22-5-57v-13l2-3 7-12 12-19 10-15a218 218 0 0 0 20-48l27-1 25 1 14 3a352 352 0 0 1 75 30c2 0-9-13-18-23l-16-15-8-5 2-3c3-4 3-6-5-9l-11-5c-3-1-4-2-7-7l-3-7h-6l-13 1c-6 2-7 2-8 0-5-7-6-8-12-8-7 0-5-1 3-3l6-2c0-2-10-2-22-2l-13 1v-3c-1-4-3-5-9-3l-4 2v-6c2-16 3-22 5-26l3-6c0-5-3-9-7-11s-3-3 3-4c9-1 11 2 15 13l12 11 4-4 2-4-2-5c-2-4-4-5-9-8s-14-5-18-4v-4c0-2 0-4-2-6-3-5 0-10 16-32 5-7 6-9 4-16-2-3-2-5 0-11l2-10c1-4 0-13-1-12l-2-2c-1-2-1-2-3-2h-2l-7-1c-7 1-9 0-12-6-2-5-7-10-11-13-2 0-2-1 3-9 10-16 14-20 19-22l5-3-1-3c-2-4-2-4 0-5 1-1 3-14 1-14l-6 3zm-26 70c4 0 7 3 7 4l-4 2c-3 1-6 2-7 4-5 4-10 7-8 4v-3l1-4c2-1 2-3 2-4-1-4 0-5 3-5l6 2zm-41 16 3 8c0 6 0 6-3 7-4 2-6 2-6 0l-3-2c-3 0-4-1-5-3l-2-4c-1-2-1-2 3-4 6-5 10-5 13-2zm46 1-1 1-1-1c0-2 2-1 2 0zm-5 5c-2 2-5 2-5 1l2-2c3-2 5-1 3 1zm17 16c8 5 8 9 0 19-7 10-9 12-10 12h-2l-1-3h1c1 1 1 0 1-3 0-5 2-7 2-3 1 1 1 1 1-2 0-4-2-10-6-15l-2-3h10l-2-5c-3-6-2-6 1-3l7 6zm-10 17h-1l-1-2h1l1 3zm-9 14-2 2 1-4h1v2zm18 26-3 1v-1l2-1v1zm-5 2c1 2-3 4-5 3-1-1-1-3 1-3h4zm-85 2-1 1-1-1 1-1 1 1zm-20 32zm70 12c0 2-3 8-13 20-9 10-12 16-13 23 0 6-2 7-11 5-14-4-20-13-17-24 3-7 6-10 15-14l8-4v3c0 3-3 6-6 6-1 0-2 1-3 5-3 8-3 8 2 6 5-3 6-5 6-10l4-6 5-6 6-6 3-3 5 4 4 4-2-8-1-8c0-1 7 9 8 13zm-64-4c-1 3-4 7-7 9-6 6-6 6 2-7l7-8-2 6zm112 13h-2v-1l2 1zm93 40-1 1-1-1v-1l1 1z"/></svg>