<svg version="1.0" xmlns="http://www.w3.org/2000/svg" width="385" height="683" viewBox="0 0 289 512"><path d="M191 11c-3 6-3 15-2 19l2 4-6 1c-7 0-13 2-16 5-2 3-3 2-5-1-2-2-5-3-6-1l-6 1c-4 1-6 2-9 5l-4 5-5 5c-5 3-5 3-10 3-6-1-16 1-19 3l-5 3c-5 1-10 7-11 12 0 4 1 8 6 12 2 3 3 3 5 2 3-1 2-3 0-2-4 1-6-3-3-8 1-3 1-3 2-1l2 4c2 1 2 1 1-2-3-5 8-12 14-11 3 1 3 1 1 4-2 4-1 11 1 15 5 7 16 8 16 2 0-2 0-2-1-1-2 3-6 2-9-1-4-3-4-8-1-11l2-2v2c0 3 4 7 8 7 2 0 3 0 2-1-3-1-6-4-6-7 0-4 4-7 14-12l12-5 3-1c0 3-9 26-12 32l-9 14c-5 5-8 7-18 12l-17 6c-13 1-20-4-21-13 0-5 0-6 3-4l-1-2c-1-1-1-2 1-3 1-2 2-2 4-1l4 3c1 2 1 2 1-1 0-6-6-8-13-3l-5 3c-3 0-10 5-17 12-8 8-10 12-10 14s0 2 1 0l7-10-1 5-3 11c0 6 0 7-2 6l1 2c4 6 13 11 23 12l28-3c5-2 5-2 6 0 1 3 4 4 6 3v-1c-2 0-6-4-5-4l6-3 13-8c6-4 7-5 5-2-7 12-17 21-24 23-4 0-4 2 0 2 9 0 20-6 27-14l4-4 1-2 1 2 2 11 1 7 1 2 3 4c6 9 16 17 23 17 2 0 2 0-1-2-6-2-11-7-12-10-3-4-2-4 1-1 8 6 20 8 26 3 3-2 4-2 5-1l-2 5-3 6c-4 7-15 21-21 26l-17 9c-9 4-11 5-11 7 0 3-6 5-19 6-5 1-5 1-3 2l14 2 12 1-13 6c-14 5-16 6-16 9l-3 1c-7-2-12-2-14-1-4 1-16 12-17 16-1 3-1 4 1 7 1 3 3 4 9 7l8 5-4 4c-4 3-5 3-13 4-9 0-10 0-14-2-7-4-10-9-11-18v-6l-4 4-4 4-1-6v-18l-12 7-4 5v-4c0-4 2-7 7-16l6-13-13 7c-14 11-26 33-23 44 3 14 19 27 37 30 7 1 8 1 14-1l14-6 15-6c6-2 9-2 18-2 10 0 11 0 17-3l14-8c8-6 9-6 16-3 6 1 6 1 12-6l4-5v3l1 8 1 5-14 14c-17 16-28 31-30 39-1 4 0 4 3 0a407 407 0 0 0-17 54l4-7 12-18c7-9 10-12 13-21l5-11-1 6c-2 10-2 10 8 0 5-4 9-9 9-10l1-1 3-1 2-2-5 12c-8 17-8 19-9 39l-1 20 1 8 1 5-5 5-5 5 1 10v15c-2 6 0 9 5 16l4 6 2 4v8c0 7 0 9 6 15 10 10 18 10 19-1 1-3 0-6-1-12-5-16-8-53-5-73 1-6 7-23 12-33l2-7c0-3 10-24 15-31l9-18 9-16 3-2v3c0 4 0 4 4 6 6 2 14-1 19-8l2-4-1-7c-1-3-2-6-1-7h3c4 0 6-2 6-5l-3-15-3-14 8-3 8-4c0-2 1-2 6 1 8 3 12 3 4-1-7-4-13-11-18-21a655 655 0 0 0-17-41h7c5 0 10-4 13-9v-7l-1 1-4 6c-6 7-12 9-16 5-3-2-6-8-6-10l4-1 8-1c1-1 5-3 8-3 9-3 14-8 16-16l1-3-2 3a33 33 0 0 1-18 14l6-6c9-4 13-11 13-21 0-12-5-17-17-19l-9 1c-2 0-2 0 2 2 7 2 10 6 10 14 0 13-11 21-23 17-3-1-5-5-6-12 0-7-1-9-6-10-3-1-1-3 2-2l10 3 7 3-12-10c-2-1-2-1 5-6 6-5 6-5 15-5 12-1 14-2 17-10 1-4 4-8 6-11 5-4 7-9 6-12-1-1-1-1-2 2l-5 6 2-7c2-6 2-10 1-13-2-1-2-1-2 3-1 5-3 8-3 4 0-3-3-7-4-7l-1 2 1 5 1 4-4-4c-5-5-16-11-29-16-7-3-8-4-8-7-1-4-3-6-6-7-2-1-2-1-1-3 2-2 8-4 10-3v-2c-2-1-3-2-7-2s-4 0-3-2c2-7 4-9 10-13l4-2-3 1c-8 1-14 6-19 13-3 5-4 6-5 4l-3-6c-3-5-7-13-8-19l-1-4-3 4zm19 30h-1l-2-2h1l2 2zm-62 1-2 2h-1l3-2zm-37 18-3 1v-1h3zm122 17 6 6-6 8c-6 7-8 8-13 6h-2l2-4 2-6 3-1h3l-1-1-2-2c-1-2-1-3 1-2h3v-3l-3-6 7 5zm32 7-2 3v-4c2-4 3-3 2 1zm-53 11v-2c0-2 0-2 1-1l-1 3zm44 3-4 5v-2l4-6 3-2-3 5zm-180 7c-2 7 2 17 9 24l1 1-1-2 4 2 10 2c5 0 6 0 5 1l-4 1-2 1-10 1c-11 0-19-3-22-7-5-8-3-16 3-23 5-5 8-6 7-1zm187 18c2 2 3 8 3 10-1 1-1 0-2-3l-3-5-1-2c0-2 2-1 3 0zm-16 41-5 1-6-1 10-2c3 0 3 0 1 2zm-7 3c3 0 3 0 2 1-2 1-5 1-8-1v-1l6 1z"/><path d="m90 133 2 1-2-1c-1-1-1-1 0 0zm4 2h2l-2-1v1zm-47-3h1v-2l-1 2zm92 15c0 1 0 2 1 1v-2c-1-1-1 0-1 1zm-41 5c-2 1-1 4 1 5 3 1 4 1 2-1l-2-3-1-1zm41 2h1v-2l-1 2zm3 5 2 2-1-2-3-2 1 2z"/></svg>