<svg version="1.0" xmlns="http://www.w3.org/2000/svg" width="336" height="683" viewBox="0 0 252 512"><path d="M110 1c-7 1-11 5-9 9l-3-1c-4-2-7-3-12-1-4 1-8 8-8 13 0 3-1 5-7 10-5 6-7 7-9 7-3-1-3 0 1 3 2 2 2 2 1 4v2l-2 6c-3 7-4 12-1 16 2 1 2 1 1-3l1-5c1-2 1-2 2 1l1 6c2 3 2 5-2 10-4 4-5 8-3 9v-1c0-2 0-3 2-4 2-2 2-2 3 1l4 3c1 0 2 0 1-1-2 0-1-5 1-6 2 0 4 2 4 5-2 4-5 6-11 6-7 0-12 2-15 7-1 3-1 3 1 6 4 3 3 5-1 5l-3 1 7 1v2c0 2 5 0 6-2s2-3 1-4c-2-4-1-6 4-7 4-2 5-2 8-1l3 2-4 3c-3 2-4 3-4 5-1 5-4 6-8 5-3 0-3 0-2 2l-4 4c-3 3-3 4-3 9 0 4 0 6 2 8l2 7v4l-3-2c-6-3-6-4-7-19l-1-2c-1 1-2 0-3-1-3-2-11-2-16-1l-4 1-1 1-1 2-2 5v8c2 5 2 5-2 5-4-1-10 0-10 2l7 2 6 2h-6c-15-1-16 4-3 6l10 3-5 1c-3 0-4 0-4 2l3 1 16 2-2 4v6l1 8c0 7 0 7 3 7 2 1 3 2 4 5 2 3 3 4 5 2l2-2-6 13c-6 13-7 13-13 17l-8 4c-4 2-1 3 5 3h5l-2 6-3 11-2 9c-6 9-11 34-9 42 1 2 1 2 5-6s4-8 6-6c1 1 1 1 1-1 0-4 6-10 13-15 3-2 5-4 5-6l1-3c3 0 3 1 2 2l-6 22c0 6 0 8 3 15l6 13c2 5 10 13 11 13l1-8 1-12c1-2 1-2 2 3 1 3 3 9 3 14l6 18a408 408 0 0 1 18 106l-1 4-1 4-1 3 2 4c1 0 2 1 2 3l1 4c2 2 2 4 2 11l-1 14c-3 15 6 21 16 11 8-6 11-16 8-23l-2-7c0-3 0-3 2-2 2 2 5 1 6-2 1-2 0-4-1-7l-4-8c0-2-2-5-4-6l-4-5-3-5c-2-3-2-8 1-26l2-12c0-5 2-3 7 8 4 7 5 11 5 14l-1 6c-3 2-1 8 3 8l3 2c2 4 3 19 3 24-1 7 1 15 4 18 5 5 15 1 20-8 2-4 2-12-1-19s-4-9-1-9c3-1 4-4 1-13-2-9-4-12-12-16-4-3-5-4-7-10-3-9-5-15-8-33-4-22-7-28-19-39-8-8-10-11-9-18 1-4 8-24 10-25l4 3c3 7 13 16 23 23 13 8 18 9 12 2-2-1-4-4-4-6l-6-20c0-3 0-3 6-3 7-1 8-3 8-11l1-5 4 2c4 2 4 2 7 15 0 4 1 4 1 2l1-7c0-7-1-7 11-5l13 2 12 1c6 2 13 2 12 1l-7-3c-16-7-31-20-34-32-1-2-1-2 5-2l13-4c6-2 8-4 5-4l-23-4-2-2-1-3c-2-3-2-4 0-4s1-2-2-3l-3-2 3-1 4-1-4-1-9-7-10-7c-5-3-20-19-20-22 0-2-1-4-3-5-2-2-2-4 1-4 2 0 5-5 5-8l1-3c1 1 1 0 1-1 0-2 1-2 3 2 3 5 12 13 18 16 9 4 18 4 32 2 2 0 3 0 4 2l5 7c6 7 6 8 4 17-2 5-6 9-10 10-7 2-14-5-11-11l2-2 1-1c0-2-5 1-6 5-2 2-2 4-1 7s1 4-1 3l-2-2-1-1c0 3 2 5 8 9l7 6c4 8 18 9 28 2l5-2c7-2 12-11 11-21l-1-5 5 1c10 1 18-4 18-11v-4l-2 4-3 4c-4 2-17 0-17-3l3-4c4-5 3-13-4-23-4-7-4-7 4-3 9 4 12 9 9 14v2c1 0 2-1 2-3l2-3 2 3c5 6 6 17 4 23-1 4-1 4 2 0 5-8 2-19-10-32-7-8-11-10-19-12-4-1-7-2-9-5l-9-6-33-10c-8-2-21-9-26-15-3-3-5-5-4-6l3-2c1-1 1-1-1-1l-5-2c-2-1-2-3-2-9l1-19c1-1 2 0 1 1-1 2 3 0 7-5 5-6 5-10 2-17-1-3-1-4 1-5 2-2 2-2 5 0 4 2 8 1 11-3 3-3 3-5-1-5-3 1-8-1-10-4l-2-10-5-13c-4-8-13-13-20-10-2 1-4 1-6-1l-7-1c-4 0-4 0-4-3 0-6 7-8 14-4l3 4c0 3 1 2 3-2 0-2-1-3-3-5-3-3-7-4-15-2zm38 57c-1 1-3-1-3-3h2l1 3zm-10 24c-1 2-1 2-2-1-1-1 0-3 1-5l1-2 1 3c1 2 1 4-1 5zm20 60c8 3 9 4 6 4-6 0-13-3-15-5l-1-3 10 4zm-108 9c0 2-2 1-5-2-2-2-3-4-2-5l4 3 3 4zm62 2c0 3-1 4-3 5l-4 1 2-5c3-5 5-6 5-1zm100 13c5 3 7 5 9 8 3 5 5 10 4 14-1 3-1 2-9-5l-8-9-5-7-5-5h4l10 4zm17-1 4 3-2-1-8-3-2-1 8 2zm-79 6 9 4 4 1h-4c-6 0-9-2-12-5s-2-3 3 0zm73 52c-1 4-5 8-7 8l3-5 4-9c1-4 1-4 2-2l-2 8zm-17 5c-4 6-13 9-20 6-5-2-3-3 4-3 6 0 7-1 12-4 5-4 6-4 3 1zm-49 3v1l-2-1 1-1 1 1zm-28 18c4 1 4 2 5 6l2 11c1 4 1 5-1 8l-2 3v-4c0-4 0-5-4-9l-5-4 1-7 1-6 3 2z"/><path d="M28 112h1l1-1h-1l-1 1zm-15 24c-1 1 0 2 1 1 1 0 2-2 0-2l-1 1z"/></svg>