<svg version="1.0" xmlns="http://www.w3.org/2000/svg" width="472" height="683" viewBox="0 0 354 512"><path d="M153 10c-6 1-6 2-1 2 6 0 15 3 17 6 2 1 2 2-1 1-5 0-14 2-21 5-13 6-28 25-29 36l1 5v-4c1-4 4-9 8-13l3-2-3 6c-3 7-4 14-2 17 0 1 1 1 1-1l1-3v3l-2 5c-2 2-2 2-3 1h-2l4 2 5 1-1 4-2 7v2c2 0-7 8-10 9s-3 1-1 1c7 0 19-7 22-13l2-4 3 4c5 7 6 7 3 5h-6l-6 6c-7 10-8 11-14 11l-10 2c-6 2-9 2-11 0h-6l-6 3c-3 2-5 2-10 2l-8 1c-1 2-4 10-4 14 0 3 0 3 3 3 10 2 12 2 14 0 2-1 4-1 8 1h6l5-4c2-2 4-2 11-2 7-1 9 0 8 1l-4 1-6 2-3 2h3l7 1-3 3c-5 4-10 12-10 17l2 6c1 2 2 2 7 2 5-1 6-1 12-6l7-5v3c0 9-2 14-8 21-4 3-7 7-7 8-1 2-1 2-4 1h-5l-6 2-12 1c-7 0-9 1-11 3-2 3-3 3-12 4-20 2-53 13-59 20-3 4-3 10-1 16l2 10c0 8 2 12 10 18l7 6c0 2 2 3 6 3l7 1 14 5 17 5c5 3 6 3 7 8l2 5v16c-3 9 0 15 6 17 4 0 4 0 4 4l2 6 2 3-3 5-2 10-2 8c-10 20-17 36-17 42 0 7-9 27-13 29l-1 3-3 5c-2 1-3 4-3 5l-7 8-8 10c0 2-2 3-4 4l-2 2-4 6c-7 7-8 10-9 19v8l3 1c4 2 8 2 10 0l4-2c4-1 10-8 15-18l7-11c3-3 5-7 5-9l3-4 4-4c1-3 3-4 5-4 3 0 3 1 3 6 1 8 3 12 7 14 6 3 8 1 3-4l-7-17c0-5 0-5 2-5 2 1 2 1 2-3l-1-5 4-6c9-10 19-23 22-30 2-3 4-9 4-14l9-32c2-5 3-5 13-3l8 1 6-1 7-2 7-3 11-5c5-3 13-12 13-15l-2-6-2-11v-6l6 2 27 8c4 0 4 0 4 3l-1 4-5-1-5-2c0 1 4 5 6 5 1 1 0 1-2 1l-7 2c-2 1-2 2-2 5l3 7c5 5 18 8 23 4 6-4 8-8 7-19l-1-7 4 1c3 0 4 0 8-5l5-5a528 528 0 0 1 26 35l4-2c1-2 1-2-11-20l-12-19c0-1 2-4 6-6l6-5h8a98 98 0 0 0 72-26l-13-21c-6-8-13-15-20-21l-6-5-9 9c-11 11-12 12-15 8l-5-7-5-8c-1-3-1-4 1-7 2-2 2-4 2-7s1-5 3-8c5-6 7-12 6-14-1-3-9-10-17-14-7-5-20-12-22-12l-2 4-1 4c-1 2-12-8-18-15l-7-7-3-4-3-4-4-4-4-5-5-5-8-9-8-7-2-4 3 4 12 6-5-7c-4-3 0-2 6 1l13 6c7 2 17 3 19 2l-2-1-6-2c-3-2-3-2-1-3l5-2 3-1h-3c-3 1-3 1 2-4 5-6 7-10 2-6l-2 1-3 1-9 4c-4 0-4 0-3-2 1-1 2-2 1-3l3-2c7-1 13-13 11-21-1-5-3-5-2 0v4l-1-3c-2-7-3-9-4-8h-1l-4-4v2c3 2 4 9 3 12l-1 3-1-3c-1-2-1-2-2-1h-4c-4-2-6-6-2-5l4-1c2 0 2 0 1-1l-2-1-2-2c-3-2-5-6-6-16-1-7-2-10-5-13-3-6-10-12-14-12-2-1-3-1-2-4 0-2 0-3-3-5-7-5-17-7-28-5zm63 72c-2 3-9 8-14 8-2 1-2 1 0 0 5-2 8-5 8-7v-2l4-2c2-2 3-2 3 0l-1 3zm-13 3-3 1c-1-1 1-3 3-3v2zm8 12h-2l2-1v1zm-87 33h-2l1-1h2l-1 1zm6 10c0 5-1 8-7 12-9 6-15 2-11-6 2-3 3-5 9-7l8-4 1 5zm-14 19-6 1c-3-2-2-3 2-2l4 1zm92 8c3 4 6 6 8 7l10 9c8 8 9 10 8 12-1 3-7 9-12 12-4 2-5 2-12 2-12-2-14-2-16-7l-5-6c-2-3-2-3-2-12 1-7 1-10 5-17l4-9 3 2 9 8zm-2 56c0 1-2 1-3-1h1l2 1zm48 3-2 6-2 4-1 6c-1 2-1 2 1 2s4-2 6-7c2-2 3-3 5-3 3 0 5 1 8 5l5 6a83 83 0 0 1-53-1l-7-5h5c3 0 4 0 7-3 2-2 4-3 5-2h3v1l1 3h5c4-1 5-3 5-9 0-3 1-4 3-5l5-2c2 0 2 0 1 4zm-18 4c0 1-1 2-2 1-2-1-1-2 1-2 1 0 2 0 1 1zm5 1-1 2v-2l1-2v2zm-131 23c-6 17-7 20-8 17l-8-1c-5 1-7 0-9-1l-3-1-2-1 23-13h7z"/></svg>