<svg version="1.0" xmlns="http://www.w3.org/2000/svg" width="444" height="683" viewBox="0 0 333 512"><path d="M189 7c-2 3-1 8 1 11l8 3h-3c-12-1-17-1-21 1-6 3-8 7-8 15s-1 11-4 8v-7c-4 0-5 8-2 11 3 2 8 1 10-1 2-1 2-2 1-8 0-6 0-6 3-8s9-2 11 0c3 2 2 3-1 4-5 1-6 3-3 8 2 4 2 6-1 6-2 0-3-3-1-4 1-1 1-1-1-1-3 0-5 3-3 4 2 2 6 2 10 1 4-2 5-3 2-5-2-2-1-5 2-6l5-4c4-3 12-7 13-6l-1 1c-3 1-7 4-8 7l-2 3 4-1h3v4l-1 3h-5l-5 1 1 3c2 3 5 5 8 5 2 0 2 0 1 1s-1 1 1 2c2 0 3 3 2 5-4 7-7 8-11 3l-6-5-5-3-2-1c1 2 1 2-2 2s-5 2-5 5v3l2-2c2-2 6-3 8-1s2 2-1 2c-6 1-11 8-9 15l2 4v-1c-2-3-1-5 3-9l7-2h3l-2 2-9 9h9c10 0 19 2 17 4l-5 1c-3 0-5 1-16 10-5 5-6 5-11 5s-7 1-10 3l-7 5-6 4c-10 6-14 14-8 21l3 3 3-6c2-11 7-13 22-9l14 3c3 0 4 1 1 2l-1 4-8 14-8 12v8l-2 12c-2 3-3 4-7 5-10 2-13 4-16 8-3 6-8 10-9 10l-6 1-9 3c-4 1-5 3-2 4l9-1 9-2-1 4c-3 4-3 15 0 20l1 3c-1 0-3 6-3 11l-2 3-1 3-18 36-61 118a1198 1198 0 0 0-45 96l5-4 11-16a157507 157507 0 0 1 121-228l4-3c2-2 3-4 3-7 0-5 0-5 4-7 5-2 13-11 13-15s6-15 11-20c4-5 5-5 13-7l10-2c0 1-12 17-22 28-23 25-33 40-38 56a153 153 0 0 0 4 68c1 2 3-3 6-12 2-5 2-8 2-13l-1-5 11-8c19-15 25-21 34-30 6-7 9-10 9-8l-8 10c-8 8-9 10-7 16l2 7c1 4 0 4-1 5l-13 5c-6 3-11 5-12 4-3-1-2 2 2 6 5 5 14 9 21 10 6 0 7 0 13-5l9-5 2-1-1 6c-1 12 0 19 9 53l3 12-1 16-3 22c-3 8-3 9 1 16 2 5 2 6 2 11l-5 17c-4 13-4 19-1 26 4 8 11 9 17 4 5-4 6-8 6-18-3-25-3-34-2-41 3-17 7-29 15-47l7-21c3-9 3-11 2-24-1-30-1-34 2-41 9-22 22-55 26-69l2-20 1-18c1-2 1-3-1-4-3-1-5-5-5-8l-2-4c-3-2-3-4 1-9 3-3 3-3 10-4 5 0 7 0 9-2l4-3c2-2 3-2 5-1 4 1 6 0 5-3 0-2 0-3 4-4 6-3 9-6 7-10l-3-2-7 3-8 2c-2 0-2 0-2-2v-3c-1-1-6 3-6 5 0 1-7 2-11 0s-13-9-13-11-2-3-7-4-6-2-6-7c-1-4-1-4 2-3 4 0 7-1 9-6l3-4c5-1 10 5 8 9 0 2 0 2 3 2 5-2 12-9 12-13s-18-12-27-12-13-2-11-7v-5c-1-2-1-3 2-4 5-2 14-10 14-11l-10-1-10 1-4-3-4-7c-1-5 0-6 4-5 2 0 3 0 2-2l1-2c3 0 4-2 3-3l-3-11c-3-12-6-18-13-24l-6-6-4-1c-3 0-4 0-4-3 0-2 0-3-3-4-6-3-9-3-15 3-7 6-11 8-14 8-3-2-10-10-10-13 1-2-1-3-2 0zm26 133 6 11c0 3-3 13-6 18 0 2-2 3-3 4l-2 2-2 4c-1 1-2 2-1 3l-3 2-10 3-7 1 2-4 3-3c0-1 1-2 3-2l5-4c2-3 2-3 2-10v-13c1-7 5-20 6-20l7 8zm100 26-2 1v-1h2zm-32 11c-3 4-4 4-5-1-1-2 0-2 3-3h4l-2 4zm-44 123c-2 11-3 12-3 2l2-10c2-3 2-1 1 8z"/></svg>