<svg version="1.0" xmlns="http://www.w3.org/2000/svg" width="452" height="683" viewBox="0 0 339 512"><path d="M198 10c3 2 8 8 7 9l-5-2c-5-3-13-4-19-2-5 1-10 6-10 8s1 1 3-1c3-4 13-6 19-4 2 0 2 1-2 3-6 3-13 10-16 17-4 7-5 9-8 7h-2c0 2 4 5 6 4s1 2-2 7c-2 5-3 6-5 6l-8 2c-4 1-4 1-6-1-1-2-1-8 2-10v-1c-3 0-8 3-11 6-3 4-4 13-2 15 2 3-1 3-5 1-6-3-10-11-10-17 0-3-1-4-2-3-3 3-3 17 0 23l5 5 3 2-7 6-9 9c-4 2-9 1-12-2s-3-1 0 3c3 5 9 7 19 7h8v3l-2 5-16 13-5 3 4 2c5 2 4 1 2 5l-1 14c-1 9 0 11 2 14l2 4h21l7-5 7-5-1 6c0 7 1 14 4 17 2 2 2 2 1 0-2-3 0-8 4-15 3-5 10-11 12-11 1 0-1 22-3 29-1 7-2 8-6 9l-4 3 1 2c2 3-1 11-3 12l-4 2c-1 2-3 2-9 2-26 0-44 7-56 21-5 6-5 7-1 5 7-4 27-5 34-2l3 1-2 3-13 14-12 14-1 7-2 9-3 11-3 14-4 12-3 9c-3 5-3 6-2 8l2 9c0 6 0 7 3 9 4 2 4 3 5 10l1 9c-3 10-11 29-13 31l-3-2c-4-3-11-3-14 1-4 4-5 7-5 16v8h-4c-4-1-6-2-16-12-6-7-13-12-14-13h-7c-3 0-3 1-4 4 0 4 5 22 10 32 3 7 6 10 16 18 9 7 11 9 9 12-1 3-1 4 3 9 7 10 11 14 17 15l4 1 6-5 8-11 3-5 6 4c1 1 0 4-1 6-1 4-1 4 1 6 1 1 5 4 9 5 5 3 7 3 13 3 8 0 12-2 13-6 3-10 3-15 3-28a280 280 0 0 1-2-32l-3-40c1-9 1-9 4-9 4 0 5-2 7-10l6-12c3-5 4-7 4-10-1-1 0-6 1-11l2-12c0-5 1-7 4-11l3-8 1-2v5l1 13c1 5 2 8 7 15l8 14c4 8 4 23-1 28-1 2-1 2 3 2 5-1 12-6 15-11l1-2 3 6c8 17 27 35 44 43l17 8c14 7 27 11 36 12h8l-4-3c-11-5-25-18-35-33-17-26-27-55-30-86-1-17 4-35 12-40 3-2 3-2 5-1 1 1 1 1 1-1 0-3 4-5 24-15 18-8 24-16 23-31v-9l-1-3 6 3c8 3 21 4 26 2 3-1 4-3 2-3-6 0-17-10-25-22l-4-7h7c8-1 11-2 13-5l5-4c5-3 9-8 9-12 0-3-1-5-6-11-3-5-7-9-9-10-4-2-7-5-8-8l-2-2c-2 1-11-5-19-13l-9-8c-7-7-10-11-10-16 0-2 0-3-3-3-2-1-2-1 0-4 2-4 2-10-1-15-4-6-5-7-4-3 0 3-3 8-5 6h-1l-4 2c-3 0-3 0-3-4 0-3 0-4-1-3 0 2-2 1-2-1 0-3-5-9-9-12-4-2-4-2-2-5l2-7c1-3 1-4 4-4 4 0 6-2 6-3l-2-1c-3 1-6-2-11-12-6-11-11-16-17-17-4-1-5-2-5-4-1-3-9-7-13-7h-2l3 1zm-23 173c-1 5-7 13-7 10s6-15 7-15v5z"/></svg>