<svg version="1.0" xmlns="http://www.w3.org/2000/svg" width="507" height="683" viewBox="0 0 380 512"><path d="m150 3-1 12c1 8 0 10-1 10l-3 9c0 1-8 6-12 6h-2l3 2 9 2h5v6l-3 12c-4 9-15 26-20 30-6 5-19 11-31 14l-15 4c-8 4-13 10-14 17 0 3-1 4-4 4-8 1-22-4-26-10l-2-1c0 3 10 11 15 13l8 2c2 0 0 2-5 5-15 7-21 18-16 27 2 5 11 14 14 15 3 0 9-1 11-4 2-2 2-2-2-1-5 2-13-1-15-4-2-4-1-11 1-16l1-4 2 3 11 13c4 4 7 4 14 0 6-3 6-4 1-2s-11 0-12-3c-2-3 0-9 5-14l4-4 4 3c5 4 5 5 4 10 0 6 2 14 6 20l3 4h-6l-12 2c-8 3-19 11-28 19l-10 8c-6 3-15 10-19 15-13 18-16 37-6 56 8 17 21 22 50 19a340 340 0 0 1 35-2l-7-8c-17-17-28-42-31-65v-6l5 2 11 3c7 1 9 1 16-1l8-2 2 2 2 3-18 13-13 9c0 2 5 1 9-1l3-2-2 5-2 6v2c2 0 5-4 7-7l2-5c2-1 2 0 2 3-1 4 0 6 1 7 2 2 4 1 4-2 0-2 0-2 3-2 3 1 5 0 3-1-2-3 7-13 10-11 1 1 1 0 2-2 0-4 2-4 8 1 4 4 8 5 10 3 1-2 2 0 3 7 1 9 5 23 13 47 5 17 7 27 6 38-4 38-2 53 14 84l10 20c1 5 3 16 3 26l2 8 2 8 1 6 3 7c2 8 3 10 9 14 9 5 12 4 14-7 1-6 1-6-2-13l-3-8-3-7-3-9-2-5a347 347 0 0 1-17-118v-21a4738 4738 0 0 1-4-75c3-1 3-1 3 4a651 651 0 0 0 14 87c12 21 20 53 20 78l-1 12-2 6-1 7-1 7-1 7c-1 4 2 17 5 20 4 4 9 2 14-9 2-3 2-5 2-9v-7l-1-30 1-29c3-39 2-49-6-61-8-13-8-14-7-25l4-23 4-32c0-4 0-4 6-5l7-4c1-1 2-2 3-1l7-1c5-2 7-5 6-9 0-2 0-3 2-4l5-4 1-2 6 5 14 10 8 5 11-1 18 1 8 1 8-4c5-2 11-7 14-9 12-11 23-30 30-49a121 121 0 0 1 7-18l-11-1c-12 0-28 2-39 5s-28 12-40 21c-21 16-22 16-25 10l-6-5-4-3-3-14c-1-12-1-12 1-15 2-1 2-3 2-6-1-4-1-4 2-4 6 0 7-7 2-11-2-2-2-3-1-5l1-3 7 2 13 7-3 3-3 3h4l7-1 5-1c2 1 3 1 3 4 0 5-2 11-6 12-4 2-13 2-15 0l-4-5-1-3v3c0 7 5 12 13 12s24-11 27-18l4-4c20-4 29-9 33-18 1-4 0-11-4-14l-2-2 2 3c2 4 3 8 1 11-2 4-5 7-8 9l-3 1 2-3 1-10c0-5 0-6-3-11-4-5-12-11-15-11-2 0-2 0-1 1 3 0 8 5 10 8v12c-3 5-11 11-15 11l-3-3-7-8-8-9c-5-8-11-10-28-12-22-2-30-4-39-12l-4-4 4 2 5 1c1-1 0-4-2-4v1c1 2-3 1-5-2-4-5-4-6-3-15 0-8 1-8 2-2l1 4v-5l-3-12c-3-7-3-10 0-9v-2c0-1 0-3 2-4v-3l-2-4-1-3v-5l1-9c0-4-2-4-8-1l-4 2-4-5c-5-4-11-8-12-7l6 7c6 6 7 9 3 6-6-4-25-5-29-2l-6-3-9-6-4-2-1 3zm10 73c3 2 3 3-1 5l-3 3 4 2c4 2 7 6 5 7l-13 4 2-7 2-8c0-2 0-3 2-2v-6l2 2zm38 6-2 2-3 1c-3 2-2-1 1-2 3-2 4-2 4-1zm-86 25-12 9-12 9-2 2 2-5c3-7 6-11 14-13l9-4c4-2 4-1 1 2zm168 0 2 3c0 2-7 1-20-3l-5-1 3-1 10-1c6 0 7 1 10 3zm-140 1-1 1 1-2c0-2 1-1 0 0zm-8 10-14 6c-3 1-3 1 2-2l8-6c4-2 5-1 4 2zm77 18 2 18c0 3 5 10 7 10s5 3 8 10l3 7-3-2c-3-2-17-14-22-20-5-5-10-13-10-15l7-14 2-7 1-4 1-2 2 2 2 17zm68-17c3 2 8 6 7 7l-10-6c-5-3-4-4 3-1zm-143 11v2l-2 2-13 1c-11 0-12 0-13 2-1 3-1 8 1 10v4c-2 2-2 5-1 8 1 2 1 2-5 2-4 0-5 0-2 1 2 1 2 1-3 1s-9-1-12-5l-2-2h2l4 2-2-4-6-8 4 1 9 1c6 0 6 0 2-1-2-2-7-7-7-10 0-1 15-7 22-8l14-4 9-4v4l1 5zm191 66c-4 8-7 11-13 15-4 2-7 3-11 3-6 0-9-1-9-3 0-1 9-2 10-1h1l4-1c2 0 6-4 6-7s3-5 6-5l3-2c1-3 1-3-1-3-1-1 0-1 3-1h4l-3 5zm-8-2c-2 2-4 3-8 2l-2-1 4-1c6-2 8-3 6 0zM33 239v27c-1 1-8-4-11-8-3-3-6-10-5-11 2-2 6 2 8 5l3 5c2 0 1-3-1-5-2-3-2-5 0-6l4-3c1-3 1-3-1-5-1-2-2-4-1-5l-1-2c-1 1-1 0-1-3v-3l3 3 3 11z"/></svg>