<svg version="1.0" xmlns="http://www.w3.org/2000/svg" width="365" height="683" viewBox="0 0 274 512"><path d="M91 10c-2 2-2 9 2 15 4 7 10 14 13 16s6 4 11 10l2 3-6-3c-26-10-54-4-67 16-5 7-10 18-12 27l-2 8-4-3-5-5c-2-5-2-16 1-23 1-5 2-6 5-7 4 0 5 0 8 2 4 2 5 1 3-3s-5-5-10-5c-4 0-5 0-8 4-10 11-14 29-9 35l17 9c2 0 3 1 4 3 2 9 5 19 8 23l6 9 2 5-3 2-4 3-5 4-11 11c-2 6 0 22 4 22l1-2c0-3 0-3 5 0l3 3 2-2c2-2 2-2 4 2 2 3 2 4 1 7-1 2-2 2-4 2-2-1-4 0-6 2l-6 4-5 3-2 1c-2-1-7 2-12 6-3 2-3 3-2 4l1 4c-1 2 1 4 4 4l5 1 5-1c3-1 3-1 6 1h4c2-1 4-1 4 1l-5 1c-5 1-5 2-3 10 2 5 2 6 1 11l-3 11v6l5 3 10 7 6 4-6 4-3 1c0 2 5 6 8 8 2 1 2 2 1 5l-1 13-1 10-11 11-5 5c0 2-2 3-3 3-3 0-7 7-7 9v2c-2 0-1 7 2 12 1 3 2 3 4 3l3-1v10c-2 32-2 38 0 42 3 7 10 7 13 0 2-4 2-6 1-14 0-9 0-12 2-17l5-11c8-8 10-13 10-17 0-5 0-5 6-9 5-4 8-9 11-17 2-6 5-12 10-17 3-4 3-4 6-3 3 2 5 1 3 0l-1-4c0-2 0-2 3 1 3 4 3 6-1 7l-3 2 4 3 5 3c2 0 0 27-3 39l-3 15c-1 8-3 19-5 21-2 1-2 4-2 21-1 21-2 26-6 36-2 6-3 9-3 15l-1 12c-3 6-1 13 4 17 4 4 8 4 12-1 2-3 2-4 1-13-1-16 2-25 15-48l7-10c4 0 9-6 7-9-1-1 0-2 2-3 3-3 3-8-1-12-2-2-2-3-2-10 0-10 1-12 13-37 10-20 11-21 13-21 3 0 3 0 2-8-1-3-1-3 3-5 8-5 11-8 10-10-1-3-1-3 2-3 4 0 5-2 6-14l1-10 7-3 10-8 3-3-3-7-3-7 4-4 4-5 5 3 8 5 6 2 12 1c17-2 29-7 29-14 0-2-2-4-4-3-1 0 0-2 3-4 5-6 7-10 7-15 0-4-2-5-7-3-2 1-6 3-10 3l-10 3-4 3v-4l-1-7-2-3c1-1-9-7-14-9l-8-1h-4l1-4c0-3 0-6-2-8l-2-4-1 5v9c1 7-1 5-5-5a317 317 0 0 0-17-36l4-2c2-2 2-2 4 0s4 1 5-3c0-4 0-4 1-1 2 3 3 1 3-5l-3-9c-3-5-10-12-15-15l-4-2 4-5c4-3 5-5 5-7l3-6 4-8v-4l3 2 3 2v-8c0-6 0-7 1-6 3 5 13 8 16 5 2-1 0-3-5-6l-7-6-3-4h6c8-1 14-3 14-5 0-3-2-3-12-3-11 0-12-1-1-6 7-4 8-6 4-7-4-2-7-1-12 3-5 3-9 4-11 2l-1-6c0-4-2-10-5-11s-3 1-3 11c1 10 1 11-3 13l-4 4c-1 3-4 5-7 7-6 2-6 3-8 12l-3 9-4 9c-4 12-6 13-3 2 1-5 3-8 5-10 3-4 4-7 1-5-4 2-5 1-7-11a358 358 0 0 0-5-19c1 0 4-6 3-7l-1-3-9-12-11-12c-3-5-4-5-2 0l1 5 1 3-2-2-24-20c-4-4-4-5-1-7 2-2 2-2 0-2l-3 2zm72 139 1 5h-7l-6-1 4-4 5-5 3 4zm-77 5c2 0 2 0-1 4l-3 4-2 4-3 3v-6l-2-8c0-2 0-2 5-2l6 1zm-26 21c2 3 5 5 10 6l3 1-4 3c-4 4-4 4-8 4-4-1-5-1-7 1l-3 2c-2 0-2-9 0-14 2-6 4-8 4-4l2 2-1-4v-5c1-1 2-1 2 1l2 7zm-32-1-1 1 2-4-1 3z"/></svg>