<svg version="1.0" xmlns="http://www.w3.org/2000/svg" width="564" height="683" viewBox="0 0 423 512"><path d="m206 2-2 8-1 6-1-2-2-5c-2-2-3-2-7-2-6 1-11 3-15 9l-3 4-3-3c-3-2-7-3-14-4l-3-3c-1-3-3-3-3 0 0 2-1 3-3 3-3 0-5 4-5 10l-2 9c-3 6-2 17 1 21 2 2 2 2 1 12l-5 19c-4 14-14 28-19 28-2 0-5 2-7 7l-3 3-5 4c-5 4-9 10-9 13s-3 5-7 4h-4l3-1 4-1h-4c-4 0-12 2-20 6l-5 3-1-2c-5-9-13-9-15 0 0 3 2 7 5 7l-9 2-28 11-5 7-4 5c-3 0-6 6-6 10l3 9c3 4 3 7 4 12 0 10 5 18 14 22l5 3-7 10C7 261 0 279 2 290c0 5 3 13 5 13l-2-3-2-11c0-9 3-20 10-32 8-13 18-25 18-20l3 4 2 3-1 8c-1 8-2 10-6 15-10 14-21 39-21 49 0 6 3 17 6 20 2 2 2 2 1-3-1-9 0-22 2-29s7-15 12-20l4-3-3 8c-7 16-10 37-7 52 4 18 14 30 29 38l10 4c2 0 2 0-1-4-4-4-8-13-10-21-2-7-3-20-2-24 0-3 0-3 3 6 6 26 22 46 39 49h4l-5-4c-9-5-8-6 0-1l8 4 14-1c15 0 20-1 20-3s0-2-2-1l-4 1c-2 0-2-1-2-3l-1-3h-1c0 2-3 4-6 4l-9-3a80 80 0 0 1-35-42l7 3c10 4 21 6 28 6s13-2 7-2c-14 0-32-9-45-21-3-3-4-4-4-8-1-6 1-19 4-28l11-24c2-2 9-5 10-4 1 2 4 5 6 5 4 0 9-3 9-4-1-2 1-4 5-4h1l-2 3c0 2 2 2 8-1s7-6 11-18l4-12 7-2a102 102 0 0 0 15-5l-9 12c-4 4-5 6-5 9 0 5-6 14-16 24l-6 7 2 3 2 2-2 6-3 15c0 7 0 8 2 12l5 8c3 2 3 3 3 12l2 11 11 8c11 7 13 10 11 14s0 9 6 14l5 3-3 5c-3 6-4 12-3 18 0 5 6 9 11 9s12-4 15-9l2-4 11 10a190 190 0 0 0 29 23l-8 16-5-1c-6-3-8-2-13 1-6 6-8 15-4 18 2 2 2 2 1 5l-7 7c-6 5-9 9-10 17 0 8 1 12 6 14 5 3 8 3 12-1l4-3 2-2 4-6 3-5c-1-1 0-3 2-5l3-4 26-41c1-2 2-2 10 1 20 8 35 10 63 10 23-1 32-2 52-9 13-5 37-16 40-19l2-2-3 1c-6 3-17 6-21 6l-9-3c-14-9-28-13-40-13l-8 1-2-6c-4-7-14-16-23-20-5-3-8-3-16-4h-9l4-7 6-10 2-3 11-1c13 0 21-1 32-7 8-3 17-11 20-17 2-5 3-12 1-15-2-2-2-2 4-4 11-5 20-18 25-37l4-13c4-9 21-22 34-27 4-1 4-1-5-1-12 1-24 4-42 12a283 283 0 0 0-82 54 368 368 0 0 1-14-37l-3-8 4-4c4-4 4-4 7-3 4 2 7 7 7 11-1 5 1 4 2-1s0-10-3-14l-3-4 4-5 10-10c11-9 12-11 13-21 1-6 1-6 6-9 3-2 7-2 13-3 17-1 28 1 35 9 5 5 7 8 7 13 0 6-5 12-8 10l-1 1c1 2 4 1 7-1s6-8 6-14c0-10-5-17-15-23l-6-4h4c6-1 15 0 21 3 5 2 9 5 12 9 4 6 4 4 0-3s-13-16-23-21c-9-4-25-4-37 2-5 2-8 2-5-1 5-3 14-5 23-6l9-1-4-1c-5-3-11-4-15-4-3 0-4 0-3-1 1-2-7 0-13 3s-7 4-9 2-2-2-1-4l3-2c6 0 7-12 1-20l-7-7c-4-3-5-3-10-1-2 0-2 0-2-3v-3h8c10 0 17-1 24-5l8-3 4-2c0-2-5-2-10-1-4 2-4 2-4 0l2-7c2-4 2-4 0-4s-5 3-6 7-3 6-4 3c-2-3-2-8-1-9 2-1 3-5 1-5l-4 2-8 3c-10 3-16 6-18 9l-3 2-3-2-5-3c-3 0-12 8-20 17-3 5-5 6-8 7-4 1-4 1-8-2l-5-5-3-3-1-4-1-5c-2-3 1-6 5-9 6-2 5-3-2-3l-6 1-2-4c0-2-1-4-4-4l-4-1c-1 1-7-10-8-14l-2-4 5-4c6-3 7-5 7-14v-7l2 3 1 7c-1 4-1 4 1 3 3-5 1-12-7-23l-7-11c-2-4-2-4-1-9v-6l-2-7-3-6-2-10c1-3-1-3-2 0zm-6 103c3 3 1 5-3 4-4 0-5-4-2-6 2-2 3-1 5 2zm-66 3-2 3c0 2-1 3-2 2l1-3c2-3 4-4 3-2zm28 7 2 3-6 1c-6 1-6 0-1-4 3-4 3-4 5 0zm-41 17v3c-3 4-4 4-4-1 0-2 0-3 2-3l2 1zm-63 19h-4c-2 0-3-4-1-5 1-1 5 3 5 5zm25 4v1l-1-1v-1l1 1zm7 20c-6 7-9 10-11 10h-2l11-20 7-10 2 5 2 5-9 10zm-14-16c0 3-2 4-6 2-2-2-2-2-1-3l4-1c2 0 3 1 3 2zm-5 7c2 1 2 1 0 3-1 2-1 2-4-2-4-7-4-8-1-5l5 4zm91 8-2 3-2 3-3 1 2-4 3-7c1-2 1-2 3-1 1 2 1 3-1 5zm-52 9-5 1h-4l3-3c2-3 2-3 4-1 2 1 2 2 2 3zm62 5c3 1 3 2 3 4-2 8-5 9-14 7-4-1-5-2-2-7l4-4h9zm70 14 13 6 4 1-6 6-7 5c-2-1-14-18-14-21v-2l10 5zm-96 6c7 2 7 3 2 4h-11l4-6 5 2zm31 77c3 4 12 10 24 17 6 3 8 4 13 11a163 163 0 0 0 18 22l-29 19-8 4-5-6c-6-7-9-12-13-23l-7-26 10 2c4 2 12 3 13 1l-3-2c-5-3-12-10-16-17-3-6-4-7-2-7l5 5zm-94 77 6 9c2 2 2 2-1 0l-11-15 6 6zm174-1-13 19-3 6-4-1-5-1-19-13a412 412 0 0 1 41-11l7-3-4 4z"/><path d="M298 67c-6 4-10 7-13 14-2 2-4 4-6 4-6 2-14 12-11 15 1 2 8 4 14 4 4 1 6 1 8 3 4 4 6 5 13 5h5l-4-2c-3-2-8-6-8-8l4-3 3-3 5 3c4 3 15 8 16 7l-1-4c-3-5-3-11-2-18 2-7 2-7 0-7s-9 4-13 9c-3 3-7 4-10 2-1-1-1-1 1-4l1-8c0-5 1-6 3-9l2-4-7 4zm-21 2-3 3c-3 1-8 6-8 9 0 2 7 1 10-2l2-3 2-1c2 0 3-1 0-5-1-3-3-4-3-1z"/></svg>