<svg version="1.0" xmlns="http://www.w3.org/2000/svg" width="547" height="683" viewBox="0 0 410 512"><path d="m299 26-9 4-6 3-4 4-3 2-3 2-3 1c-2-1-1-8 0-11 3-4 1-4-4 1l-6 4-5 8c-2 6 0 11 4 15 3 2 3 3 1 3-3 0-8-2-8-3l-2-3c-1-2-2-3-1-6s1-4-1-7c-3-4-5-5-11-4-4 1-8 5-8 9l-1 3a692 692 0 0 1 21 18c1 3 5 6 8 7l2 5-1 5c-5-2-5-2-2 1l3 4h-4c-4 0-4 0-2 2 1 1 1 1-3 5-4 3-5 5-5 7 0 3 0 3-4 2l-8-2-11-3c-6-2-13-8-13-11l-5-15-9 9-4 4v-4l1-5c-1 0-8 7-8 9-1 2-6 5-8 5-2-1-2-1 1-2 4-2 5-4 2-7-2-2-4-1-15 3l-6 2-4-2c-4-2-5-2-10 0-7 1-9 3-9 7 0 2-1 2-11 5l-16 5a485 485 0 0 0-72 24c-5 2-14 9-14 10l11 1c10-1 13-1 28-6a8241 8241 0 0 0 57-20c2-5 19-9 26-7 3 1 4 1 8-1s4-2 6-1c3 3 7 3 9 1h5l9 7c4 6 10 10 13 10l8-1c6-1 9-1 24 3 8 2 12 4 14 6l-3 1c-3 1-4 1-8 8l-6 8a231 231 0 0 0-9 2l8 3 8 4-2 7c-1 5-3 8-7 14l-9 13c-2 4-4 6-5 6-2 1-3 2-5 8v8l-1 5c-2 7-3 23-2 30 2 9 7 24 12 33l1 4 2 4 2 4 3 3 1 3c-1 1-1 5 1 6 1 1 1 3-2 3l-4 2c-3 2-3 3-3 6 1 4 1 5 4 6 6 2 10 0 11-7l1-5c1 0 10 18 11 24l2 14c1 14 4 22 14 39l24 42-3 3c-5 3-5 5 0 9 3 3 5 4 7 2 1-1 1-1 1 1l2 4 2 8 1 6 4 9c2 8 6 14 10 20 3 4 3 4 9 4s9-2 10-7c1-3-3-16-7-21l-2-5-2-2-1-3-3-6-4-7-2-5v-3c1-1 1-2-3-5-4-4-5-6-9-16l-11-36a483 483 0 0 0-13-51c2 2 6 1 9-2 3-2 4-6 5-12 1-14 3-15 23-17 19-1 21-3 25-15 2-7 2-10-3-20l-4-10-2-5c-3-3-11-15-12-19-1-5-9-15-13-15l-4-1-4-1-6-2c-2-1-3-2-3-5 0-5-2-12-4-12l-2-3c-1-3 0-4 6-10l8-7 1 7c-1 6-1 6 1 4l4-8 2-6v12l1 13 8 3c7 2 8 2 14 1 7-2 9-2 8 1s1 5 6 5c4 0 5 0 7 3l3 5c3 0 6 4 5 4l2 3c2 2 2 2 3 0h3c2 1 4 0 2-2v-8l2 3c2 3 4 4 4 2l-1-5c-2-2-3-4-9-6-5-2-9-6-11-8l-4-3-4-3c-3-2-4-4-4-7l-4-7-3-3 11-3c14-3 18-5 26-11s17-18 17-25l2-5v-14c1-6 1-8-1-16-1-6-2-7-2-5v3l-3-3-4-3-4 3-5 3 1 2v2c-3 1-3 6 0 6s8 2 10 4c3 3 4 9 2 12v6c1 3 1 4-1 8-3 8-11 18-20 23l-4 2 3-5c3-4 3-6 4-14v-11l-2-7-3-11-3-7c0-1 0-2-1-1h-4c-3 1-6 4-8 8v5l1 2 2 1c3 0 9 3 11 6 2 2 2 3 2 6-1 2-1 3 1 4v7c0 8-2 11-7 16-5 4-10 6-16 6-5 0-14-2-14-3l2-3c2-2 2-2 1-5-3-9-2-16 3-27 4-7 4-9 3-9-2 0-2-1-2-3 0-3 0-3 2-2 2 2 3 2 2 0h2c3 1 3 1 2-2-1-2-1-2 1-2s4-2 4-3l-2-1-3-1-1-14a44 44 0 0 0-3-21c0-2 2-1 4 2l2 3c1 0 1-6-1-13 0-2 0-2 1-1l2 4c0 2 0 3 1 2 2-1 0-10-4-15l-4-4c-2-2-11-4-17-3-3 1-3 1-3-2l3-4c2-3 10-3 15 0 4 3 4 1 0-4l-3-3c3-1-4-3-10-3h-7l4-2 3-3-10 2zm-13 11-2 1 1-3c2-2 2-1 1 2zm-27 10c-1 1-1 0-1-1s0-2 1-1v2zm21 3c1 2 0 3-3 1v-2c2-2 3-2 3 1zm36 118v1l-3-1h3zm-58 83c3 4 9 8 22 16v3c-3 4 1 10 6 8l-1 1-3 1c-1-1-11 0-13 1-5 5-6 6-6 11l2 5c1 2 0 7-2 15l-1 4-1-4-3-25-1-12-1-11-2-9-4-8-3-5 4 2 7 7zm35 23-3 2h-1l4-2z"/></svg>