<svg version="1.0" xmlns="http://www.w3.org/2000/svg" width="529" height="683" viewBox="0 0 397 512"><path d="M163 14c-9 11-11 15-14 22-1 5-3 8-3 7 0-3-1-2-4 2-3 6-3 7 1 15 2 7 2 7 1 16l-3 13c-3 6-2 7 2 9l4 3 1 4c0 1-2 0-5-3l-9-6c-3-2-3-2-2 0l3 3 1 3 2 5c3 4 2 6-1 7s-3 1-3-1v-3l-2 3-4 2c-2 1-2 0-4-2 0-2-2-3-2-3-3 0-4 9-2 9 2 1 2 8 0 18 0 4 0 6 2 11 2 6 2 6-2 9l-3 6-5 5-6 5c-4 4-4 4-6 3-3-2-4-1-1 2 2 1 2 2 1 3l-1 2-4 7-3 5-3 3c-2 0-5 3-7 5l-7 4-7 4-5 4-13 12-2 11v8h-5l-8 1h2c4 0 4 0-3 3-4 3-9 6-12 10-5 5-6 6-4 2l1-3c-1-1-4 5-5 9 0 5-5 16-6 16l-2-2-3-1H0v21l3 2 10 7c6 4 7 4 12 4 5-1 5-1 5-3l4-4v3l1 3c5 0 11 8 18 23l5 6c1 1 1 1-1 4a329 329 0 0 1-26 39c-3 6-10 16-17 24-10 10-13 17-8 22s17 3 31-4c8-5 8-5 10-10l3-6 3 1c4 3 7 1 11-8l5-8-2 4-2 9-2 10-1 5c1 2-3 10-9 19-3 4-4 7-4 11-1 7 0 8 9 8s14-2 23-9l6-6v-7c1-8 3-14 4-14l2 4c0 2 1 3 4 5h6c2-1 2-1 3-10l1-18c1-9 0-15-4-19l-2-6-1-4c-1-1 0-6 3-13l2-5 1-1 13 2c12 1 24 0 29-2l11-9 8-7c0 2 1 1 4-2l6-4c2 0 2 0 1-5 0-4 0-6 2-9l2-4 1 7c1 7 5 19 8 23 3 3 2 4-2 10-2 4-4 6-6 7-4 1-4 1-3 4 2 2 2 5 1 11v7l4-5 8-7c3 0 3 0 2-4-1-2-1-3 1-6l3-4c1-1 14 14 19 21l3 3-2 6-4 12c-1 6-2 8-4 9-6 3-6 3-2 8 4 4 4 5 5 12 1 12 1 12 6 2 3-8 4-11 7-12l3-3-2-4c-3-3-3-3-2-12 2-10 2-9 8 1 4 9 4 10 3 11l-3 5-5 7-4 4 6 3 5 3-2 4c-2 2-3 4-2 5l16 8 5 2-4 5c-3 2-5 5-5 6s6 3 22 4c17 2 24 4 27 5 1 1 2 3 2 9v7l3-3c4-2 5-3 8-1 3 3 5 2 6-1 1-4 3-5 7-2l4 2 12-12 11-11-6 2-11 3h-7v-4c0-5-1-5-4-1-2 3-3 4-5 2s-2-2 2-6c5-6 5-8 1-7-8 2-11 2-17 1-13-4-13-3-1-8 7-4 10-5 10-4h1l7-7 7-6-6-1c-5-1-5 0-3-8 0-3 0-5-2-7-2-3-2-6-3-15l-1-11 7-9 8-8c2 0 3 9 1 13a59 59 0 0 0 7 20 208 208 0 0 0 1-21l-1-12c-1-7-1-8 1-11l3-3 3 4c3 5 4 5 4 1l1-8v-8c-1-2-1-3 1-8 2-4 2-6 2-11-1-11-4-22-9-32l-5-14c-1-7-3-9-7-14-3-3-4-4-3-6 0-3-2-7-7-14l-8-9-4-5c-1 0-2-2-2-5l-3-7c-2-2-7-10-8-14l-2-8v-7a52 52 0 0 0-1-29l3 3 3 2 5 6a510 510 0 0 0 32 44c5 7 11 12 18 13l6 2-3 7c-2 5-2 8-3 17 0 11 0 12 2 14 3 4 14 8 21 8 2 0 3 1 6 4l2 5c0 1 7 8 10 9l3 3v3l1-3 3-2 1-59v-60l-8-2-9-3h9l8 1v-8l-9-1c-8-1-27-5-31-7-2-1-1-1 3-2 11-2 17-7 22-15 2-5 3-9 1-5-4 7-13 12-22 12l-17-2c-10-2-26-7-26-9 0-1-8-6-10-6-4-1-14-8-24-17l-11-9c-1 0-9-11-9-13s3-6 7-10c8-9 11-14 11-19 0-3-2-5-11-9-5-2-6-3-6-5 1-1 1-2-2-1-2 0-3-2-9-8l-9-14c-2-4-3-7-6-8l-6-5c-2-2-2-2-3-1 0 2-1 2-4-1-11-7-31-13-45-13h-8l-10 14zm-10 100c4 3 5 4 3 6l-2 5-1 4c-1 1-1 1 0 0 2 0 4 4 2 7v15l-1 3-4-3-7-2c-5 0-5-4 0-15 4-8 5-10 5-16l1-6 4 2zm24 10-6 8-1-2-2-3v-2c1-2 9-3 9-1zm-10 20c-1 3-3 4-3 1-1-2 0-3 1-4 3-2 4-1 2 3zm-7 12-2 1 3-3-1 2zm-8 11-4 3 1-3 2-7 3-5v4c1 4 1 4-2 8zm134 8c2 6 2 15 1 18l-1 1c-2-4-3-14-3-21 0-8 1-8 3 2zm-164-4c5 2 9 7 8 8l-18 2-5-1 3-3 4-6 2-3 6 3zm-15 11c1 1 11 4 15 4s4 1 3 4c-2 4-3 4-14 4h-11v-4l2-6c3-3 3-3 5-2zm92 2c1 2 4 6 8 8l6 4-7 1c-6 1-13 3-16 5-1 1-2 0-3-5 0-6 2-11 6-13 2 0 3-1 3-2 0-2 1-1 3 2zm-11 23c0 1-7-3-8-5l2-4 2-3 3 5 1 7zm197-9-8 1c-13-2-13-3-2-3 10 0 11 0 10 2zm-275 4v1l-9 3c-6 3-8 3-8 2v-2l1-3c-1-1-1-2 1-2 4-1 14 0 15 1zm221 3c6 6 17 12 27 15 7 1 8 3 6 6l-6 1c-10-2-19-6-25-14-4-4-9-12-7-12l5 4zm-241 1c0 3-1 5-4 8s-4 3-4 2c0-3 1-7 4-10 3-4 3-4 4 0zm7 13-2 1h-1l3-1zm-7 3-2 1v-1h2zm281 17c-2 6-3 18-3 23l1 5-3-2c-5-3-8-6-8-9l5-11c3-6 5-8 6-8 2 0 2 0 2 2zM91 253v4l-5-3c-9-4-9-6-1-6h5l1 5zm-42 0-6 1h-7l10-3c2 0 3 0 3 2zm4 19-2 2H38c-5 1-7 0-2-1 6-3 14-3 17-1zm109 18c0 1-7 5-11 5l-3-1 4-5 3-5 4 2 3 4zm-91 4c10 6 13 7 14 3l2-3c2 0 2 0 1 3 0 2-18 30-19 30-2 0-6-4-8-7-1-4-2-13 0-14 1-1 0-2-1-4-4-3-8-13-5-15 1-1 7 2 16 7zm-32-3 2 3c0 1-1 1-3-1-3-4-3-6 1-2zm-32 5c4 2 7 5 6 6-1 0-7-3-10-6-2-3-1-3 4 0zm126 16c-1 4-2 4-6 6l-5 1v-1c0-2 10-10 11-10v4zm-13 34-4 3c-4 2-8 2-8 1l4-7 3-7 3 4 2 6zm-43 19-1 7c0 4-1 7-2 6-3-1-2-12 3-19 1-2 1-2 2-1l-2 7zm226 40c-1 11-2 12-6 7l-3-3 3-5 5-8 1 9z"/><path d="M24 253v1l1-1h-1z"/></svg>