<svg version="1.0" xmlns="http://www.w3.org/2000/svg" width="528" height="683" viewBox="0 0 396 512"><path d="m275 22-3 4c-1 2-2 2-6 2h-7v5l5 4c3 1 3 2 2 7 0 5 0 6 2 7 2 2 2 2 4 0l4-4c2-3 2-4 7-3l7-1v-4l-5-5c-3-1-3-2-2-5 0-5-1-10-3-10l-5 3zm-115 4-2 7c-1 4-3 5-8 5-3 0-12 4-14 6l-3 2-4 3-6 5c-2 1-3 4-4 6-1 3-2 6-4 7l-2 7-2 9c-1 3-1 6 1 11 0 2 0 2-2 1-3-1-7 0-9 4l-4 6c-3 3-4 3-7 3-5-1-5 0 1 4l11 4c7 1 7 1 6 4 0 2-1 4-4 5-4 4-3 5 2 5 3 0 4 1 6 3 2 3 6 6 7 5l-2-3c-2-2-3-5 0-5h3c0 3 6 13 11 18l5 7c-1 1-4 4-8 5l-7 4-2-2c-2-2-2-2-1-3 2-3-1-3-3 0h-2v-1c-1 0-3 2-3 5 0 2 5 8 8 8 2 0 2 1 2 3 0 3 2 5 6 5 6 0 3 6-10 18-6 6-8 8-7 9h4c4-2 8-1 5 2-3 2-12 5-13 4-3-2-8-1-12 2l-6 3-4 2c-2 3-3 3-14 0-5-2-7 0-4 3l2 2-3 3c-3 3-4 5-3 5 1 1 3 0 8-3 2-1 2-1-1 2-4 5-4 8 0 9 2 0 3 0 5-3l3-3-1 5 1 4c1 0 3-1 3-3l1-2 5 3c6 3 10 4 13 1l5-1c4 0 9-4 11-7 0-2 2-4 4-5l3-1-3 7c-2 5-4 7-8 11-7 5-17 11-27 15s-11 4-17-1c-8-5-10-6-13-5l-2 2-4 1-6 1c-1 1-2 1-5-3-5-5-9-6-16-8l-11-5-7-3c-1 1 2 7 6 12l13 14c11 10 18 14 30 17l19 3 19 4 8 1-1 3v7c0 5 0 6 3 8 4 4 11 7 14 7 1 0 2 1 2 4l1 5-46 18c-21 7-20 6-16 8l11 2 15 3c5 2 7 2 13 2 7-1 7-1 6 2l2 4c2 3 2 3 1 5-1 3 0 6 2 10l2 5c0 2 1 2 3 2l13-2c7 0 10-1 11-2s3-2 7-1c5 1 8 0 11-2l3-2v4c1 6 4 11 8 13 4 1 7 6 9 12 2 5 4 5 5 0s2-6 4-2l6 10c4 6 5 8 5 11l1 6c1 3 1 3-1 3s-6 3-6 4l8 6c9 5 11 8 11 14l1 5c2 2 10 5 13 5l2 2c0 3 2 6 5 6 3 1 9 7 14 14l7 7c5 3 13 1 16-4 2-2 2-2 0-6 0-3-4-8-8-11l-6-9c2-5 2-7-1-10-2-3-2-3-1-8 2-7 1-11-1-13l-5-4c-3-3-3-3-4-12 0-11-1-12-6-8l-3 3-2-3-4-3-8-11a608 608 0 0 0-15-30l17 10 14 9 6 4-3 3c-2 3-4 7-2 8l8 3c9 2 12 5 12 9 0 3 4 6 10 6 5 0 7 1 7 6 0 3 2 5 7 5s5 1 9 12c3 8 6 12 9 11 4-1 7-2 9-6 3-4 2-8-1-15l-3-8-2-6-1-7c0-3-3-6-6-6s-4-2-2-8c1-2 2-5 1-6 0-3-3-6-4-6l-4-3-4-3c-2 0-4-6-3-10s-2-4-5 0l-3 3-3-3c-3-4-8-7-10-7l-8-5-5-4 5-2 6-2 2 1c0 3 3 8 5 11 3 2 8 3 10 1l1-4c0-3-4-7-10-10l-4-1 2-3c3-4 6-12 6-16-1-3 0-4 3-7 4-4 6-8 5-13v-3h7l8-1 3 4c2 4 6 5 8 3s0-5-4-7c-3-1-4-2-3-4l2-5 1-4 7-2h9c1-1 2 0 4 2 3 5 7 7 9 7 3-1 4-3 3-6l-12-6c-1 0-2-1-1-2 1-7-3-11-32-36a3266 3266 0 0 0-54-47l-14-22c-2-2-2-2 1-4l2-2v2c0 3 17 20 26 27l34 17c21 8 35 16 42 23 17 15 26 37 26 61 0 10-1 21-3 25-1 5 8-1 13-8l8-6c5-2 10-7 12-11l4 2c4 2 5 2 7 0l4-6c2-4 3-6 3-13a128 128 0 0 0-54-91c-12-7-34-15-55-19-14-2-26-6-35-10-8-4-8-4-7-6l2-3 3 2c3 3 7 5 8 4l-1-4c-1-3-1-3 3-3 2-1 4-1 5 1 3 2 11 4 11 2l-3-3-2-4s-1-2-3-2l-6-5-3-4 3-2c2-2 3-3 7-2h10l10 4 9 4 10 1c7 1 13 1 17-2 4-2 9-10 6-10l-1 1c0 3-5 6-8 6h-3l2-4 2-5 1-2 3-3c3-2 4-7 1-10-1-1-1-1-1 2l-2 5c-2 2-2 2-3 1s-2-3-4-3l-3-1 1 3c0 5-8 3-15-4l-5-5 5-2c5-2 10-7 10-10l-2 1c-3 4-4 4-3-1 0-5-1-8-5-10-3-2-3-3-3-7 0-8-6-16-18-25l-21-10c-4-1-8-3-12-7-10-8-21-13-30-14-6 0-8 0-15 3l-8 4-1-4-3-5-3 5-3 5-3-2c-3-2-8-8-10-12l-2-3-2 4zm60 12c6 2 18 9 16 9l-8-3c-9-3-17-5-23-5-5 0-5-1-3-2 2-2 11-1 18 1zm0 24c9 3 17 18 17 34l2 7c2 4 1 5-1 8s-4 4-7 4l-10 6-10 6-4 2h-2l3-6 4-5c2 0 2 0 1 3-3 4-1 4 3-1l5-3c2 0 1-3 0-4l-2-4-1-4c-1-2-1-2 1-2s1-1-1-5l-3-4 5 1c5 0 5-1 1-4-5-4-9-11-9-14 1-1 0-3-2-5l-6-12 16 2zm66 17v15c-1 2-1 1-1-4l-2-11v-4l3 4zm-34 10h-1l-1-3 1 1 1 2zm42 10c-1 3-7 9-7 8-1-1 0-3 1-6l2-7 1-2 2 2 1 5zm-52 4c1 0 1 1 0 0l-1-1c0-2 1-1 1 1zm22 2c-1 1-2-1-1-3h1v3zm-52 2h-1l1-2v2zm50 9-4 5c-2-1 1-5 2-5h2zm-68 6c-2 3-4 4-4 1 0-2 4-7 5-5l-1 4zm72 2 3 4 2 4-4 2-6 1h-2l-3-3-2-3 4-2c6-4 8-5 8-3zm-125 1c1 1 2 2 1 3 0 3-1 3-4-1-1-3 0-4 3-2zm160 6 4 1-2 1-6 2c-4 1-8-1-11-7l-1-4 6 3 10 4zm-150 6-3-1v-1c2-1 4 0 3 2zm8 1-1 5-1 2c0 1-3 5-12 12l-2 2v-3c1-3 0-9-2-14-1-2-1-2 4-1 6 1 10 0 12-4 3-3 3-3 2 1zm49 25c0 3-2 7-4 7-1 0-1-9 1-11 1-2 3 1 3 4zm-82 11c2 1 2 1-1 1l-4-1h5zm168 17c8 0 10 1 11 2l10 7 8 5-9-1-13-2c-3 1-4 1-7-2l-10-6c-6-3-7-4-4-3h14zm-10 18c8 0 10 1 13 3a145 145 0 0 0 13 9l-19-2c-4 0-5 0-6-2l-7-6-5-4 11 2zm-4 185c0 2 0 2-2 0l-2-4h2l2 4zm9 18v2l-1-1v-2l1 2zm-15 14v1l-3-2c0-1 2-1 3 1zm-34 17v2l-1-2v-3l1 3zm-25 16h-1l-3-1c0-1 1-1 4 1z"/></svg>