<svg version="1.0" xmlns="http://www.w3.org/2000/svg" width="523" height="683" viewBox="0 0 392 512"><path d="M190 6c-1 4-2 4-5 4l-6-3c-2-3-2-3-2 0 0 4-2 6-4 5l-2 1-2 3c-3 2-3 2-3 0s-3-10-5-11l-1 4c1 3 1 5-1 7-3 5-6 8-11 9-6 3-8 5-9 12-1 6-1 7 2 9l4 3c1 1-1 3-6 9-9 9-10 12-5 17l3 4-8 1-7 2-6-6c-7-7-14-13-17-14l-5 1h-4l-5 3c-5 5-13 6-17 4-1-1-3-2-4-1l-4-1c-3-2-25-3-25-1s5 5 9 5c4 1 4 2 0 5-4 4-7 5-10 4l-6 1c-3 1-2 2 2 3l3 1h-3l-5 2c-2 2-2 2 5 2h5l-3 2c-4 3-5 5-5 8l3-2 4-2-1 3c0 4 1 4 5 0 5-6 11-10 15-12h6l5 2c4 0 8 4 8 9 0 3 0 4 2 5l3 4c2 5 5 5 19 5h39l4 1-4 1-6 4c-6 6-14 9-24 11-16 2-24 5-30 11-10 9-10 22-2 33l9 14c3 6 11 14 18 19 5 3 12 10 13 12l-5 3c-2 1-7 4-9 7l-5 5H76l-22 1c-4 2-5 2-6 0l-5-1c-4 0-8-2-16-10-4-3-5-4-8-4-4 1-4 1-4 3h-1c-1 0-5 6-5 9 0 8 3 10 18 10l13 1c3 2 6 2 7 1s3 0 6 1l10 3c4 0 5 1 5 2l3 4c2 3 3 3 7 2l8-3 6-2 3-1c2-2 1 0-2 7-2 6-3 8-6 8-4 2-5 3-5 7l2 6c2 2 3 4 3 9 1 6 1 6-2 8s-4 4-4 8l2 8c2 3 6 5 9 5 1-1 6 13 7 19l-1 10-1 6-6 2c-9 1-11 3-13 12-1 6 2 7 12 3 5-1 7-4 8-11 1-4 2-5 4-6 4-2 18-12 24-18 5-5 6-5 9-4l4 1c2-1 4 0 6 2l4 3c3 1 4 4 4 15v8l-12 12-13 12c-4 2-11 9-11 11s3 6 6 7h5c3 0 3-1 5-8l3-10c3-3 8-5 12-5s4 2 4 18l-1 17-5 33-3 16-3 13-2 5-1 5-2 8c0 4 0 5 2 7 3 3 8 2 14-1 6-2 8-5 8-9l1-8c1-6 1-6 4-6 2 0 3-1 4-3 2-3 1-14-2-20-4-7-3-15 4-35l3-9 5-12 5-14 1-4c0-4 1-5 6-5 8 0 10 3 6 9-2 3-4 13-3 15l4 3c3 1 9-1 10-5l3-2-2-4c-3-3-6-10-5-12l2-4c2-2 2-2 4-1l2 3 3 5c3 3 4 3 7 2 3 0 4-2 5-10 0-7 0-9-4-15-2-2-3-5-3-7 0-3 0-3 2-3 3 0 4-3 3-10-1-3 0-5 1-9l3-7v-4h10l12-1c4-2 6-9 6-20 1-9 1-9 3-8l2 1 15 53c2 9 1 11-7 16-7 5-8 8-3 13 2 2 3 2 6 2l5-2 3-15 1-3 1-1c0-2 5-6 12-11a655 655 0 0 0 37-23l-3 7c-3 6-3 8 0 12 4 4 10 2 10-3l-1-8c-2-5-2-6 0-9l1-4-5-7-8-11-16-22c-2-3-2-3-1-5 2-1 3-1 4 1 4 6 20 12 22 8 1-4-10-12-17-12l-6-1c-8-5-18-13-25-20-5-5-12-12-16-14-7-6-8-7-3-5 4 2 13 1 17-1 3-2 5-2 8 0h2l3-2 7 2c9 1 18 0 25-3 7-4 10-8 4-6-4 1-7 1-13-1l-5-1 4-4c5-4 8-9 10-16 1-5 0-6-2-2-3 3-9 6-17 7-9 2-13 4-17 10-2 2-4 5-5 4l-1 2c0 3 0 3-10 1l-9 1c-4 2-4 2-7 0-5-4-12-6-16-4h-3c-1-1 4-3 9-3 4 0 8-2 8-4 0-3-6-3-8 0-3 2-5 2-5 0-2-3-7-10-11-12-3-3-4-3-4-9-1-9-2-11-6-11l-3-1c0-2 2-7 5-11l2-3 7 5c6 4 13 7 18 7 2 0 3 2 4 6 3 10 11 19 22 25 4 2 5 1 2-3-4-5-6-10-7-15l1-5c16 7 13 7 37 7l27-1c8-2 14-7 13-12 0-2-1-2-1 1-1 5-7 8-17 8h-5l4-2c8-4 14-13 14-21 0-2 1-4 4-6l5-3 7 3c7 4 13 10 13 13l1 2c1-1 0-6-2-11l-7-8-5-6h8c6 0 6 0 9 3 3 4 4 2 1-3-3-3-9-7-14-7l-5-1c-2-1 0-1 4-1l9 1-1-1c-4-2-11-2-21 1-6 2-10 3-17 3-9 0-32 5-40 10-5 2-6 2-10 1-5-1-6-1-7-5l-5-5-2-1 2-2c3-2 5-9 4-12-2-5-11-13-21-18l-9-5 3-5 4-6c7-3 9-9 7-15-2-3-9-8-18-11-7-3-14-8-12-10l4 1c5 4 11 5 13 4l2-4c2-4 2-4 0-6s-3-2-4-1c-5 1-13 2-14 1l-2-4c-1-3-2-5-6-7l-7-6c-2-4-1-9 1-12l3-3-8 3c-4 3-7 3-10 1l-1-5v-4l-3 2h-5c-4-1-4-2-4-6l-1-4-1 4zm-4 10c-2 3-5 4-5 1 0-2 1-3 4-3 2 0 2 0 1 2zm9 0c3 0 2 4 0 4l-2-1-1-2c0-2 1-2 3-1zm-17 1c1 1-1 2-5 3l-6 2c0-1 5-4 6-3l2-1c0-2 3-3 3-1zm26 6c-1 0-4-1-3-2h2l1 2zm-60 68h-1l-1-1 1-1 1 2zm85 7 3 5c3 4 8 7 13 7 3 0 5 1 9 5 5 6 7 11 7 18v4l-9-7c-7-5-10-8-14-14-4-7-10-13-15-16v-2c2-2 4-2 6 0zm-18 6 1 8a155 155 0 0 0 3 23l-3-1c-4-2-22-21-20-21l5-4c4-4 10-6 12-5h2zm-18 5c-1 2-3 3-3 1s1-3 3-3v2zm33 30c2 2 1 2-2 0-2-1-3-3-4-6-3-6-2-6 1-1l5 7zm-124-5-4 3-8 7-9 8c-3 2-4 4-5 8-1 5-3 4-4-4 0-6 1-9 6-13 5-5 15-9 20-9h4zm88 0c1 1-1 6-2 6l-1-3c0-3 2-4 3-3zm-62 7-2 16-1 19-1 5h-5c-5-1-5 0-6 2v3l-2-3c-3-4-3-10 0-23l3-11 6-5c7-6 9-6 8-3zm80-2-2 1c0 1-1 1 0 0l2-1zm119 3-17 6c-3-1 8-6 15-6h2zm-114 5 3 11 2 10c0 3 0 3-8 3-10 1-18 3-25 7-5 2-5 2-6 0l-4-4c-6-6-7-8-6-9 0-3 2-3 2 0s3 6 7 8c5 3 9 2 13-1l10-5c8-4 10-9 7-17-2-5-2-6 0-6 3-1 3-1 5 3zm32 10 2 4c0 2-11-2-14-5v-8l5 3 7 6zm102 3c-1 1-1 1-2-1v-3c2-1 2 1 2 4zm-9 3c0 5-3 8-10 12-7 3-9 3-17 0-5-2-6-4-1-4s17-5 22-9l5-3 1 4zm-36 12 5 4c-1 1-19-5-19-7h5l9 3zm-202 24c1 3 1 3-4-2l-5-6c0-2 8 5 9 8zm18 11-7-4 3 1 4 3zm1 4-1 1-1-1v-1l2 1zm138 2 1 2c0 2-1 1-5-1l-5-3c0-1 6 0 9 2zm24 2c2 2-2 4-7 4s-7-2-4-4c2-2 10-1 11 0zm-181 24-2 2c-1 2-2 2-2 1l-5-1h-4l6-2 6-1 1 1zm88 68-3 8c-1 4-2 4-4 3-3-2-3-5-1-12 1-4 1-4 5-3 3 1 3 2 3 4z"/></svg>