<svg version="1.0" xmlns="http://www.w3.org/2000/svg" width="425" height="683" viewBox="0 0 319 512"><path d="M147 4c-4 4-6 7-4 9 1 1 0 2-5 4-14 6-25 16-30 27l-1 4v3l2 4c3 2 3 2 1 8-2 11-1 15 7 19 6 3 6 3 5 7 0 4-4 8-8 9s-2 2 2 2c5-1 5 0 1 5-1 2-2 3-1 4l1 6c1 4 0 7-2 13l-4 8c-1 2-1 2 2 2h4l-4 4-4 6c0 1-1 2-6 3s-6 2-7 5c-1 4-3 6-6 5l-6 3-3 4c0 2 5 6 7 6s2 7 0 10c-3 5-3 16 0 21 3 7 3 15-1 23-2 4-4 6-5 6-3 0-6 3-6 5-1 3-1 3-4 1h-6c-6 2-3 11 4 12 2 1 2 1 1 2l-1 5 1 3-6 1h-8l-3 1v-6c-1-20-27-28-38-11-7 9-4 22 5 28l4 3-6 5c-9 7-19 20-19 22s3 3 10 6c22 7 44 10 63 9 16-1 26-4 34-8l7-3v5l4 20c6 31 7 37 7 47l-2 10c-2 1-10-1-16-5-11-6-18-17-18-27-1-3-1-5-2-4v21l-1-1-2-4-1-2c-2 1-2 11 0 15 1 4 8 9 14 11l16 1h11v5c0 6 3 16 10 37 8 23 8 23 7 26 0 2 0 3 2 4l2 8 3 11 4 8c1 9 2 10 8 14l8 3c3-1 6-4 7-9 1-4 1-4-1-7l-3-7-4-7c-3-2-8-16-9-25l-1-35-1-27h3l5-1 5-2 9-3 8-3 1 11 1 41c1 33 0 37-6 45l-2 5-1 5c-2 5-1 12 2 15 4 2 7 3 11 0 7-4 7-4 9-16l3-18 2-8v-4l4-14c6-23 8-30 8-36v-6l4 3 7 4c16 5 32-12 25-28-6-14-25-17-35-5l-3 3-1-6-1-6 3-4 8-7c3-3 4-5 4-7 0-3 1-4 3-5 2-2 2-2 3 1l5 13 3 11 5-3c5-4 15-9 30-15l22-10c9-4 10-5 13-11 8-17 8-43 0-62-7-13-24-33-46-50-13-11-25-23-25-26 0-2-2-5-6-8-7-7-9-11-11-20l-2-8h4c4 0 7-2 6-4 0-1-3-2-7-2l-8-1-3-1 3-3c4-4 4-9 0-14l-6-3c-2 0-2 0 0-4l4-8 3-7c2-1 5-6 7-11l5-8v15c2-2 5-9 5-15 0-8-2-14-9-23l-5-7 2-3 3-5 1-3c2-1 0-8-3-13-8-12-28-22-53-26-6-1-8-2-8-3V7l-11-7c-2 0-3 1-6 4zm1 120v3l-2-2c-1-2 0-3 2-1zm56 7c-2 4-3 4-6 3l-3-1 3-1 5-3c2-3 3-2 1 2zm-75 8c-2 2-2 2-6 1l-3-2h3l6-1h2l-2 2zm84 0c2 3 2 4 0 6-2 3-4 2-7-1l-3-2 2-3c4-3 6-3 8 0zm-43 162 4 24 7 46 2 7-3 2c-1 2-3 2-5 2l-6 2c-3 2-4 3-6 2l-4 1c-3 2-3 2-4-1l3-45 3-31v-12h5c3 0 4 0 4 3zm57 21c1 10 1 11-1 17l-3 8-3 6-4 6-3 1v-4l3-22c3-18 3-18 6-20l3-2 2 10z"/></svg>