<svg version="1.0" xmlns="http://www.w3.org/2000/svg" width="529" height="683" viewBox="0 0 397 512"><path d="m142 17-2 21v20l-5-1c-3 0-5 0-8 2-5 3-32 35-37 45l-7 7a199 199 0 0 0-39 29l-4 3-3 4-4 3-3 3-4 2v4c1 2 0 4-4 13-15 30-17 54-10 86a109 109 0 0 0 42 64l2-3c0-2 1-3 3-3s3 0 4-8l3-19c0-10 0-10 4-14 2-1 3-4 3-5l2 1h7c4 2 13 3 19 2 9-2 11-3 10-7-1-3-1-4 2-4s3 1 3 4l-2 6v3c3 2 4 5 3 9-5 17-8 58-5 74a188 188 0 0 0 67 93c1 2 15 9 21 11l6 2c2 0 2-1 2-12l-1-11 5 4 5 5c1 0 6 8 6 10l-3 2-4 2 5 2c5 2 6 3 7 5l6 6 4 5 1 3 4 9c3 7 7 13 10 13s8-3 8-5v-14l-8-15-10-17-4-11c-4-6-6-15-8-36-2-24-3-29-11-44l-8-18c-1-6-2-28-1-34 0-3 0-3 7 3 14 13 28 20 45 21 10 0 17-1 16-2 0-1 4-2 18-3 21-1 41-8 58-21l10-6c2 0 14-12 18-18 3-6 3-8 0-7l-6-2c-10-6-21-7-30-5l-7 1c-7-2-17 0-25 6-2 2-5 3-7 3-3 0-7 2-7 6l-8 15c-2 0-25-10-27-12-1-1-1-1 2-1 4 1 5 0 5-5 0-4 0-4-2-4-1 0-2 0-1-1l1-2c0-1-1-1-5 1l-10 1-8-1c-2 0-2-1-2-2l-2-4-3-2h10c11-1 15-2 21-8 4-4 8-4 12 0 5 5 4 13-2 15l-3 1 2 1c5 2 8 0 12-4 3-3 4-3 1 1-1 3 0 3 3 0 2-2 2-3 2-8-1-7-3-11-10-15l-4-3c8-3 15-1 17 4 1 2 1 2 1 0s-2-5-7-8l-3-3h7c23-2 44-14 56-32 8-12 10-21 10-43 0-12-2-29-4-31-1-1-2 0-3 2l-3 4-16 28c-2 5-3 9-6 12a636 636 0 0 0-23 20l-1-1v-1c1-2 0-5-3-6-2-1-3-1-7 3-5 5-13 10-17 11h-5c-3 1-5 0-11-3-8-4-9-5-6-6l18-9c7-4 14-9 17-14 1-2 1-2-1-6-3-3-4-3-6-3l-3-2c-2-2-4-1-6 5-1 7-6 15-9 17l-5 4-7 4c-5 1-5 1-9-2l-4-3 3-1c9-3 18-25 12-30-3-3-9-2-20 3-15 7-15 7-19 0l-3-9-2-6c-2-5-2-5-1-7l2-5 1 1v4l1 1c2-2 1-7-1-10l-3-4 10-9c10-9 15-16 16-23 1-2 1-2-1 0l-11 15c-3 3-9 4-14 3-2 0-3 0-4 2-2 3-4-5-4-16-1-7-1-11-3-15-4-10-15-16-24-15l-3 1 3-4c3-2 4-4 4-5l-7 3-3 2-3 3-2 3-1-3c-2-3-3-3-9 0l-4 2 1-1c2 0 1-3-1-4l-2-3v-4c1-2 0-5-3-6l-2-1V42c1-20 1-23-1-25h-6zm-8 57 4 2-5 3-5 3c0 1 1 2 3 2 5 3 5 5-1 7l-7 5c-3 3-3 3-2 7l4 9 2 8 2 7c3 4 0 5-6 1-7-4-9-8-9-16l-1-8c-2-1-2-2 2-10 4-10 12-22 14-22l5 2zm20 9c-2 6-4 8-4 3l1-3 2-3c2-4 2-3 1 3zm3 7v2c-2 1-3 1-3-1s1-3 3-1zm-22 4 3 3v4c1 3 0 4-4 8l-5 5-3-14c1-4 4-8 5-8l4 2zm3 17c0 2-5 8-6 8l4-7 2-1zm71 7v6c-1 1-2 1-3-2v-8l3 4zm-70 1c0 3-2 5-3 3v-3c2-3 3-3 3 0zm83 1-7 7-1-5 3-2h5zm-10 6c0 1 0 2-1 1-2 0-2-1-1-2 2-2 2-1 2 1zm-106 35-5 6-3 5-3 4c-4 2-5 4-5 8l-1 3c-3 1-5 7-5 12l-1 8c-3 5-3 9-1 13l1 6c-1 3 0 6 2 11 2 2 3 5 3 7 1 4 5 8 9 9l3 3c1 2 1 3-2 5l-10 4c-5 3-7 3-8 2l-4-1c-2 1-2-1-4-16-1-7-1-8-5-15l-9-15c-3-8-3-8-2-16v-7l8-9c16-17 33-30 40-30 3 0 3 0 2 3zm150 7c1 1-2 10-4 13-3 4-3 4-8 4-6 0-18-3-20-6l-1-2 3 2c2 1 3 0 2-2l2-1 18-6c6-3 8-4 8-2zm-153 3-1 2h-1c-2 0-2 0-1-2 2-2 4-3 3 0zm19 9v7c1 5 1 6-1 8v12c-7 13-10 23-7 26l5 1c4 0 5 2 2 13-2 5-5 6-9 3-1-2-4-3-5-3-3 0-4-1-4-4l-3-4c-2-2-2-3-2-6 1-2 1-4-1-7-3-3-3-4-1-6l1-7-1-5 5-2c4-3 7-7 7-11l4-4c5-2 7-5 6-9 0-2 1-3 3-4 3-2 4-2 1 2zm87 21c2 0 5 3 6 5 13 14 27 26 38 30 4 1 6 3 6 4l5 3h4l-5 2c-4 2-10 8-15 15-4 5-6 7-8 7s-2 0-1-2c4-4 1-7-4-7-2 0-4 1-5 3l-2 3-2-2c-2-2-2-3-1-10 1-13-3-20-10-20-3 0-3 0-3-2l2-4c0-3 0-3-8-3l-10-2h-2l2-3c2-2 2-2 0-4v-5c6-9 6-10 2-11v-7l4 4 7 6zm51 8c6 4 9 6 14 7l8 2h3l15-1c-1 2-14 9-19 10-6 2-6 2-10-1-3-2-5-3-7-1-1 1-1 2 1 3 1 2 1 2-1 1-3-1-8-7-14-17l-5-10c0-1 9 3 15 7zm-134 4c0 7-2 11-3 11-2 0-1-10 1-13l2-3v5zm-1 14-1 2c-1 1-1 0-1-2l1-2 1 2zm149 19c2 0 2 0 1 1l-4 2c-5 0-10 3-17 9l-6 5 6-8c6-7 13-11 16-9h4zM167 347c3 5 6 13 6 21l1 7-4-4a126 126 0 0 1-23-46c0-2 14 14 20 22zm46 70-1-1-2-6 3 7zm-10 11v2l-2-4c0-2 2 0 2 2z"/><path d="M122 88c0 2 1 3 2 1v-3l-2 2zm-3 5 1 2 1-2-1-3-1 3zm126-33v6c0 2 0 2-2 0-3-4-3-1 0 7l2 14-1 5 2-4c3-7 4-14 4-22-1-7-2-11-4-11l-1 5zm-20 6 1 2 1-2-1-3-1 3zm-5 32-1 2c0 2 0 2 2 1l1-3h-2zm-4 6-1 2c0 2 0 2 1 1l1-3h-1zm27 21-9 4-4 2h4c6 0 9-1 11-4 3-4 2-4-2-2zm-16 3-1 2 4-2h-3zm165 132c-6 2-7 4-6 8v7l-1 4c1 1 3-1 3-4s2-8 6-12c4-5 4-6-2-3zM210 463c-1 1 0 2 2 2s3-1 0-2h-2z"/></svg>