<svg version="1.0" xmlns="http://www.w3.org/2000/svg" width="357" height="683" viewBox="0 0 268 512"><path d="M167 1c-2 1-1 7 3 13 3 6 5 11 5 16 1 1-1 1-5 1-6 0-9-2-9-6l-4-6-4-3a510 510 0 0 0 5 16l-4-2-4-1c-3 0-15-9-18-12l-2-3v2l3 8 1 4-6 3c-4 3-6 4-7 3s-1-1-1 1c1 2 0 2-2 2-3 0-4 2-1 4 1 1 1 1-1 5s-5 7-7 7-2 1 0 2l3 3c2 2 2 2 1 5l-2 3 2 1c3 0 3 1 1 4-1 3-1 4 3 3 3-1 3-1 4 2v5c-1 3-1 6 1 6 1 0 2 0 1 1 0 2 0 2 2 1l-1 1-6 2-6 3-2 2 4 2c3 2 4 2 3 4-2 2-5 3-6 2s-2 0-4 1c-1 2-4 3-6 4l-5 1c-1 3-5 28-6 45l-5 16-4-2h-5v30l-3-4c-2-4-2-7-2-15l-1-12-3-9-5-27 3 3c3 5 4 5 3 1l1-5c2-3 2-8 1-11-2-5-4-6-2-1v7c-1 3-1 3-2-5l-8-42c-2-8-2-14 1-19v8l2-6c3-5 8-10 12-11 3-1 4-4 1-4l-3 1h-1c0-3 2-5 6-7 5-2 8-2 10 0h3c3-2 4-4 1-5-3 0-3-3 0-3l2-2c0-1-8 0-12 2-5 3-16 15-22 24-4 7-5 7-5 5l-2-6c-3-7-3 41 1 80l2 31c0 11-1 13-7 13-13 0-22-14-16-22 3-3 3-5 0-5s-5 6-4 10l7 16 3 5c0 1 7 11 13 17 6 7 8 11 10 18 2 8 2 23 0 31-1 5-2 6-4 7-2 0-3 1-3 2l2 4c3 3 6 18 5 19l-8 3c-18 7-26 13-38 30-6 9-8 11-8 5 0-3 0-3-1-2l-4 24v3l2-3c4-6 10-12 13-12 4 0 6 3 6 8l3 11c2 4 2 6 2 9-1 5-1 5 4 10l11 8-2-8c-3-9-4-15-3-24 2-10 5-11 6-2l1 5 2-5c3-6 10-14 13-16 2-2 2-2 6 2 5 5 12 8 16 8 2-1 2 0 3 3l-1 8-1 11-2 16-1 9-4 1h-4v4c3 19 3 26 4 39 0 18-1 26-4 36-5 15-8 20-13 26-5 5-6 7-6 10l-1 6 11 1 14-1c4-2 7-6 8-11 0-2 1-3 2-3l5-3c4-3 4-4 4-10l-1-12c0-9 0-20 2-27l1-5v-4l4-3c2 0 3-1 3-8l2-13c1-4 2-5 1-6-2-2-1-15 1-22v-36c0-5 1-7 7-9 7-3 14-8 16-12 3-4 1-6-2-1-3 3-14 9-17 9l-1-3c0-5 16-17 31-22l7-3 1 3 8 27-9 6c-17 9-28 19-31 26-3 8 1 16 8 16l3-1c0-2-3-3-3-1h-3c-4-3-1-15 5-18 2-2 6-2 4 0-3 4 1 8 6 6 7-2 22-16 21-20-1-2-4-2-7-1-3 3-3 5 0 5 4-1 4 1 0 4s-10 7-13 7-4-2-3-5c0-4 7-11 15-17l7-5c2 2 5 11 5 13l1 5 3 10 4 16c5 16 7 27 7 43 0 7 1 10 2 11 2 3 4 2 4-1 0-4 3 4 3 10l3 7v2c-1 1 0 3 1 6l1 8 1 7 2 12 3 12 3 9c1 8 2 8 14 8 13 0 14 0 12-9-1-3-2-8-4-10-3-6-6-16-5-19l-2-7c-6-15-7-27-7-56v-24l-5-1-5-1-2-7a339 339 0 0 1-13-57v-4l12-9c16-12 21-17 25-26 4-7 5-8 10-12 7-5 17-15 13-13l-17 5c0-2 6-7 16-14 13-9 25-19 25-22s-6-16-11-22c-13-19-27-32-40-39-12-6-22-18-28-35-5-11-5-10 6-15a273 273 0 0 0 40-22c3-2 6-6 6-11 0-2-2-7-7-15-3-4-9-8-12-8s-15-14-22-26-7-12-9-13l-6-3-4-1c-3 2-6-2-10-10-2-6-3-7-4-5zm-2 37h-1l-1-2h1l1 2zm13 1 6 2 4 1c3 1 9 10 14 19 2 4 2 5 1 8-1 2-1 3 1 6l1 6c1 3 0 4-2 4l-4 2c-3 1-6 1-10-1l-8-3-6-5c-2-2-3-3-4-2-1 3-10 8-12 8v-3l3-1c1 1 1 0 1-2 0-3 2-5 2-3h3l1-2c-1-1 1-6 3-6v-7c2-6 2-9 1-10l-1-2-2-6-3-5h3l7 2zm-6 43c1 4-1 6-5 9-6 2-6 1-1-6l5-6 1 3zm7 52c2 4 1 5-1 3l-2-4c0-3 1-2 3 1zm10 42 13 8c9 5 17 13 20 18 2 6 2 16-1 24-2 6-3 7-12 16s-22 17-23 15l-5-16 6 1 6 2-3-4a97 97 0 0 1-19-31c-2-5-5-14-5-21-1-13-1-12-3-11-1 1-1 1-1-4l2-12 1-5 8 7c4 5 11 10 15 13zm43 1c3 2 10 10 9 11l-15-12-2-2h2l6 3zm-169 5c-1 1-1 1-1-1l1-5c0-1 1-1 1 1l-1 5zm-13 14c5 5 5 5 2 4l-8-9c0-2 3 0 6 5zm210 29c2 4 0 8-5 10-3 2-3 2-3 0l1-10v-8l3 2c2 1 3 4 4 6zM88 261l-1 15h-3c-3 1-3 0-3-2l1-2 4-13c0-5 3-14 4-13l-2 15zm46 1c1 0 3 5 1 6l-4 1-4 1 1-5c2-10 2-10 3-6 1 3 2 4 3 3zm-63 12c2 1 2 4 0 5-1 0-3-2-3-4s1-2 3-1zm149 6-6 7-3 5-2-2c-2-1-3-2-4-1-2 0-2 2-1 2 2 2-3 9-12 17s-9 8-10-1l-2-10-1-5 4-2c3-1 3-1 6 1l3 4c0 3 2 2 2 0 0-8 0-9 12-12l12-5c3-2 3-1 2 2zM58 296c0 2-2 4-7 9l-10 10-4 5c-1 0-1-5 1-11 1-7 6-11 13-14s7-3 7 1zm27 18c0 2 0 3-1 2l-1-3 1-3 1 4zm-4 10c3 3 3 9 0 9-5 0-11-2-15-6l-3-4 3-3 7-5 5-3v4c0 3 2 6 3 8z"/><path d="M211 206c-1 3 0 5 2 9 3 3 3 5 3 11 0 9 2 5 3-6v-8l-4-5-4-5v4zM100 27c-2 1-2 1 0 2l5 1 3 1-2-3c-1-2-2-2-6-1zM35 152c0 2 2 4 3 4 2 0 1-4-1-5s-2-1-2 1zm6 121-5 1 5 1h14c2-2-7-3-14-2zm-14 6-9 6-2 2 4-1c5 0 6 1 2 4s-8 9-6 9l3-3 17-11 4-1 2-1-4-2c-3-2-4-2-4-4 1-3 0-3-7 2zm199 6c-3 2-2 4 1 2 2-1 3-4 1-4l-2 2zM8 307l-2 5c0 2 1 2 3-2 2-5 2-6-1-3z"/></svg>