<svg version="1.0" xmlns="http://www.w3.org/2000/svg" width="683" height="681" viewBox="0 0 512 511"><path d="m1 2 6 7 7 9c3 5 5 7 7 7l11 6 9 6c2 0 14 9 21 15l9 7a633 633 0 0 1 49 42c0 5 4 8 10 8l8 2 2 3-2 3-2 3h3c2 0 3 0 4 2v6l4 3c2 3 7 5 6 2s1-2 4 2l6 8 4 4-2 5-10 23v20l5-1h7c4 1 6 1 6-2 0-5 7 0 10 7 7 16 7 17 6 19l-3 2-5 2-7 4c-3 1-7 7-7 11l3 4 3 3-6 1c-11 3-18 2-21-2-1-2-1-2 3-4s5-3 5-5c1-5-1-10-6-11-5-2-8 0-10 6-1 4-1 5 5 17l5 4c5 2 9 2 21-1l7-2-3 3-7 2c-7 0-15 6-15 12v3l-10 3c-12 3-22 7-36 15l-17 10-8 3-4 13c-5 15-5 15 2 23 6 8 7 10 6 13v5l2 6 2 1c1 0 4 11 4 20 0 8 0 9-3 13-5 9-10 15-11 15-2 0-10 8-12 11-2 4-1 8 3 11 3 3 9 3 18-1 7-3 8-4 11-8 2-5 3-6 4-4 2 2 6 1 10-1 4-3 4-3 4-9 0-5-1-8-3-13-3-7-3-8-3-16l3-15 2-16v-10l4-2c4-3 4-2 2-11v-3l23-3 26-5c3 0 4 1 10 7 4 7 6 8 8 8 3 0 7-5 8-11 1-3 1-4 4-3 4 0 3 0 6 21a260 260 0 0 0 12 54l7-6 7-6 3 4c3 6 12 16 15 18 2 1 2 1 5-2l3-2c1 5 3 9 6 14 4 5 2 5 22 7l13 3 2 1 9 3c5 3 7 5 8 7 1 1 2 3 4 3s2 1 2 3c0 4 2 6 5 6l1-3v-2l1-2v-1l33 18c7 5 13 12 16 19l4 17 1 4 2 9c1 7 1 7 5 9 5 2 6 2 13 1 4-1 7-2 9-4 3-3 3-4 2-10l-2-10-2-5-3-5-3-4c0-3-13-19-22-29-4-3-13-14-19-22-12-17-23-30-26-30l-6-3c-2-2-5-3-5-2l-6-3c-6-3-7-4-8-9-2-6-2-7-7-8-3-1-5-2-8-7l-4-5 10-10 11-12 2-3 7 8c11 11 15 22 17 38l1 8 6-9c13-20 15-39 4-52a190 190 0 0 0-56-40l-5-3 4-1c10 0 25 7 31 15l3 4 1-6c-1-8 0-8 4-2 2 4 9 10 11 9 2-2 1-4-2-6-3-3-5-6-5-9v-2l3 2c1 2 4 3 6 4 8 2 12 8 7 13-2 3-3 8-2 10 1 1 1 1 4-1 3-3 4-3 7-2 7 1 7 1 1 17-2 6-2 9-2 14l1 7 6-1 5-1-1-5c0-4 0-5 3-8s3-3 10-3c14 0 21 5 76 54 14 13 29 25 35 27l9 3h4v-4c-2-7-7-15-15-23l-66-56c-18-14-23-22-27-37-3-12-2-19 4-20 3 0 3 0 2-7l-1-8c-1-1-8 2-11 4l-4 6-10 13c-2 0-5-9-5-14 0-7-2-8-6-3-2 3-3 4-3 8s-1 5-6 1l-4-2c-2 0-2-1-2-3l-2-5c-1-3-1-3-3-1-2 1-2 1-7-3-2-3-6-5-8-6l-3-3-2-3a415 415 0 0 0-34-61c-3-4-4-4-7-4-7 1-25-9-34-19-7-6-17-14-19-14l-5-3-5-3-5-3-4-4 3 1 13 1h10v-4l-2-6-3-3-7 4c-7 4-7 4-12 3l-5-2h6c8 0 14-3 19-10 4-4 5-5 8-5l8-1c6-1 9 0 11 3 1 2 1 2 1-1-1-4 0-4 3 0 2 2 3 3 3 7s0 5 1 3c3-3 0-12-5-17-4-5-10-8-19-8-3 0-3-1-1-2 3-3 11-7 16-7s5-2 0-3c-5 0-11 1-18 5l-5 3 1-3c1-5 1-8-1-11v1c2 3-1 8-8 20-8 11-11 14-12 12-1-1 0-2 1-3 3-3 3-7-2-12l-5-5-2-1-5-1c1-1 0-2-1-3l-4-3c-3-2-3-3-2-4 2-2 3-6 2-6l-1 1-4 1c-3 0-3 0-2-1 2-2 1-3-3-3l-6-2-5-1c-1 0-2-1-2-3 0-3-4-5-10-6-5 0-11 2-12 5 0 2 0 2 2 0 3-2 7-2 10 0 2 1 1 2-5 4-10 3-17 8-21 15l-3 6-3-3-4-3-5-2-4-1-4-2c-2-1-3-1-4 1-2 1-1 2-29-20L63 41 49 29l-12-9c-4-3-7-6-7-8-1-1-2-2-7-3L12 4C3 0 1-1 1 2zm285 227 32 26c-1 1 1 4 2 7 2 2 4 7 4 9l2 4-6-6-9-8c-5-2-11-1-16 3-7 5-11 6-15 5-3-1-8-6-10-10-1-4-8-12-9-12l-5-3c-2-2-3-3-3-5l-2-5c-2-2-2-4-1-12 0-6 1-10 2-11v-5l1-3 33 26zm-99-3c-1 2-1 2-3 0v-2l3-1c2 0 2 0 0 3zm-5 7c3 3 2 5-1 2-2-2-3-5-1-5l2 3zm-7 0 3 4 2 2h-3c-4-1-5-2-5-5 1-2 3-3 3-1zm9 14c-1 1-6 0-6-1h3l3 1z"/></svg>