<svg version="1.0" xmlns="http://www.w3.org/2000/svg" width="377" height="683" viewBox="0 0 283 512"><path d="m159 34-16 26c-4 7-7 18-7 22l-2 4c-1 0-2 2-1 3l-1 3-2 2-1 2c-2 0-6 4-6 6l-1 3-2 5c-1 3-1 3 4-2 6-7 7-6 6 0-2 7-2 18-1 21 1 2 1 1 1-7v-10l1 10c0 8 1 9 3 12 3 4 3 4 1 4l-3-1-10-1-11 1c-5 1-6 1-4-1 1-2 0-3-2-3l-2 2c0 3-1 3-4 0-5-5-6-15-4-20 4-7 11-9 15-4l2 3-2 3c-3 4-2 5 3 4 2-1 3-2 3-5 1-7-3-12-10-12-16 0-23 24-12 38 3 4 3 6 1 5l-6 1c-4 1-5 1-3-1 1-2 1-3-1-3-3 1-5 6-4 8v3l-1 4c0 5 4 8 9 8l3-1v5c0 5-1 7-4 7l-1-1c0-2-2-2-2 0-1 2 1 5 3 5 4 0-2 2-8 3-9 0-11 3-11 8l-1 6-13 7c-13 7-20 12-31 23-9 9-14 18-18 28-4 15-4 26 2 40 5 13 17 22 29 23h6l-5-3-9-7c-4-4-4-4-4-10 0-8 1-9 8-10 5 0 6-1 7-3 1-3 1-4-1-4-1 0-2-2 0-3l8 4c-1 2 3 5 5 4l4 3-5 2c-5 2-5 2-6 8l-1 6 5-3 4-2v7c-2 9-2 27 0 34l9 25c1 4 6 9 6 7l-2-5c-5-17-3-36 6-55l3-8c2-4 3-3 2 2l-1 35-1 32 3 7c4 7 14 17 23 22 10 5 23 9 34 10 9 0 13-1 5-3-8-1-19-7-30-17-16-15-21-25-21-43 0-9 4-32 6-30l2 7c3 9 9 20 15 26s17 12 24 14c4 1 6 2 8 5l2 4 3 7c3 3 6 8 6 10 1 3 2 4 6 5 5 1 6 4 3 7s-3 4 0 8l4 8 5 5 1 3 2 3 1 1 3 6c3 4 3 6 3 9-1 5 1 6 3 4 2-1 2 0 4 3l2 6 1 2 6 19c1 11 3 14 7 17 4 4 7 4 13 1 8-4 8-11-2-28a97 97 0 0 1-7-16c-2-2-7-14-7-16l2 1c3 2 10 2 13-1 2-2 2-3 2-8l-1-8-2-12c0-11 0-11 3-17l7-11 4-5 3-4c3-3 6-9 6-12l5-5c7-4 11-9 19-21 5-8 5-9 6-18 1-12 0-17-4-21-4-3-3-5 2-5 3-1 5-1 8 1 5 4 6 4 6 1 0-11-16-23-32-24-7 0-8-1-7-2 2-1-1-2-4 0h-5c-3-2-2-2 4-2 6-1 16-5 18-7l1-5c1-6-1-9-6-8l-3 3h-1c-2-1-2-1-2 2 0 5-4 10-6 8l-4-1c-5 2-24-9-24-13l-1-1-1-2 1-2c2 1 8-1 11-4 4-2 5-3 10-1 5 3 8 2 12-1 5-2 6-3 11-1 4 2 5 3 2 6-2 2-1 4 2 3 3 0 5-4 4-7l1-2 1 6c0 4 1 6 2 6 3 0 4-9 2-12-3-5 0-3 3 2s5 6 6 4c1-1-3-9-7-13-2-2-3-3-1-3l6 2c7 4 11 2 5-3-4-3-8-4-18-4-10-1-10-1-13-8l-5-4-3-3-5-1c-5 0-8-1-7-3h11l9-1 3-1c4-1 7-5 6-9-1-3-4-3-9 0l-4 2 4-1c5 0 8 1 7 3l-5 3c-4 2-8 2-15 1l-6-1c-5-1-16-7-17-9l5-1c7 1 13 4 17 7l6 3 2 1-2-2c-2 0-5-3-6-4l-7-6-6-2h4l5 1c2 3 3 2 3 0l3-6 6-7c1-2 2-4 3-3l3-7 1-4c1-2 1-2-1-4l-2-5-1-2-3-2h-3c-1 2-1 2-2 1l-1-1c-1 0-2-1-2-3-1-2-1-2-3-1-1 2-7 2-7 1l-4-1c-5-1-5 0-6 3 0 4-4 6-7 3l-2-2v4l-1 5c-1 0-2 1-1 2l-1 4c-1 1-1 1 1 2v4c-1 2-1 2 1 4l3 4 1 3 3 1c1 2 4 3 6 4l4 2-8-1c-8 0-9 0-12-4l-8-14-7-11-2-3-1-1c-2-1-2-1 0-5s5-23 6-37c0-8 1-13 3-19 4-10 5-20 3-38-1-14-4-30-6-31l-1 3c-4 23-7 34-12 47-4 7-4 7-7 7h-4l1-6a1123 1123 0 0 0 5-56l-13 18zm-26 63v1l-2-1 1-1 1 1zm-32 44v1l-7-8 2 2 5 5zm79 0c3 4 2 5-1 1l-3-2-5 1c-6 2-7 2-7 1l5-4c4-3 4-3 7-1l4 4zm-86 11c0 1-1 2-3 2s-3 1-3 3 2 3 3 1c1-1 1 0 1 1 0 3-1 4-3 4-4 1-5-7-1-10 3-2 7-2 6-1zm125 34c2 1 2 1-3 1l-5-1h8zm2 12c-1 2 0 2 3 1h4l3 2h-4c-4 0-5 0-7 2-2 3-3 3-6 1s-3-3-2-4c2-2 2-5 0-7l4 1 5 4zm16 10h-7 7zm-42 5 3 3c2 1 1 1-2 1-5 0-5 0-5-3v-5c-1-1-1-1 0 0l4 4zm23 14 1 5c1 3-1 7-5 8-2 1-4 0-6-2-3-2-4-5-4-6l-1-8-2-6 9 3c8 3 8 3 8 6zm-28 69 4 6c0 1-7 6-9 6l-4-11-3-13 12 12zm18 66-2 9-2 7-2 6c-2 5-2 5-1 6 3 2 1 5-3 7-7 3-7 3-7-2l1-9 2-8v-7c-1-3 2-6 7-9l6-3 1 3z"/><path d="M225 114v8c2 3 3 2 4-2 0-2 0-4-2-5l-2-1zm9 17c-4 2-3 4 0 3 2-1 4-5 3-5 0-1-2 0-3 2zm-29 0c-2 3 0 7 3 7 2 0 3-2 1-3l-2-3c0-2-1-2-2-1zm10 6 1 1 1-1-1-1-1 1zm-2 2 2 1v-1l-1-1-1 1zm39 32c-2 2-3 3-2 4l6-4 1-3-5 3zm-9 13h-4l2 4c3 4 3 4 10 1l6-2c2 0 3-2 1-3h-15z"/></svg>