<svg version="1.0" xmlns="http://www.w3.org/2000/svg" width="683" height="677" viewBox="0 0 512 508"><path d="m204 2-7 2-7 1c-3-1-4-1-7 1l-3 2V5c-2-2-9 4-9 8l-3 4c-3 2-3 3-2 11v1l-1-2h-1l-2 3-1-1-1-1 1 4c1 2 0 3-6 3l-3 1c0 2 4 6 6 6l1 2-1 4v5l2 3v-4l2-5c1-1 1-1 0 0-1 4 4 12 8 12l3 2c2 1 2 2-5 5-9 4-17 12-21 20-3 7-3 14 1 18 4 3 6 3 4 0s-1-3 2-1c3 3 9 4 12 3 7-1-6 11-19 18-9 4-9 5-7 6 3 1 3 1-3 5l-20 14c-25 17-40 29-55 43-14 15-21 24-26 36-6 15-7 24-1 45 3 11 3 14 3 26 0 13 0 14-4 26a255 255 0 0 1-15 36h1c3 0 20-22 27-35 5-9 9-13 18-17l31-14-3 5c-2 3-3 6-2 7 0 2 7 4 21 9l14 5-2 7c-2 4-2 7-2 9 1 5 20 30 21 29l-1 11-2 9c-1 7-1 7-7 14-5 5-13 17-13 20 0 1 5-1 11-5l4-2-1 9c-3 10-11 26-14 28-2 1-3 2-1 3v3c-2 3-1 10 0 13 2 3 2 4 1 7-2 7-1 11 2 16 5 7 17 13 22 12s6-11 2-19c-2-3-3-13-1-32s7-36 19-60c5-10 6-11 15-20l11-9-2 6-1 6c2 1 42-28 43-31l1-9c0-8 0-8 3-10 5-3 5-3 4 2l1 12c2 6 2 13 1 38 0 43-2 55-8 67l-3 9c0 5-5 20-10 28l-4 11c0 4 2 9 5 11 7 6 20 0 23-10l2-18v-14h3c3 0 4-1 2-3s-1-13 4-34l7-25c3-6 8-27 9-38 0-6 0-12-2-19v-25l1-13 4-2 5-3-1 7-1 8 3 3c2 1 3 4 3 5l2 6c4 9 5 12 4 39a180 180 0 0 1-12 77c3 1-7 15-15 21-4 2-5 5-6 7l-1 5h16l11-4c4-1 5-3 7-6 2-4 3-5 6-5l8-2c2-1 2-2 3-7 0-4-1-6-3-11l-2-5 1-10 7-21c12-32 13-37 11-52v-12c0-4 1-5 5-8l7-4c1-2 3-12 3-25l2-15v-5l4 3c3 1 5 4 6 8 4 8 5 10 8 23 3 12 5 15 11 18 3 2 4 3 4 5s1 3 3 5l7 8c4 6 5 10 11 30 1 4 4 14 8 22 9 22 10 25 11 42l1 17c2 4 3 16 2 23-1 6-1 7 1 9 3 4 8 6 14 6 5 0 6-1 9-3 4-3 4-5 0-15-10-29-12-47-9-68 0-3 0-4-1-3-2 0-2-1-2-9a174 174 0 0 0-6-47l-2-11-1-7 17 11 19 13c2 1 2 2 2 6v5l4-3c4-3 5-3 8-2s4 0 2-3c-2-2 0-5 3-5 2 0 2-1 1-4v-4l8-4 11-6c4-3 4-3 3-8a195 195 0 0 0-10-45l-4-15-2-6 2-6c6-14 9-20 18-32s12-17 12-22c0-4-8-18-12-23-3-3-7-7-16-11l-49-29 4-3c1-1 4-4 4-6 2-4 6-7 12-9l5-1 4 3c2 3 4 4 6 4 4 0 4-2-2-7s-5-7 0-3c4 2 8 3 10 1 1-2 1-2-8-7l-8-3 4-1c8-2 11-4 11-6s0-2-9-2a65 65 0 0 0-17 4l5-7c5-7 7-11 3-11-2 0-11 8-16 15-6 9-6 9-19 7l-5 1c-1 2 0 4 6 7l5 2-2 2c-7 3-12 1-18-7-6-7-17-17-21-18l-4-2-5-1-6-4c-4-4-4-6-1-6v-2l-1-5 4-2c4 0 5-2 2-2-3-1-4-2-1-6l1-3v4c0 3 0 3 2 2 2-2 4-7 4-10-1-3-1-3 3-3s5-1 2-2c-1-1-6-7-6-9h3l7-2 4-2-3-1c-5-2-9-4-11-9l-5-8c-2-3-3-4-1-5v-8c-1-1-2-1-2 1-1 4-4 4-12 1-12-6-20-6-25-1l-2 2 1-4c1-5 2-7 5-9 4-2 8-3 13-1l4 2-4-3c-4-4-10-4-18-1-7 4-10 10-8 16 2 3 2 3 0 3s-12 11-16 17c-3 4-4 12-2 13 1 1 1 0 1-1l1-3v5c0 4 0 6-2 8-4 2-3 4 2 5l3 1c0 1-3 5-5 5l1 2 4 1c3-1 4 0 6 2l5 4c2 2 2 3 2 5-1 3 0 4 2 2 1-1 2-1 7 2l6 4-3 2-4 4-4 4c-2 0-5 4-9 7-8 7-10 13-9 27v10l-4 2c-3 1-5 2-6 6-2 4-3 5-5 6-4 0-5 2-10 11-3 7-8 12-11 12l-4-5-6-10-5-7-5-6c-5-7-6-13-5-25 1-19 1-20-10-25-5-3-6-4-7-7s-5-7-7-7l-3-2-4-3c-6-1-13-5-13-6s1-1 2 1h5c2 1 2 1 1-1 0-2 0-3 3-5 2-1 2-1 4 1 1 2 7 5 13 7 4 1 8 5 10 11 1 4 1 7-2 8-3 0-2 2 1 3h6c3-2 4-3 5-6l1-5 2 5c4 5 5 12 2 15l-1 2 3-2 2-1c1 0 3-3 3-7s-5-12-10-16l-5-5 5 2c7 2 8 2 12 6 2 3 2 4 2 7v2c2-4 0-10-5-13l-10-4c-7-2-11-4-7-4l2-1h2l1-1 1-1 2-1c2-2 3-1 5 2 2 4 5 5 5 2 0-2-3-6-7-7l-13-1-11-1 3-5 3-2-1 4c-2 2 1 1 3-1 3-4 4-11 4-27 0-14-1-15-3-20-4-7-10-14-14-16l-5-2c-3-4-14-6-22-5zm-33 55-1 1-1-2 1-1 1 2zm11 14c-1 2-1 2 1 2h3l-1 1-5 1c-2 0-3 0-5-2-3-3-3-4 2-4l5-1v3zm-9 7a61 61 0 0 0 14 2l-9 5c-3 0-8 6-9 14-1 5-2 5-4 4l-5-5c-3-4-2-11 1-18 2-4 2-5 4-5l8 3zm23 57c3 2 2 4-1 12-4 6-4 8-3 12 1 10-1 12-14 24l-21 23-10 11c-2-1-2-3 1-6l8-10 11-15c9-10 13-18 14-27a217 217 0 0 1 7-33c0-2 1-1 3 2l5 7zm-31 2c-2 19-2 19-8 28-5 7-6 9-7 8-3-2-5 1-9 15l-4 15c-3 5-10 13-13 15l-3 4c0 1-2 4-6 6l-5 5v18c1 6 1 6-3 10l-18 13a246 246 0 0 0-30 27l7-19a321 321 0 0 1 40-80c4-6 4-7 3-9-2-3-2-7 0-13 3-8 7-13 14-18 6-5 22-15 26-16 2 0 6-3 9-7l7-6v4zm40 15c0 3-1 4-3 6l-4 5-2 4 1-4 3-10c3-7 5-8 5-1zm109 20-1 5c-1 3-1 3-3 1-2-3-3-2-3 3l-10 43c-2 1-2 1-3-1v-3l-2-4c-4-4-8-14-9-21v-7l4-4c3-3 4-4 8-4 6 0 9-2 11-6 2-3 4-4 7-5l1 3zm99 59 2 6 2 6c0 3 1 7 3 10 2 5 2 7 2 11l-2 5v9l-3-3-5-6-3-3v-26l-1-27 2 7 3 10zm-270-3-1 2c-2 1-2 1-1-1 0-2 2-3 2-1zm-10 10-6 5c-4 4-5 4-5 2 0-3 1-5 6-8 4-3 5-3 5-1v2zm-72 19c2 5 2 6 1 7v4l-3 4-4 3-2 2c0-2 2-6 5-9l3-4-3-7-3-9c0-3-1-2-3 0l-5 6-3 2-1-2c-1-2-1-2 3-4l6-5 2-4 2 5 5 11zm371 1a242 242 0 0 1 22 35l-1 5c-2 4-1 8 6 16l4 6v14c0 14 0 14-3 16-5 6-6 5-27-11l-20-15 1-3c4-7 4-9-3-22l-6-12h4c10 4 32 9 34 8l-9-8c-6-5-7-6-5-9 1-2 1-8-2-10-1-2-5-12-4-13 1-3 5-2 9 3zm-386 3 6 22c-1 0-2-2-2-6l-5-12-3-7c1-2 2-1 4 3zm60 16h-4c-4 0-5-1-3-2l7 2zm-11 1-3 5c-1 2-2 2-1 0l2-4 1-2 1 1zm7 7-2 2 4-5-2 3zm-5 3h-3c-1-1 0-1 2-1 1 0 2 0 1 1zm112 14c-4 17-8 30-11 33l-3 2 3-8a368 368 0 0 1 11-27z"/><path d="M11 360c-1 0-4 3-4 5-2 3-2 4 0 11l3 9 5-3c5-3 8-7 8-11l-2 1c-1 1-1 1-1-4v-6l-3 2c-4 2-6 0-4-3 3-3 2-3-2-1z"/></svg>