<svg version="1.0" xmlns="http://www.w3.org/2000/svg" width="433" height="683" viewBox="0 0 325 512"><path d="M164 15a94 94 0 0 0 4 30l-6-7-8-8c-6-3-27-8-31-6-4 1-16 12-19 16l-3 7c0 4-5 14-9 16l-4 1-2-1 2 2 5 2c2 0 2 0 1 4-3 6-2 8 0 4 2-3 4-5 4-3s-3 8-5 9l-2 2c0 1 2 1 6-1l4-1c0 2-7 10-9 10l-6 9v7c-1 0-3 5-3 8l3 4c5 4 7 5 4 2l-3-3c0-2 8 4 10 6 1 1 0 2-5 7-5 4-6 5-11 5l-5 1-1-5c-2-6-2-7 0-7l4-1c1-2 1-2-1-2h-4c-2 0-3-1-3-8-1-7-4-4-6 5 0 3-1 4-2 4l-4-1h-6l-9 2-1 1c1 2-1 3-4 3-1 0-3-2-4-5-2-4-4-6-6-6s-2 0 0 6l2 6-3 2c-4 2-4 3 1 4 4 1 5 1 3 20v19c1 6-1 5-8-4-6-7-12-12-15-12l1 3c2 1 5 6 7 10l10 14c6 6 9 13 8 19v4l1 2c-1 3 5 9 10 9h11c3 1 3 1 2 3l-2 3c0 2 8 5 10 4 4-2 4-1 1 6-5 10-9 20-12 35l-3 15 9 1 11 1 3 1v52c1 3 5 7 21 23l19 21-1 14c-3 31-6 50-12 65l-5 12-7 11c-5 5-7 10-5 15 1 3 8 3 16 1 8-3 13-7 13-12 1-6 4-9 6-9 5 2 9-11 6-18 0-3-2-6-3-8-2-2-2-4-1-9 2-9 7-26 8-23l-1 9c-1 7-1 8 1 11 1 3 2 4 5 4s4-1 7-4c6-5 7-10 6-19 0-5 0-6 2-9 3-6 3-10 1-15-3-6-5-8-9-9-2-1-2-1-1-6v-51l2 6c2 10 5 16 9 19l4 4c3 8 10 14 15 14l5 5 7 7c3 2 6 3 6 1l-12-42c-12-35-18-66-17-82l1-8 4 4 6 11c8 19 21 39 31 51l16 14c12 10 18 17 24 28l5 10 4-4c2-3 3-6 3-11l1-11c4-10 3-16-1-25-1-3-1-3 1-6 4-3 6-9 5-12 0-5-4-8-10-9-9-2-9-2-4-4 3-1 6-4 11-11 11-14 13-15 23-23 11-9 14-13 14-21 0-5-1-13-4-20l-1-5h-7l-8 2c-5 1 0-12 6-20 4-4 10-6 15-6 2 0 4 2 9 9l9 12c2 4 2 4 3 2 1-3 0-17-2-23-1-4-2-6-5-8-14-10-27-12-54-9-19 2-38 2-46 0-4-1-5-1-7-6-2-4-4-6-7-8-5-3-6-5-3-8l6-7 3-5-7-2-15-6c-7-4-8-5-9-8-1-2 0-3 1-2 2 2 2 1 0-2s-5-4-11-5l-8-6-4-5 1-3c0-4 1-7 3-7l2 3c2 4 3 4 3-1s1-7 3-5c2 1 7 0 11-2l3-1-4-1c-4 0-6-2-3-3 1-1 3-3 3-5l1-3 3 5 2 5v-8c0-8 0-8 3-8 4-2 9-5 10-8 2-4 3-18 1-23l-1-3v4l-1 6-5 6-4 5v-7c0-5-1-7-7-19-3-7-7-14-7-17l-2-4v6zm-57 83 3 5-5 3-8 4c-2 0 0 1 6 4l6 3v2l-4 1c-4 0-5 1-5 3 0 3-2 2-2-2-1-2-2-5-4-6-4-4-6-8-4-9l1-2c0-3 11-14 12-12l4 6zm40 2-1 2-1-3 1-2 1 3zm-81 30 7 25c4 12 5 20 3 23h-1c1-2-1-4-3-4-1 0-3-4-6-22l-4-23c1-2 4-1 4 1zm-17 22 3 19-4 2-3 2v-4l-1-10c0-6-1-15-4-25 0-3 0-3 4-4l4 20zm40 3c-1 5-2 5-3 2-1-2-1-3 1-4l3-2-1 4zm22 149 5 2 1 17v23l-7-4-8-7c-2-3 0-21 3-32 1-1 1-1 6 1z"/></svg>