<svg version="1.0" xmlns="http://www.w3.org/2000/svg" width="464" height="683" viewBox="0 0 348 512"><path d="m23 9 2 7 2 10c0 3 0 4 3 6 2 0 6 4 8 7l5 5a2065 2065 0 0 1 75 100l-4 3c-6 4-8 6-5 6l12-4h3c0 1-2 3-5 4-3 2-6 4-8 8l-8 7-4 4c0 2-12 15-15 17-3 1-3 1-7-2-8-5-15-4-20 4l-5 10-4 5-3 3c-3 3-3 3-12 3l-13-1-4 1c1 2 6 5 11 6h4l-6 6-9 7c-4 2-4 4 0 4 3 0 8-2 12-6l4-3-1 2-1 6-2 8c-1 5-1 7 1 6 3-1 5-5 6-11l2-6c0-2 3 6 3 10 0 2 0 3 2 3 2-1 4-6 2-11v-5l8-5c6-3 10-4 16-5 11-1 13-2 15-7 2-4 3-5 6-6l28-22 5-4c2 0 12 20 12 24 0 3-4 5-9 3-4-1-4-1-8 2-4 4-4 4-15 4-14 1-20 3-22 8l-5 9c-6 6-9 11-9 13l3 1c2 0 0 2-10 7l-18 10c-6 4-10 12-13 20-1 4-1 5-4 5l-7 4c-3 2-3 3-4 8l1 8c2 3 2 3 0 8-2 7-1 11 1 14 2 2 3 2 6 2 4-1 4-1 4-5v-4l1 3c3 4 7 5 11 4l3-3-6-10-3-2 4-2c6-5 7-15 1-20l-2-2 5-5 11-12c6-9 7-10 33-24l8-4-7 7c-5 5-7 9-9 13-3 8-3 10 1 5 2-4 4-6 5-6v5l1 4 1 2 1 3 1 6-1 4-7 3c-6 2-7 3-6 4l8 1 5 1v20l-1 20-5 12c-9 19-9 21-10 36 0 13 0 13-4 18-5 8-4 10 4 26s9 18 9 32l2 13 1 11c0 9 1 14 5 17 4 4 7 5 11 3 4-1 4-8 2-14-2-3-5-19-5-22l2-1 2-4c1-2 0-3-2-6-3-4-3-4-3-9l3-14c3-13 3-20-1-27l-2-9 3-19 7-24 5-13c0-3 3-9 6-15l7-17 3-7v12c0 19 3 24 13 24 3 0 3 0 2 2-2 9-2 10-1 14 3 8 9 8 15 1 4-5 5-7 6-15l2-10c2-5 3-14 3-20-1-7 0-10 4-11l15-14c3-3 6-11 5-14v-4l1 4 3 3h3c2 0 2 0 2-4l-3-9c-3-6-1-5 3 2 5 8 10 10 11 5 1-2 0-3-1-5-2-2-2-2 1 0 2 2 3 3 3 1h1c2 0 7 5 24 28 10 13 13 18 13 20 0 3 5 9 8 9 2 0 22 26 21 28 0 2 4 7 6 7 1 0 4 4 4 7l2 6 3 4 1 3-1 3v3l8 7 18 16 15 13 3 1v-4l-4-9-13-31c0-2-2-4-4-4-3 0-13-6-13-8 0-3-3-6-6-6-3-1-6-5-6-8s-1-5-4-5c-2 0-23-27-23-30s-3-8-6-9c-2 0-8-8-19-23-16-20-17-22-15-22 2-1 2-1 0-4-2-1-4-4-5-7-1-2-4-7-7-9l-7-12-8-17h-4c-2 1-3 1-5-2-3-3-4-7-6-15 0-4 0-5 4-2 2 1 2 1 3-1 2-1 1-2-2-3l-4-1 1-6c0-5 0-5-3-9-2-2-3-5-3-8-2-14-5-19-12-20l-3-2 13-10 3-2c1-1 1-1 1 2-1 3-1 4 1 4s4-3 6-6l1-3 1 4 1 5v-14l-1-14c-1-7-1-9-4-15l-9-13-5-7-1-2-1-4c0-4-6-7-11-6l-5 1-3 2-2 2c0 2-3 4-6 5-2 0-3 0-3-2l-5-4c-4-2-5-2-8-1l-5 1-4 3-3 2c-1 0-2 2-2 5l-1 5c-2 3 0 11 3 12l4 3c2 1 2 1-2 10l-5 9a1788 1788 0 0 1-67-93c0-4-1-4-5-5l-9-5c-5-3-6-3-6-2zm139 59c2 3 1 4-4 3-3-1-4-2-3-3l5-2 2 2zm-31 5c1 1 0 2-2 4l-5 7c-2 4-3 5-4 4-4-3-3-6 2-13 2-3 6-4 9-2zm56 38h-1l1-2v2zm-71 7c0 4 0 5-1 3l-1-3 2-5v5zm20 21-1 4c-2 1-2 1-1-2l1-4h1v2zm42 79c1 3 1 3-1 3s-3-1-2-3c0-3 2-3 3 0zm23 31c-1 2 1 8 3 8l1 1c-1 1-3 0-5-2-4-2-5-2-4-4l1-6v-3l2 2c1 2 2 3 1 4zm-17 2c0 3-1 2-1 0l1-2v2zm3 11c0 5 0 5-1 0v-4l1 4zM95 462l-1 1c-1 0-2-1-2-3s0-2 2-1l1 3z"/></svg>