<svg version="1.0" xmlns="http://www.w3.org/2000/svg" width="489" height="683" viewBox="0 0 367 512"><path d="m265 16-7 6c0 3-7 3-9 0-1-2-4-3-7-1-2 1-4 7-4 11 0 2-1 3-4 6-7 4-6 11 2 11 5 0 5-1 4-7-1-5 0-7 3-7l1 2c-1 2 0 2 2 2h4l2 1c2 1 4 0 4-2l1-4 2-5c0-2 0-2 1-1 3 3 5 1 8-7 6-12 5-13-3-5z"/><path d="M252 17v2h1c1-2-1-4-1-2zm-61 6c-4 1-9 4-9 5l4-2c7-2 15-1 17 3v7h-10c-8-1-8-1-15 2-5 2-7 4-11 10-7 8-10 10-14 10h-4l3 3 6 3 3 1c0 1-4 4-5 3l-1 1-3 1-4 1c0 1 6 6 8 6v1c-1 1-1 1 1 2 1 1 1 1-2 1-3-1-3-1-2 1 1 3 6 6 9 6h3l-3 1c-2 1-2 1 2 1h11l-3 1-3 2 3 1c2 0 3 0 2 2l-3 1v1c0 1 4 0 6-2s3-1 1 2c-1 2-1 2 1 1 2-2 2-2 2 0 0 5-1 8-3 8-3 1-4 3-3 6 1 1 0 2-4 4-5 4-8 9-8 15l-1 10-2 15c-1 8-1 11-4 16-3 6-15 23-17 24A3945 3945 0 0 1 36 64l-2-1c-1 0-2-1-2-3 0-3-1-4-5-7l-6-6-5-4-3-2 4 8 5 11 4 4c2 0 3 1 3 3l1 2 1 4c0 2 1 4 4 7l9 10 5 6 45 58 38 51v3l-8 11c-17 30-24 39-36 50s-30 30-36 40c-10 13-20 38-23 56-1 5-1 5 2 11a207 207 0 0 0 17 26c12 19 26 35 34 40 4 3 5 2 1-2a148 148 0 0 1-17-64c1-21 5-37 16-60l6-12 1 9c1 10 4 20 10 28l4 8v-4c0-8 1-17 4-24l2-4 4 3c8 8 21 9 33 3 15-7 36-24 42-35l3-6 2 2 3 4-3 20c-4 19-5 20-12 29l-4 5 3 6 3 8 1 3c2 1 1 4-4 11s-7 9-15 12c-6 2-16 9-17 11l2 7c2 6 3 8 5 8s4 6 3 14c-1 4-1 6 1 10l9 12c5 6 6 6 8 6 4-1 5-5 3-13-2-7-2-9 0-14l3-21 5-9 5 27c2 14 1 17-5 23-5 4-8 11-8 15 0 2 2 5 5 8 3 5 5 6 6 5 2 0 3 0 4 4l4 10 2 6 9 5c10 6 16 7 19 5 2-1 2-2 1-6 0-3-2-5-6-9-3-3-5-5-5-8a944 944 0 0 0-7-51 106 106 0 0 1 6-39c0-1 3-3 7-4 5-1 6-2 7-5l1-4-5-1c-3 0-4 0-6 3-2 4-2 4-3 2v-5l2-5c0-1 10-10 12-10l2 6c1 7 5 14 6 14 1-1 4 1 7 4 4 4 9 7 7 4l1-1 1-2c1-2 3-3 5-1v4c-1 3-1 3 2 6 8 6 17 14 27 26a1155 1155 0 0 0 27 34c-4 2 0 13 5 17 9 6 21 1 21-8 0-3-4-7-7-7a369 369 0 0 0-26-41c-15-22-18-28-21-36-2-6-2-6 0-7l1-4c-1-4 0-7 2-5 2 1 4 1 13-2l11-3-1-1-1-1c1-2-4-2-5-1-2 1-8 1-11-1-1-1-1-3 1-13a353 353 0 0 0 6-102c-3-12-10-26-27-55l-16-26 1-5c1-3 3-7 5-8 2-3 3-4 2-12l1-12c1-3 1-4-1-8-3-4-3-6-3-9 1-5 0-8-4-11-3-2-4-5-4-15v-9l5-5 4-7 3-5 3-7-1-4-9 6-3 1c-3-1-3-2-3-3 1-2 1-2-5 0-9 3-14 7-20 16l-5 6-1-4c-2-9-9-18-18-22-3-2-3-2-2-4 3-2 2-5 0-9-4-4-10-6-17-4zm35 44c-1 1-1 0-1-2 0-1 0-2 1-1v3zm1 20v5l1 6c3 5 10 11 15 11 3 0 3 0 4-3l1-3 1 3 3 6 4 5c2 2 2 2-2 4l-4 4c0 1 3 0 4-2s4-1 4 1a66 66 0 0 1-11 22l-3 2-3-2-2-4-1-2-3-3-4-8c-5-6-6-9-1-12l2-4h-2c-1 2-3 2-3 1l-2-2-4-2c-2-2-2-2 1-1l3-1-1-1c-3 0-7-3-9-7l-2-4 3-5 4-5 1-1-1-2c1-1 5 1 7 4zm15 11c2 0 2 2 0 2l-1-1h-2l-2-1h5zm-34 10c0 2 0 3-2 3-3 0-5-2-5-6v-3l3 2 4 4zm16 5v1l-2-1 1-1 1 1zm-33 49c5 5 7 8 8 12 3 7 2 9-1 12-2 2-2 2-1 4 2 4 1 14-2 16l-2 7c-1 4-2 8-5 13l-5 8-5-30-3-17c-1-5-1-4 5-22l4-10 7 7zm-27 56 6 19c-1 1-19-22-21-27-1-1 0-4 3-10l4-9 1 4 7 23zm-8 18 11 14c1 2 0 2-6 7-11 7-22 12-35 17-12 3-24 9-27 12-2 1-2 1-1-3l3-5 8-11a1133 1133 0 0 1 28-40l5-9 2 3 12 15zm42 34-1 3v-5c1-2 1-1 1 2zm67 5 3 3-1 10-1 21 1 12 6 12 5 13-3-2-11-6c-7-4-9-5-6-7s4-10 4-33l-2-23c0-4 1-4 5 0zm-98 10-6 12-3 8-15 7c-11 6-15 7-19 7-5 0-12-2-13-3 0-2 8-7 11-7s3 0 3 3v2l3-3 18-14a157 157 0 0 0 23-17l-2 5zm98 65c1 3 1 4 5 5 6 1 14 9 14 13 0 2 0 2-3 2-2 0-3 0-3-2 0-1 1-2 3-2s2 0 1-2c-2-2-7-4-10-4-5 0-11-3-12-6-2-5-1-8 2-8l3 4zm17 3 3 5 1 4c0 3 0 3-2-1l-4-8-1-4 3 4zm-31 9c2 2 2 5 2 13v10l-5-13c0-5-1-6-3-7l-3-4c0-3 7-2 9 1zm53 57c11 14 15 20 14 21-1 0-5-4-16-18-7-8-12-16-12-17 0-4 4 0 14 14zM271 25c-1 1 0 2 1 1v-2l-2 1zm13 4c-5 2-6 3-7 5-1 5-1 6 1 5 1 0 2 0 2 2 1 4 4 4 6 0l1-5c-1-1 0-2 2-4l2-5-7 2z"/><path d="M261 34c-1 2-1 4 1 4 1 0 2-3 1-4h-2zm8 2c-4 4-3 6 1 4 3-1 3-2 2-5 0-2-1-2-3 1zm-23 6 1 1 1-1-1-1-1 1zm30 9c-2 3-2 4-4 3l-2 1c0 2 3 3 5 3h2c5 2 7-7 3-10-2-2-2-1-4 3zm-46 2 1 1 1-1-1-1-1 1zm13 338-4 2v24l3-6 6-10 2-4-3-9-4 3z"/></svg>