<svg version="1.0" xmlns="http://www.w3.org/2000/svg" width="373" height="683" viewBox="0 0 280 512"><path d="m177 9-6 2-7 7c-5 5-8 7-12 7l-4 2 3 1 4 1-2 6c-3 5-3 9-3 14 0 3 0 3 1-1 1-3 1-3 1 2 0 10 4 18 7 17 2-1 4 2 5 5 1 2 0 3-5 6-7 5-8 6-5 10l3 2-4 5c-4 5-10 9-26 18-6 2-7 3-13 3l-15-3-5-2-14-3-15-3c-15 0-16 0-18 3l-3 6-3 6c-1 1-2 8-1 16l-1 6c0 3-1 3-3 3-5 0-15-5-20-10-3-3-4-4-5-3s2 7 6 10c3 2 2 2-4 0H6c-1 1 4 4 8 5s4 1 2 2l-4 1c-2 1 3 3 7 3 3 0 3 0 1 1l-2 1c1 2 6 2 10 0 2 0 2 0 2 3l-3 6c-4 4-5 8-2 9l3-2c1-2 14-10 18-12l3 3c4 6 13 12 20 12a366 366 0 0 0 46-32l3-3 7-4a459 459 0 0 0 22-8 168 168 0 0 1-2 37c0 2 0 2-2 2-2-1-5 2-7 7-1 3-2 4-6 5-3 0-4 1-6 5l-2 6c0 2 2 2 6 0 2 0 2 0 0 4-1 3-2 4-1 6s0 2-7 6c-15 8-26 16-24 19l14 4c2 0 1 1-4 7-4 4-13 19-13 21l6 4 6 4-4 9c-16 28-27 57-26 66l5-2a207 207 0 0 1 46-21v4c0 7 2 11 5 15 2 1 3 4 4 6l2 4c1 1 1 2-1 3l-1 5c1 3 4 4 6 2 3-1 3-1-2 7-4 9-5 14-1 21 3 6 5 7 9 6 3-1 4-2 1-6l-2-14v-10l2 3 3 4 5 7c15 21 21 42 21 75l1 16 4 1c2 0 4-1 9-5l5-6-1 3-4 15-3 11 2 10 1 10 8 2c4 0 7-3 12-14l4-10v-40a204 204 0 0 1 3-39l1-12 2-18v-8c0-8-2-17-5-27l-5-14v-36l10-3c8-3 9-3 9-5s1-3 4-5 4-3 3-6c0-3 1-4 6-6 10-6 14-13 11-20-2-2-2-4-1-5v-10l-5-5c-3-2-4-3-3-4 2-2-1-5-15-11-12-7-21-14-21-17l-3-4c-2-2-2-3-1-5 0-2 1-3 2-2l4 1c1 2 8 1 11 0l12-2c13-1 31-6 34-10 2-2 2-3 1-8-1-4-3-6-6-9l-20-25-5-5-3-2-3-4c-2-2-2-2-2-7l1-5-9-2c-7-1-15-5-18-9l-2-5c0-3 1-4 4-7l5-8c2-8 2-8 3-5 1 1 1 1 2-1l1-4 1-1 3-4c2-3 2-4 2-13-1-9-1-9 2-9l3-1-1-1-1-1-2-2c-2 0-4-2-5-5-3-5-13-14-19-16-7-2-16-2-23 0zm-10 61-1 1-1-1 1-1 1 1zm10 10 4 4 1 3c2 4-3 5-21 3-2 0-1-4 2-8l3-6 2-1 1-1c0-1 1-1 2 1l6 5zm20 83v4l-1-5c0-5 1-5 1 1zm-21 105c2 9 2 10 0 18l-1 11c0 2 1 2 6 0 1 0 3 13 3 23l2 14a227 227 0 0 1 9 55l2 13-1-1-2-3c-5-1-7-5-15-27-8-26-14-38-21-45l-7-7c-2-5-2-6 10-33a241 241 0 0 0 11-28l4 10zm-35 83-1 1h-1c0-2 1-2 2-1z"/></svg>