<svg version="1.0" xmlns="http://www.w3.org/2000/svg" width="405" height="683" viewBox="0 0 304 512"><path d="m87 14-9 8c-8 7-11 11-15 18l-2 5-4-1c-4 0-4 0-3 1 2 2 3 5 3 15 1 7 3 11 9 17l5 5-5 3c-6 4-6 5-2 5 2-1 3 0 5 1l6 5 3 2c0 1-5 5-7 5s-2 0 0 1l7 2c5 1 7 3 7 7l-2 4c-1 2-1 2 1 1s3 0 5 3c4 5 4 7 1 7-3-1-4 0-2 1l4 10 3 9-3 5c-3 4-3 6-3 11v5l-6 2c-3 0-6 2-6 3-2 2-4 12-4 17 1 4 1 4-2 4l-3-1c0-1-1-2-3-2l-7-6-8-8c-14-13-28-15-37-6-4 3-6 8-6 11v8l1 4c0 3 6 10 10 12 6 3 13 4 14 4h2c0 1-2 4-6 7-7 8-14 21-15 30-3 11-2 38 1 41l1-3c2-9 12-25 17-28l4-2v8a585 585 0 0 1 2 48c1 4 1 5 6 7l6 3 22-9c25-11 22-11 28-3l3 3-1-6c0-7 0-7 3-8 2-1 3-1 6 3l5 4-1-6c-1-5-1-5 4-7 2 0 10 4 11 6l-3 3c-4 2-4 2-3 7v5h-3c-5 0-5 1 0 3l4 4-3 4c-4 3-4 5 1 3s5-1 5 10c0 10 1 15 6 19 3 3 9 3 13 0 2-3 3-3 3-11-1-7 0-8 2-9l2-2 1 4-1 12-1 11-1 9-2 12-6 35c-1 4-3 6-4 4l-1-1v9h-3l-3-1 2 2 2 1-3 2-3 1h4l4 2-5 12a259 259 0 0 0-10 32c-6 17-5 26 1 29 5 3 9 2 13-1 5-7 7-12 8-26a151 151 0 0 1 7-38c0-3 1-3 4-2l3 2v-2c-3-2-2-3 1-3l3-1-3-1-3-1 3-4 4-3h-3c-4 1-4 0 0-9 10-20 14-30 15-38 1-4 2-6 7-11s6-7 11-19c7-17 6-16 10-14l4 2-8 13-8 14-1 10 1 9 7-7c5-5 7-7 12-20l6-14c1-1 22 10 25 14 2 1 4 4 5 7 2 4 4 5 7 5a428 428 0 0 0 21-34l-2-4-11-2c-9 0-10 0-17-3l-7-4 8-13c8-11 9-13 10-21l2-10-9 6-7 5-7 15-6 14-3-2c-2 0-3-1-3-2-1-1 3-7 8-14 7-12 8-14 10-21 2-12 2-12-7-5l-7 5-7 15-7 14h-4c-3-1-7-4-7-6l-2-4-3-4 4-7a669 669 0 0 0 11-25h5c4 2 7 3 16 4h20l12-3 3-1 4-1 3-2 3-1 9-7c6-6 7-7 7-9-1-2 0-3 1-5 4-5 3-14 0-20-4-5-10-9-17-10-5 0-5 0 1 2l3 2h-5c-9 0-20 8-22 15 0 3 1 5 4 6v-1c-5-3 0-7 7-7s12 2 13 6l5 6 3 3-4 4-5 5-3 1-9 5-2 1-4 1-12 3h-15l-9-3-3-1-4-2c-2-2-2-2 0-8l1-13 2-12 2-7c-1-3 0-3 2-3 11 0 20-21 18-39-1-14-8-27-15-27-3 0-5-1-5-4-1-3-2-3-4 0-1 4-5 4-8 1l-3-2v3c0 2 0 3-9 6-10 4-13 4-16 1l-12-1c-3 1-5 0-9-2l-5-4-3-2c-3-1-3-1-3-5v-5l-3 3-3 3-3-2c-3-3-6-9-6-11h3c3 1 4 1 3-1l4 1c3 1 7 2 9 1 7 0 12-1 12-2h6v4l2 1c0 1 4 0 5-2l1-5c1-2 1-3-2-3h-12c-10 2-16 2-21 0-4-2-4-2-3-3 1-2 2-2 4-1h2l3-1c4 0 4-1 0-3l-4-2 5-1c3-1 4-1 6 1 3 2 3 1 1-5-2-7-1-8 3-4l3 2v-2c-1-3 0-3 3-3l11-5c6-3 9-3 12-3 5 0 5 0 4-2l-2-4c-2-2-2-2 0-4 2-1 4-6 6-10s5-9 7-10l2-3h-2c-2 0-2 0-2-2 2-4 2-15 1-20l-1-4-1 3c-1 3-3 4-6 6-5 2-5 2-9 1l-9-2c-4-1-4-1-4-6l-1-7c-2-1-2-1-2 1 0 3-5 8-13 10-7 2-15 7-16 9 0 2-2 2-2 1l-2-7c-2-7-2-6-5 8-1 9-1 10-3 9l-7-2-6-1 2-10 1-11c-1-1-2 1-4 4-3 5-4 5-4 3l1-7c2-4 2-4-1-3-2 2-3 2-5-2l-2-6c0-3 0-3-2-3-4 2-1-3 4-6 2 0 3-1 3-2l-16 3-5 1-1-2c-1-2-2-2-3 1zm-7 76c0 2-2 2-7 1-3-1-3-1-1-2l6-1c2 0 3 0 2 2zm74 16c-1 0-5-2-5-4 0-1 1-1 3 1 2 1 3 3 2 3zM30 174l3 2 5 4 5 4 12 12 2 3-7 3-10 3c-5 0-12-2-13-3l-3-1c-3 0-9-8-9-13-1-7 5-15 10-15l5 1zm38 30 3 1 3 1-4 3-5 3-2-2-3-2c-1 0-1-1 1-3 1-2 5-3 7-1zm19 8h-3l4-2c1 0 1 1-1 2zm44 8c1 2 0 3-2 9a51 51 0 0 0-4 10c-1 0-3-11-4-24l-1-4 5 3 6 6zm62 110-5 11-6 10v-10l2-13 1-3 4 2 4 3z"/></svg>