<svg version="1.0" xmlns="http://www.w3.org/2000/svg" width="551" height="683" viewBox="0 0 413 512"><path d="m46 10-8 1-6 13-7 4-8 4v6l-1 7-5 4-4 3 1 17c0 16 0 17 3 22 2 2 3 6 3 8 0 6 1 8 6 11 4 3 4 3 4 9 0 5 0 6 2 6l4 2c2 2 2 2 0 8l-3 8v3l-2-2c-2-3-5-2-5 1l-1 2c-1-1-4 2-6 5-4 4-5 6-5 8 0 4 0 4 3 4s3 0 3 3c0 2 1 3 2 3l2 3c0 4 1 5 6 5s6 0 8 3c3 3 5 4 12 2 4-2 5-2 6 0 3 3 6 3 9 1l4-2 12 6 13 7 6 3c4 2 5 3 6 6l4 4 1 4c-1 2-1 3 1 3l2-2c2-5 6-5 20 3 11 6 15 7 15 4l-2-3c-1-1-1-1 3-1s5-1 15-9a494 494 0 0 0 34-32c1 0 8 12 8 15 1 4 0 5-18 11-16 5-21 8-21 12 0 2 7 12 12 17 4 4 5 5 3 7-2 1-4 0-12-3l-16-7c-7-4-8-3-5 5l2 6h-17l10 10 10 11-9 6-16 9-7 4-3-4-4-6c0-2 1-2-24-5-21-3-39-8-48-14l-4-1c-2 1-1 7 4 19 5 14 15 28 28 41 9 9 10 10 8 11l-5 8c-3 6-4 7-3 8l2 6v5l10-1c7 0 10 1 10 2h3l-2 2-9 2c-6 0-7 1-7 6 0 8 4 13 10 11 4 0 10-6 10-9l2-7c1-3 2-3 2-1l2 3 3 6c1 11 2 12 7 12l6-2 3-2 6 5 10 8 3 2 1-4 4-10 6-17 5-11h4c5-1 8-3 19-11 12-8 17-11 21-10 11 1 32 0 36-1l5-2v3c0 2-1 4-4 6a76 76 0 0 0-28 45l-8 19c-3 5-4 5-8 5l-6-1c-5-3-7-1-14 11l-4 12 2 6c1 0 1 1-1 5-3 9 2 19 10 20 4 1 8 0 9-3a285 285 0 0 1 4-12c0-3 8-15 16-25l11-15c5-8 15-20 22-28l4-5-4 9c-3 9-5 20-9 43-2 15-5 25-8 26l-3 6-5 6c-4 2-5 6-6 19l-2 18c-3 7-3 11 0 15 2 4 8 7 9 5h2c3 4 7-2 8-11l2-7 2-8 2-9c1-2 0-3-2-1v-3c0-4 1-4 3-1l3 2 2 1 3 2c3 0 3-4 0-5l-2-2-2-2-1-4v-6c-1-2 1-8 19-45 12-25 12-26 15-46a306 306 0 0 1 10-47 245 245 0 0 0 8-32l5 18a272 272 0 0 1-14 55l5 2c4 1 5 2 3 3v6c2 3 12 3 17 1 2-2 3-2 3-1 0 2-4 8-8 12-2 3-2 3-1 5s7 5 11 5h3l1-5v-5l3 6c3 5 4 7 6 6l7 7 6 7 9-30c9-36 10-55 3-76a214 214 0 0 0-33-61 303 303 0 0 1 34 12c4 0 4 0 5-3l2-3 3-1 4-2 3-1h4c6 1 20-3 22-6 2-4-1-10-6-10l-8 5c-5 4-7 5-10 5-2 0-3 0-2-1 2 0 2-1 1-3l2-7 6-18 3-12c1-2 12-5 15-5 6 1 10 6 7 9v1l3-3c3-3 3-4 3-7v-2l2 4 1 2c3-2-1-11-7-13l-3-1 4-4c4-6 7-11 7-18 0-8-3-14-9-16-2-1-1 0 1 2 3 3 3 3 3 9l-1 8-2 3-1-5c-3-10-12-16-23-16-4 0-10 2-12 4l1 1 3-2c1 0 1 1-1 3-4 4-4 6 0 3 3-3 9-3 14 0 6 3 7 7 5 14-1 2-3 4-13 8l-14 8c-3 2-3 2-6 1-3-2-3-2-2-9l-1-10-2-6-2-6c-4-8-13-12-31-16l-16-5c-7-3-8-4-15-13l-12-16c-7-8-7-9-1-7l5 3 4 2c3-1 3-6 0-6l-1-5c0-5 0-5-3-6l-4-2h4c4 0 10-3 14-8l4-5h-7c-8 0-11-1-24-9l-8-4 5-3 5-6v-7c-2 0-10 7-11 9s-1 2-3-4c-1-8-2-10-4-8-1 0-2 0-5-3-2-2-6-5-9-5-5-2-5-2-7 0l-1 5c0 3 0 3 4 4 5 0 10 3 11 7 2 3 1 3-2 3l-2-2c1-2-2-3-4-3l-1-1c-1-2-1-2-6 0-9 2-9 2-7 3v2l-3 2c-2 3-4 3-4-1 0-2 1-4 4-7l4-4-3-3-3-3-3 2c-3 3-5 7-6 12 0 3-1 4-2 3-3 0-3 4 1 9 1 3 2 4 0 3-1-2-8-2-14-2l3 4c3 3 5 4 7 4l3 1c0 3-4 8-6 8-3 0-3 2 1 3 2 0 2 1 1 4-1 5-3 9-8 14l-4 5 5 1c4 0 4 0 4 3l-1 4-2 6-2 9c0 3 0 4 2 6 1 2 3 3 3 2l-1-2c-1-1-2-6 0-6l4 4c3 2 3 3 2 5l-3 1-2 1-2 2c-2 0-3 2-4 4l-3 4-2 3c0 2-9 10-15 13l-9 2c-9 0-9-4-4-18 5-13 7-20 6-22l-6-3-4-4c0-3-5-6-12-9-7-2-10-5-10-8v-7c2-2 4-2 14-3l6-1v-4c0-7-7-10-14-5-4 2-3 1 0-2 4-3 5-4 3-4s-8 6-12 13c-3 4-4 5-5 4l-2 1-2 2-3 1h-7l-2 6-5 14c-2 9-4 20-4 32 0 10 3 22 11 37l6 12h-10l-9 1-14-8-14-8 4-1c5-1 7-4 8-10 0-3 1-6 5-10 3-2 5-5 5-6l-3-7-2-5 2-6 2-6-2-5c-3-6-3-5 2-11l2-3-2-8-4-10c0-1-7 2-9 5-2 1-2 2 1 9l3 7-3 6-3 5 4 6c4 7 4 8 1 12-2 2-2 2-1 9l2 7-4 3-4 3-1 4c-2 7-3 8-7 8-3 0-7-1-15-6a141 141 0 0 0-14-7c-1-1-1-2 1-3 2-3 3-4 1-4-3 0-4-1-2-6l2-7c3-4 2-8-1-13l-2-10v-6l-5-2c-5-2-5-2-5-6s-1-5-3-8c-4-4-5-5-4-8s1-4-1-6c-3-3-3-6 2-10 3-4 3-4 2-8-2-7-2-10 4-13 4-3 5-4 5-8 2-10 2-10 9-13 7-2 7-2 10-8l5-9c3-5 3-5-7-2zm218 73h-1v-2l1 2zm16 31 3 5-3-4-6-8-2-4 3 4 5 7zm-71-2h-1l-1-2h1l1 2zm-2 5c-2 3-2 3-2-2 0-4 0-4 2-2v4zm-11-1h-1l1-2v2zm138 26c3 1 6 5 5 7l-15-8c0-2 6-1 10 0zm-112 8 1 3h-14l4-5 4-5 2 2 3 5zM45 173c1 1-6 3-9 3l-2-3c-1-3-1-4-6-4h-5l3-3 3-2 8 4 8 5zm268-2 8 3h-3c-9 0-11-1-11-2-1-2-1-2 6-1zm39 19-7 1c-7 0-7 0-5-1 3-2 11-2 12 0zM224 291h-2v-3h2v3z"/></svg>