<svg xmlns="http://www.w3.org/2000/svg" width="429" height="683" version="1.0" viewBox="0 0 322 512"><path d="m78 12-4 10c-8 24-9 50-4 66 2 10 5 17 11 25l3 5-4 1c-10 2-27 18-48 48l-15 20c-12 12-13 15-7 19l16 2h14l5 4 13 8 7 3 1 8c1 10 4 18 8 23 2 3 3 4 6 4 5 0 10-2 18-10 8-7 8-7 12-6l7 1c4 0 4 0 4 2s-2 4-10 8l-10 8 2 4 2 6c0 6 5 12 12 14 3 0 5 2 9 6s7 6 9 6c3 1 3 1 4 8 0 10 3 22 8 39a346 346 0 0 1 9 30l5 12c2 7 2 9 1 10-4 5-3 23 1 28 4 4 4 11 1 12l-1 3c1 2 2 3 6 5 4 1 4 2 6 6 2 7 2 9-1 12-2 2-2 3-2 7 1 4 0 6-2 9-6 10 1 19 12 16 6-2 11-8 11-15 0-3 1-4 2-5 5-3 7-16 3-21-4-8-4-9-3-22l2-14 1-2 2-1c2-1 2-3 2-7l-1-6-1-7c-1-7-3-11-7-12l-7-10c-4-9-4-10-5-22v-13l3 9c5 16 7 19 16 20 4 0 6 0 12-3 7-3 8-3 12-1l9 1c5-1 5-1 3 1l-2 2 2 2c3 2 3 2 5 1l5-1c3-1 4-3 1-8-2-4-2-4 2-5l3 1c-1 1 0 3 1 5 3 5 4 5 5 9 2 5 10 6 14 1 3-4 3-10-1-16l-3-10-3-6c-2-4-9-7-13-7-5 2-7 2-8-1s-2-4-9-4l-8-1c-3-2-8-2-11 0-2 1-2 1-2-4l1-9c0-4 1-5 7-8l7-3h6l6-1c2 2 6-1 7-4 0-2 1-3 2-3 2 0 3-4 3-8-1-3-1-3-5-5-6-1-6-1-8-7l-1-5c-1-2 0-2 6-2s7 0 11-2c5-4 9-10 13-20a2316 2316 0 0 1 21-47c0-4 0-5-2-7-2-1-3-2-3-9l-1-9c-1-2-1-2 5-5 9-5 22-18 26-26 4-9 3-10-4-7-7 5-17 13-25 22-7 8-10 11-10 8l3-5c5-9 11-25 11-31 0-4 0-4-2-3a67 67 0 0 0-18 32c-2 7-3 9-4 4-1-2-2-2-4-2h-2l-1-4h-4l-2 4-3 2-3 1-3-4-3-4c-3 0-3-2-1-8l3-11c0-4 0-5 2-6l4-3 2-1-3 5c-2 3-2 3 0 3 6 0 12-9 12-17v-5h4c4 0 5 0 9-4 4-5 5-8 3-8l4-5c6-6 8-11 7-19-1-7-2-10-8-16-5-5-5-5-11-6h-10l-4 1v-5c0-6-3-12-7-14-4-3-14-2-17 1l-5 2-5 3c-2 1-4 3-6 2-4 0-8-1-10-3l-4-2-2-1c0-2-5-4-10-5-5 0-6 0-9 4-2 1-3 4-3 5l-2 4-2 5c0 6-1 7-7 7-6 1-6 1-11 8l-5 6-1-14c0-15-2-28-4-31-1-1-1-1-4 1a94 94 0 0 0-30 73v21l-10-4 1-10c3-13 2-22-1-38-5-24-17-60-20-60l-3 2zm163 38c2 1 3 5 1 5l-1-1-2-2-2-2h4zm-86 50 9 8c5 5 5 6 5 11 0 6 2 11 6 14l2 3c-5 7-7 10-7 13v2l-11-1h-28l-1-4-3-8-2-3 4-4c9-9 14-20 17-34l1-9 2 5 6 7zm25 32h-3c-2-3-1-4 2-2l1 2zm54 3-1 5c-4 7-10 11-9 5v-3c-2 0-1-3 3-5l5-3c0-1 2-1 2 1zm-43 1 7 3 4 3-1 1c0 5-8 7-11 3s-4-4-7-1l-1 2 1-2c0-3 5-10 6-10l2 1z"/></svg>