<svg version="1.0" xmlns="http://www.w3.org/2000/svg" width="357" height="683" viewBox="0 0 268 512"><path d="M227 19c-1 5-4 5-11 3s-9-2-3 0l6 4c1 2 1 2-4 2l-7 1c-3 1-3 1 2 1l5 1 2 1 2 3c0 2 4 7 6 7l1 4c0 6 2 7 3 2 0-3 1-4 2-4 3 0 5 5 5 13l1 5V52c0-11 1-12 4-9 4 4 4 5 0 5s-3 1 1 2c3 1 3 1 4 7v5l1-3 2-4v6c2 13 2 9 1-8-1-2 0-3 2-3 4 0 4-2 0-2-3-1-4-1-4-4 0-4-2-7-2-3s-1 4-4 0-4-8-1-9c1-1 1-1-1-2l-4-3c-1-2-3-4-5-4l-2-4c0-4-2-4-2 0zm-33 0-7 2h1l11-1 4-1h-9zm-17 8-3 3 4-3 4-3h-1l-4 3zm-8 8-5 8c-2 4-2 6-2 14l2 12c0 2 0 2-5 2-4-1-4-1-5-3l-1-1c0 1-9 1-15-1-5-1-8-1-26 2-7 1-11 4-11 8l-1 8c-3 9-4 18-4 24l1 6h-2c-3-1-3-1-3 2s-1 4-2 5c-4 3-12 11-12 13l-2 3c-2 2-2 2-1 3v2c-2 2-2 2-1 4v4c-1 2-1 2 1 3l4 1 1 2v2c2 1-2 6-6 9l-4 3-10 1-15 3-6 2-2 1h-7c-1-2-2-1-3 2s-8 11-10 11c-1 0-2 6-2 13 0 3 0 5 2 8s4 4 8 2l7-4 5-2-7 6-6 7 2 1c6 4 13 7 17 7l5 1h2l3-1c1 1 6-1 6-3l1-1c1 0 2-1 2-8l-1-8c-2-1 1-6 8-13l6-6 2 5c3 7 6 11 6 9l3-10c2-7 4-10 6-10s1 7-2 13a250 250 0 0 0-21 64c0 4 2 13 4 16l1 4 11 29 7 20 3 12 6 25 3 22c2 4 4 29 4 39s0 14-3 21c-1 5-3 10-5 12l-8 15c0 4 9 3 17-2 3-3 5-4 6-7 0-3 2-6 3-8l2-3v4l1 4c2 1 4-1 4-4l1-5 3-8c1-5 1-6-1-11l-4-5c-1 1-1-2-1-13l1-31c2-19 1-31-4-42-5-14-7-21-8-31l-1-36c2 6 6 17 12 28l9 21c8 19 8 21 11 25a1414 1414 0 0 0 21 65c7 20 10 31 9 38l1 7c3 4 4 13 4 25v13l4 6c3 3 5 4 7 4 3 0 3-1 6-7s3-6 2-9c-4-10-6-20-6-28-1-7-1-11-3-14-3-7-6-22-6-37-1-20-3-36-5-45-1-7-3-11-11-27l-5-10h7l-1-3-5-5c-6-3-7-7-7-33a391 391 0 0 0-1-34l7 3 6 2-2-8c-2-5-3-8-2-10l-1-3v-2c1-1 1-1-1-1-2 1-2 0-5-5l-11-17c-11-15-13-20-10-26 2-2 2-2 2 3 1 8 9 24 16 31l10 9c4 3 6 4 6 6 0 3 2 4 3 1 0-2 0-2 5 1l7 6c1 2 3 3 4 2 1 0 3 4 3 7l-2 5c-3 4-1 4 3 1s7-9 7-15v-4l4 2c4 3 4 2 1-2l-3-8-4-8-1-4c2 0 1-2-1-2l-11-4-13-5-8-4-6-10c2 0 1-2-3-3l-8-8c-4-6-5-10-3-9l11 4c9 2 11 4 17 15l4 9 2-2 4-6 2-5 16 18 2 2 1 2c0 3 3 8 3 6l2 2 6 6 4 4h2c1-2 2-2 4 0 4 4 10 2 19-5 7-5 17-17 16-19l-13-6-5-2h20v-4l-3-9-2-6c2-1 1-3-1-3l-3-1-4-1c-3 0-4-1-4-2-1-2-9-1-11 2-2 2-3 2-4 0h-3l-4 1-10-2-8-2-4-2c-3-1-9-7-9-8l2-1c2 0 2 0 1-2v-3l1-2 2-1v-2c-1-3-1-4 1-4s2 0 1-2c-2-3-3-9-2-10 2-1 1-2-1-2-1 1-2 0-3-1 0-2-2-3-3-4-2-1-2-1 0-6l2-8c0-3 0-3-2-2-2 2-2 2-5 1s-4-2-3-3c1-2 2-2 9-2l12-1c2-2 2-2-2-1h-15c-2-2 6-14 9-14v-1c-1 0-1-2 1-6l2-5 6-11 9-8 2 3c1 4 3 3 2 0 0-2 0-2 1-1l13 1-3-2-2-2h1v-1l1-2v-3l-5-5c-3-5-10-12-11-11l3 4c5 3 11 11 10 14-1 2-4 1-7-3l-3-5-6-1c-5 0-6 0-8 2l-3 3-2 4-2 3-2 3-3 4-2 2-3 2c-2 1-2 1-4-1-3-1-3-2-3-7l2-8-1-2-2 6c0 4-1 5-2 5l-2 2c0 2-2 3-4 3-1 0-3-6-3-11 0-13 10-23 25-24l7-1h-7l-15 4-8 3 3-4c3-6 3-6 0-2zm-3 47 8-1h4l-9 18-2 2-3-3-3-5-2-8-3-5h2l8 2zm0 23c-2 3-3 2-4-3v-5l3 3c2 2 2 3 1 5zm6 71c0 2-2 0-2-2v-1l2 3zm-63 93v5l-2-7v-3c1 0 2 2 2 5z"/><path d="m198 35 2 1h1l-3-1zm-11 4c-3 2-7 7-5 7l5-5 4-5-4 3zm-8 10v3l1-3h-1zm-23 7c-3 6-4 8-2 8l1-1 3-7c3-7 2-8-2 0zm71 20 1 2v-5l-1 3zm5-1c-1 2-1 2 1 1l1-3c0-2-1-1-2 2zm16 4-5 8-3 6c1 0 8-10 9-14l1-4-2 4zm-23 5-7 5-7 4c1 1 16-8 16-9h-2z"/><path d="m221 93-7 6c-3 2-5 2-9 2l-9-2c-4-3-5-2-2 0 3 3 15 6 19 6l4-1 1-1h-2c-2 0-2 0 1-4l7-10-3 4zm-23 0 3 1h1l-4-1zm29 8-2 1 8-4-6 3z"/></svg>