<svg version="1.0" xmlns="http://www.w3.org/2000/svg" width="444" height="683" viewBox="0 0 333 512"><path d="M2 4c1 4 5 11 12 19 7 9 16 23 17 28 0 4 0 4 3 3 2-1 3-1 5 1l5 2c3 0 10 7 9 9h-1c-2-2-4 0-4 4 0 6 1 6 9 6 6 0 7 1 10 3l4 8c1 4 2 5 5 5l4 3c2 1 2 1 1 2-2 1-2 1 0 4l4 5 4 4c3 1 4 2 7 9 3 9 8 13 16 16 4 2 7 3 10 6l3 4-7 2a223 223 0 0 0-20 6c-2 0-2 1 0 4 3 4 11 8 18 9l3 1-3 2c0 2 8 6 10 6 3 0 1 2-3 4-8 3-17 4-27 3-13-3-16-4-22-8l-5-3 3 3 8 6 5 3h-5l-9 1c-4 2-4 2 5 1h10l-10 2c-7 1-9 2-11 4l-2 2v-2c-1-3 2-9 5-12s3-4-1-3-7 5-8 10l-2 2-1-8c1-4 0-5-1-6-2-1-3-1-4 1l-4 5c-3 3-4 6-1 10 1 4 1 4-1 4l-4 1c-1 2-1 2 2 1 4 0 4 0 8 4l4 6c-1 3 1 5 4 6 2 0 6 2 9 5l8 4 4 1 5 1 10-2h6l-4 3c-3 4-3 4-1 4l9 2c3 2 7 3 8 2l1 1c-1 1 0 1 1 2 2 0 3 1 3 2l5 2 4 1-2 2-2 5c0 5-8 20-15 28-10 11-12 14-12 17l-1 4-1 3c1 2 1 2-2 2-4 0-9 4-6 5l4-1c1-1 1-1 0 0v7l1-1 2-1 2 1-2 1h-3c-1 1-2 2-2 5 0 4 1 5 3 8l4 3 4-3 4-3 4 4c4 5 8 7 14 7l9 4c6 5 9 5 18 3l10-2 2-2 1-3a155 155 0 0 1-2 42 601 601 0 0 1-3 69c-1 10-7 26-9 29-2 2-3 6-1 7s1 2-2 5l-3 9c0 12 3 17 12 17 3 0 4 0 7-4l5-8 1-4v-3c-1-3 0-7 2-9s1-5-1-7v-3l3-15c1-10 3-17 9-30a210 210 0 0 0 9-25c1 0 5 12 6 21 3 11 3 22 1 27-1 4-1 5-4 5-2 0-2 0-2 4 0 5-1 5-8 10-3 1-3 8-1 9s17 1 21-1c2-1 3-2 4-5s2-3 8-1l6-2 4-2v-9c0-8 0-9-2-12l-3-5-1-2c-2 1-4-3-4-10a320 320 0 0 1 4-43c0-3 0-6-2-10-2-5-3-7-1-7 3-2 0-14-4-14l-4-2-4-3c-1 0-8-22-7-23l8-1 12-2 9-3c5-1 8-2 13-5l9-7 4-3 7-4 5-2a825 825 0 0 1 49 54c3 1 4 1 4 5 2 11 16 12 15 2 0-4-3-7-9-9l-4-3c0-3-2-6-3-6s-12-11-24-25l-22-24 2-3 3-6c0-2 6-11 9-14l4-5 2-4c2 0 4 4 4 7 1 3 1 4 4 4s6-2 8-5c2-4 1-5-2-9-4-4-4-4-9-4l-6-1c0-2-3-3-5-2s-3 1-5-1c-1-2-5-3-7-1-1 1-28-12-34-17l5-6 9-12 3-5c0 3-6 14-10 19l-4 5 11-6 2-1-1 2c-2 2 2 1 9-2l5-2 4 4c3 3 3 4-1 2-5-2-3 1 2 3 2 2 5 3 8 2 5 0 6 0 10-4l6-8c1-3 2-4 3-2l4 1c3 0 4-1 4-4l-1-4-1-2v-3l2-6-1-7-1-7c0-2-1-4-3-5l-4-6-4-6-6-4c-3-3-9-6-14-6-3 0-5-1-12-8l-22-16c-14-9-25-19-22-20l1-2c-3-7-3-7-2-10 2-2 2-5 2-8 0-2 0-6 2-9V78c-3-14-11-26-23-30-4-2-8-2-14-2-8 0-10 0-16 3-14 7-23 19-25 31 0 8 2 20 6 23l2 6 2 4c3 2 3 3-2 7l-4 3-2-4-7-10-4-5-2 7-1 6-1-1c0-2-10-7-17-9l-6-3c0-1-9-11-11-11l-1-1c0-3-3-3-4-2-2 1-2 1-3-2l-2-5-4-5-4-7-1-2-1-9c-1-7-3-14-5-14l-1-2c-1-3-2-4-3-2s-4 1-4 0c0-3-4-4-7-3-4 2-8-1-26-19C19 12 10 4 7 3L2 0v4zm67 47c0 3 0 3-1 2l-2-5c0-3 2-1 3 3zm-11 6c2 2 2 2 3 1s1-1 2 1v3c-1 1-2 0-5-3-3-4-3-6 0-2zm9 10 1 3-2-3c-2-1-3-3-2-4 0-2 1 0 3 4zm180 82-5-3-7-5c0-2 10 5 12 8zm34 31 5 4 4 4 6 6c2 1 2 2 1 3l-1 5c0 4-1 5-6 4-4 0-4 0-5-7l-5-14-3-8 4 4zM76 191l-3 1 2 2 6 5 4 3 8-3 11-4c3-1 3-1-1 1l-14 8c-2 2-3 4-1 4l5 3 3 2-3 2c-3 2-5 2-6 1l-4-1-4-2-3-2c-2 0-3-3-2-3l1-3c0-2-5-4-8-3-2 1-2 1-2-3 0-7 2-9 9-9 5 0 5 0 2 1zm124 9c3 2 3 3 1 9l-2 3-3-2-3-5h6l-2-2c-2-1-3-2-2-3 0-2 0-2 5 0zm77 5c0 3-2 7-4 9-2 3-2 3-2 1l2-6c0-3 4-10 5-10l-1 6zm-205 0c0 2-2 3-4 2l-1-2h5zm211 7c-1 5-3 7-6 8l-2 1 2-3 5-7c2-5 2-4 1 1zm-160-4-3 2h-1l4-2zm169 4c0 2-1 2-2 2-2 0-3 0-3-2s0-2 2-2l3 2zm-179 2c-4 3-5 3-2 0l4-2-2 2zm162 4c-5 4-5 4-2 4 2 0 2 0-1 1l-4 1c0-1 9-11 10-10l-3 4zm10 0c-3 1-4 1-2-2 1-1 2-2 3-1s1 2-1 3zm17 2c1 2 0 2-2 2s-3-2-2-4c2-1 4 0 4 2zm-27 35v1l-2-1 1-1 1 1zm51 107c0 3-2 4-5 2-2-1-3-3-1-3l2-1c0-2 3 0 4 2z"/></svg>