<svg xmlns="http://www.w3.org/2000/svg" width="439" height="683" version="1.0" viewBox="0 0 329 512"><path d="M195 11c-1 3-1 3 4 2 4-1 8 1 10 4s1 3-2 1c-4-2-15-3-21-1-5 1-11 7-15 14-4 6-5 7-12 8l-5 1 4 2 4 2-3 2-4 1 3 3 6 3c3 0 3 0 2 1-2 2-1 3 1 2l2 1 2 1c3-2 4 5 1 8-1 2-1 2 1 2s3 0 2 1l2 1-1 1c-2 2-2 2-9 1l-8-1-2 4c-2 12-33 17-59 9l-6-1 14 5 19 6c7 3 11 4 15 1l4-1c1 1-9 11-16 15l-6 4-15 1a165 165 0 0 0-27 3c-5 1-11 4-12 6 0 1 4 2 15 3 11 0 29 4 30 6 0 3-1 4-4 3-4-2-25-5-32-5-18 2-35 6-35 9 0 2-4 3-9 3-3 0-4 0-5 4-4 8-5 7 5 7h9l2-4c2-3 2-3 7-3 4 0 6 0 9-2a51 51 0 0 1 48-5l-1 4c-2 4-2 4 0 4s-8 7-15 10c-2 2-16 7-31 11-27 9-47 18-49 21l-4 11c-2 8-2 9-1 10l2 4 3 11 3 11c0 2 1 3 2 3 1-1 1 0 2 1l9 14 1-4a175 175 0 0 1 81-91l15-9 10-6c1-1 1-1 0 0l-1 2-3 3c-1 2-4 6-9 9l-23 17c-19 15-33 28-40 39l-5 8v20l-10 15c-12 18-18 30-18 34 0 5 4 17 5 16l4-10c3-10 13-30 16-32 2-2 1 1-4 10-8 15-16 36-15 42 1 5 8 21 8 19l2-7a175 175 0 0 1 14-41h1c1-1 1 2-1 7-4 9-10 29-12 41-2 10-1 13 6 23l13 17-1-15c-2-22 0-39 8-63l3-11 5 9 5 14c0 6 1 7 3 5 1-2 2-1 8 11 3 8 6 12 6 11l1-24a236 236 0 0 1 11-72l14-29 1 4c0 6 3 11 6 10l3 3 3 2h2c1 2 3 0 3-3l1-2c1 1 1 0 1-10v-8l3 4c3 3 6 4 6 2l-5-10-2-4-2-2c-4 0-5-4-2-14l3-7c1-2 2 2 1 4l1 4c1 1 3 0 10-7 7-8 8-8 9-7 1 3 6 5 12 7s6 4 3 12l-2 8c0 3-8 17-11 20l-8 4-6 4c0 2-5 7-7 7-1 0-2 1-2 3-1 2-3 4-10 7-12 8-13 9-14 14v4l4-1c5-1 5-1 12-9l7-10c1-1 6-3 6-1l-1 4c-3 6-2 6 5-1l11-9c5-2 4 0-5 7-9 6-10 9-10 17-1 6-1 7-7 15s-6 8-5 12c0 4 1 5 5 3 2-1 3-3 6-10l2-9 2 6 3 10 3 9 6 10 4 7 2 1 1-7c0-6 2-18 4-23 1-4 2 21 1 31l-3 15-5 16c-3 8-4 10-5 9l-5-1c-3 0-4 1-2 6 2 4 4 17 4 22 0 4 1 6 2 7l4 10a1277 1277 0 0 0 2 20l-4 3c-3 3-11 7-13 7l-2 2-2 4c-4 3-4 8-1 14 2 3 3 5 8 7l6 3v6c0 5 0 6 4 10s5 6 1 8v3l2 6 2 4 5 1 10 1c5 1 5 1 5-1-1-2 2-2 3 0 1 3 3 4 15 6 6 1 6 1 10-1 3-3 8-9 8-11l-5 1c-4 1-6 0-11-5s-12-19-12-23l-1-9-1-20v-15l6-9c11-17 15-21 18-21 3-1 4-2 5-4 1-3 10-9 16-12 3-1 3-2 3-4-1-2 0-3 1-4 2-1 2-2 2-5s-1-4-3-4l-3-1 7-11 4-8c2-3 1-29-1-52 0-11 0-11 2-13l3-9 2-10 2-3 3 8 4 12c0 2 1 3 4 4l7 2 7 3 6 3c0-1-5-21-8-27-2-4-3-6-2-7l1-5c-2-8-5-13-13-22-6-6-8-8-8-10l-1-4-1-3c0-5-3-10-6-11-7-3-7-3-7-7 0-6-1-10-3-11-3-1-5-3-5-5l-3-8c-2-4-3-9-3-14l-2-9 4 1 13 7 9 5 11-4a111 111 0 0 0 29-14l8-5 6-6c3-4 6-4 5-1-2 4-2 4 0 4s4-4 5-9c0-5 0-5-3-9-3-3-4-3-3-5 2-3 1-3-5-1l-8 5-7 6c-4 2-4 2-6 1-1-2-6-3-6-2l2 5 3 6-11 1-15 2c-6 2-8 1-13-5-8-9-16-17-20-19-3-1-5-3-6-5-1-3-1-4 2-6l2-3-2-1c-2 0-2-1-2-2 2-5 2-8 1-8l-4 1-4 1v-3l1-9c0-5 0-6 2-5l2-1h2c2 0 2 0 1-2-3-2-2-4 0-3 2 0 2 0 0-3s-2-4-1-5c3-3-1-16-6-21l-3-6c0-2-1-3-5-6s-5-3-9-3c-4 1-5 1-5-1V8l-1 3zm27 24 2 6-1-2-3-6-1-4 3 6zm-7 39c0 2 0 3-3 3-7 2-7 1-3-5l3-5 2 2 1 5zm-14 3v1l-3-1-1-1c0-1 1-1 4 1zm111 28-2 1-1-1 2-1 1 1zm-124 60c2 3 3 7 1 7l-5-7c-1-4-1-4 1-3l3 3zm68 36-2-2c-1-2-1-2 1-1l1 3zm-117 22h-1l-1-3c0-2 2 2 2 3zm129 3 8 8v3c0 2-2 0-6-5-6-6-7-8-4-6h2zm-17 6 4 7-4 10-2-10-2-11c-1-2 1-1 4 4zm-32 53c4 9 7 21 8 26v12l-2 3-3 4-6 5-3 3-1-3c-1-3-3-4-4-2l-4 1c-2 0-3-1-2-2a347 347 0 0 0 12-64l5 17zm-18 57c-1 1-1 0-1-1s0-2 1-1v2z"/></svg>