<svg version="1.0" xmlns="http://www.w3.org/2000/svg" width="467" height="683" viewBox="0 0 350 512"><path d="m157 4 2 8c3 7 3 8 0 6l-3-2-3-2c-2-2-14-9-19-10l-5-1-2 1a49 49 0 0 0 13 17c6 6 12 11 19 15l9 4a394 394 0 0 1-65-23l-7-2-5-4c-4-3-5-4-12-2-4 1-5 2-2 7l1 7c-1 3 2 7 6 7 3 0 5 3 3 6-1 4 3 6 7 5l4 1c0 1 1 2 3 2s2 0 1 3l-1 5v2l2 3h1l2-1 2-2 2-3v-2l1-2 1-3v-1c2 0 2-2 0-3l-1-2c2-3 23 1 32 5 6 3 14 11 17 15 1 3 4 5 6 6 5 2 7 5 7 13v21l-2-2c-3-4-7-4-10-1-1 3-1 3 2 9s3 7 2 9l-3 5c-2 11-2 11 0 13 1 1 3 2 3 4l3 2c4 0 6 4 5 7-2 3-9 7-10 5-1-3-5-6-10-7-6-2-7-3-5-7v-3l-2-11c0-7-1-9-3-13l-4-5-2-2-12-12-5-2c-4-3-5-3-10-2l-6 2c-7 6-9 7-15 8-1 0-6 8-6 10l-3 7-4 10-2 12-3 7 2-3 1-3 2 3c4 6 4 8 1 12l-5 4-3 2c-2 2-3 3-3 0 0-1-1-1-2 1-2 3-3 3-4 2h-3l-3-1-6-2-7-2-6-4c-3 0-9 1-12 4l-3 2h5l-2 3c-3 5-4 8-1 12l3 2v-2l1-3 2-1c0-4 3-6 8-7h7l6 3 9 4-1 2h-7c-5-1-6-1-10 1-7 4-10 8-11 14l-1 5h-4c-6 0-12 3-12 6h1v3l-1 6c0 3 0 3 2 2l4-2h1l2-2c5-9 9-10 13-4l7 6 4 2h-9c-4-1-5 0-3 1l1 2h-4c-4-2-4 0 0 4 3 2 5 3 8 3 4 0 4 0 3 2l-1 7c-1 8 5 15 14 15 3 0 3 0 1-2h2c3 0 8 4 8 6l-2 4c-2 2-1 3 3 3 4-1 9-3 10-5 1-3 4 1 13 12 8 10 9 13 5 13l-3 5c0 3-3 7-5 10l-3 6 9-5c3-3 4-3 4-2 0 3-2 5-16 12-23 11-40 24-47 34-2 3-2 5-2 9 1 5 3 10 6 14l3 6c1 4 3 6 4 5l1-2c0-3 3-2 18 5l16 7c2 0 4 1 4 3l18 9c4 1 7 2 9 5 4 4 8 11 10 17 1 5 5 11 6 11l3-2h4l4 2c3 1 4 0 7-2l11-18c4-7 5-8 6-6l1 2c2 0 12 11 14 16l2 5h4c6-1 6-1 6-7 1-5 0-11-3-26l-2-11 12 10 23 21 10 8 6 5 6 5c11 13 21 26 25 33l5 7v10c-1 12 0 14 4 5l1 3c0 6 1 8 2 6 2-2 3-1 5 6 3 7 4 10 7 10 4 0 10-4 18-11l7-6 5 7 7 11c0 4 3 6 8 6 4 0 4-1 5-16a3617 3617 0 0 1 3-40l-6-3-5-1v-4l-2-9c-2-3-3-4-6-5s-4-2-4-4-1-2-10-5c-10-3-11-3-9-5s2-2-8-7l-16-10a158 158 0 0 0-16-13l6 3c6 3 6 3 12 2l6-2c1-1-9-6-16-8l-26-4-6-3-7-3c-3 0-10-5-14-10-4-4-4-5-1-5 2-1 2-1 2-7s0-7-4-13l-4-7 7-5 12-10 11-9 6-5-3-3c-6-2-6-3-5-6l2-4c1-1 2-3 4-3 3-2 4-2 4-7l6-26c2-2 2-5 0-6l-6 1c-4 1-4 1-6-1-3-5-13-15-15-15l-3-2c-2-1-2-2-1-3 1-2 0-3-2-7-3-4-3-5-2-7l13-13v6l2-3c2-2 2-4 2-11 0-8 0-9-2-13-4-6-4-7-1-5l3 1 1-1 3 4c2 3 2 3 2 1 1-1 0-4-1-6-2-6-6-10-15-13l-5-1h7c6 1 9 0 12-1a367 367 0 0 0 8-5c-2-2-15-1-19 0l-7 2c-4 1-4 1-4-1 0-6-4-12-9-15-3-2-3-2-2-3 2-2 1-2-1-5l-5-6c-2-4-2-4-1-5 2 0 2-2 0-6s-2-5-1-10c1-8 1-14-2-20l-3-7c0-2 4-2 8 0h8c3-2 4-5 1-7l-6-7c-8-11-11-14-18-16-8-2-8-3-7-13l-1-10-3-7c-1-3-8-10-14-13l-3-2v3zm43 148 2 3c1 2 1 2-6 2-1 0-3-4-2-5h6zm-37 59c5 2 7 7 5 10l-3 3-1 1h9l3 5 4 3 10-1 11-1c2-1 2-1 2 1 0 3 4 6 7 6 1-1 3 0 5 3l3 6 3 6c3 4 4 5 2 5l-20 2c-25 2-24 2-29-3l-6-8-4-5c-1 1-3 0-3-1h-7l-5 1c-3 2-3 2-10-1l-9-6c-2-3-3-9-1-10l2-4c0-2 0-3 4-2h3l-2-2-1-3 3 1c7 1 9 5 5 9l-2 3 3-1c4-1 7-5 8-8s3-4 3-2c0 3 3-3 3-6 0-4 1-4 5-1zm28 3-1 1 2-4-1 3zm36 52c0 2-2 4-6 8l-6 7c0 4-2 4-8 1l-6-4 1-3c2-3 3-3 6-3 4 0 6-1 11-5 3-3 7-5 7-4l1 3zm-109 75c1 3 1 4-1 4l-3-1c-2-1-2-2 0-8l2-5 1 3 1 7zm32-1c2 2 2 3 1 4l-16 5h-3l3-3 6-7c3-4 4-3 9 1zm-57 40v1l-1-1v-1l1 1z"/><path d="M98 71v1l1-3-1 2zm-3 6-1 4 2-3 1-4-2 3zm-2 7v1l1-3-1 2zm-3 6-1 4 2-3 1-4-2 3zm-22 58-2 6 3-6 2-6-3 6z"/></svg>