<svg version="1.0" xmlns="http://www.w3.org/2000/svg" width="327" height="683" viewBox="0 0 245 512"><path d="M176 2c-6 0-20 4-20 5l7 16 7 14-2 3c-2 2-3 2-10 2l-13 1c-21 6-40 1-47-12l-3-5 3-1c3 0 7 3 7 6l1 1V21c-3-2-9-2-12 0-4 3-6 7-4 13l2 4-4-2c-5-3-13-12-13-15l3-5c3-4 1-4-3-1-3 2-3 7-1 15 3 7 6 11 11 15 4 3 19 8 27 10l4 1h-6c-12 0-28-6-33-13l-6-10c-4-8-5-5 0 4 7 15 23 24 43 23l27-4c9-2 24 1 25 5 2 4-6 29-9 29l-3-1-3-5c-3-4-5-5-7-3 0 1-2 1-5-1-2-2-2-2-1-4l1-3-17 4h-3c0-2-7-4-8-3l3 6 3 8c0 2 0 2-6-3-7-5-8-5-11 3l-2 5 2 3 5 2-1 5-2 7-3 12c-1 7-1 7 1 9 1 0 1 1 0 0l-2 2c0 3 0 5 3 5l-3 3c-3 2-5 5-5 6l-2 3c-1 1-1 1 1 3 1 2 4 4 7 5 7 2 8 3 4 6l-4 3-2 4c0 4-1 4-6 6-4 2-6 3-7 6l-3 4-10 2-11 1v11c0 10 1 14 6 19l2 3-8 6c-6 5-8 6-11 5-2 0-3 0-4 2l-3 2c-4 0-15 4-18 6-2 2-2 2-1 3l4-1c3-2 4-1 1 3-3 5-3 8 1 4 2-1 2-1 1 1 0 2 0 2 2 2h4l2-5c2-3 3-4 7-4l8-3c2-1 4-2 5-1l5-2c2-2 3-2 3-1 0 3 4 5 7 5h4l-2 3-15 10c-19 9-35 20-51 35l-5 5 3 4 3 4-4 5c-5 5-5 7-5 17 1 12 8 29 16 41 3 4 4 7 4 12 2 16 5 23 11 24h8c4-1 9-6 8-7l-8-6c-8-6-13-11-13-14l-2-3c-3-3 3-17 14-33l8-10 4 2c2 2 5 4 8 4 4 2 5 2 6 1 0-2 2-1 9 1 5 2 13 4 18 4l9 1 3 9 4 16a436 436 0 0 1 10 31l4 10v19a246 246 0 0 1-6 51l-4 4c-2 4-2 7 1 11l2 6c0 7 4 10 11 8 4-1 8-6 8-10l2-6v-5c0-2 0-3 2-3 4-1 7-6 9-12l2-4 4-4c2-5 1-10-4-16-4-6-6-11-4-14 1-1 1-4-1-4-3 0-3-8-2-16 3-10 3-30 2-40s1-30 3-31l1-2 3-1c5 0 18-3 23-5 4-1 5-2 5-4 0-3 3-3 5 0l8 26c2 10 3 28 1 28l-3 2c-2 4-19 11-27 11-3 0-4 0-2 3l5 1h3l-3 1-3 1c-2 1 1 6 6 10 5 5 5 5 14-4l10-15 3-8 9-4c20-10 35-27 38-42 1-5 1-6-1-12l-17-29-8-13c-2-5-3-6-17-15-29-20-36-25-35-28 2-2 16 3 20 6l3 2 7 10 1 3 1 3 4-2 5-5 2-3-3-3c-3-4-9-7-12-7l-3-2-2-1-5-1-8-3-4-1 5-6c5-7 9-13 9-15 0-1-2-3-5-4l-5-2v-16c0-19 0-20-6-19l-10 5-6 2-4-1c-2 0-2-1 6-15l7-15 15-16c16-16 22-24 23-28 1-2 0-11-1-11l-11 7c-10 8-10 8-15 4-2-2-2-2-1-7s2-5 6-7c10-5 18-15 18-23 0-6-4-15-9-20l-5-5 3-5 2-7c0-2 2-4 12-12l12-10-7-7-5-3-18-5-5 1zM95 30l3 5c3 5 2 5-3 0-4-3-5-6-3-8 2-1 3 0 3 3zm77 0v3l-1-2-1-3c2-1 2-1 2 2zm13 2-2 3 2-5v2zm-3 38c2 6 1 8-2 12l-3 3 1-8V67c0-2 2-1 3 3zm-30 31h-2l-4-2h2l4 2zm0 5c0 2 0 2-1 0-2-2-2-3-1-3l2 3zm-51 21h-1l1-2v2zm1 8-1 1-1-1 1-1 1 1zm44 60-5 5v-1c0-2 6-9 8-9l-3 5zm-59 37h-2v-1l2 1z"/></svg>