<svg version="1.0" xmlns="http://www.w3.org/2000/svg" width="323" height="683" viewBox="0 0 242 512"><path d="M116 13v2c2 2-1 2-6 0-2-2-6-3-7-3h-3l3 2 5 5v5c-2 1-2 1-7-2-10-6-19-6-30-1-10 5-14 10-19 27-3 8-5 9-11 6l-4-2-2 4c-3 4-3 8 1 10 2 1 3 2 2 5 0 5-1 7-4 8-4 2-6 4-4 6s6 1 9-4c3-7 4-11 3-12-2-1 4-10 7-10 2 0 1 2-2 4l-2 1h2c3-1 3-1 4 3l2 3v-4c0-5 1-8 3-8l2 5c0 4 0 5-4 10-6 9-8 12-10 18-1 5-1 5 1 7s2 2 1 6c-1 3-2 5-4 6-5 2-7 5-7 9s0 5-6 9l-7 5 2 3c2 1 2 1-3 7-3 2-5 5-5 6 1 0 0 2-2 3l-3 1 7 16 6 12 2 6-3 6-3 5-2-2c-2-4-3-3-3 1 0 5 2 9 5 9 2 0 2 0 1 3-3 12-3 18-3 30l-1 13c-1 0 0 9 2 11 1 1 0 2-3 7-4 9-4 12 2 13 3 1 3 2 3 5 0 4 1 6 4 6 1 0 2 2 3 7l5 25 2 11a307 307 0 0 1-12 126c-1 4-6 10-15 17-3 2-3 3-2 4 2 2 16 2 24-1l6-2 3-6c2-5 7-12 9-11l1 8c0 6 1 8 2 8s2-2 3-8l2-14c1-6 1-6-2-12-6-11-5-14 4-50l6-23 1-16c0-11 0-14-2-22-2-7-3-12-3-20l1-10 5 5c5 6 20 19 26 23l4 4 3 1 3 4c2 5 7 15 11 19l3 3-3 9c-2 10-7 21-11 29l-3 5 2 21 2 21-2 14a1389 1389 0 0 1-1 19c6-2 26-20 30-26l5-22 3-21c1-2 3 9 4 17 0 4 1 11 3 14a157 157 0 0 1 1 40c-1 8 0 10 6 14 5 4 6 4 8 2l6-5c5-5 5-8 2-17-4-9-6-22-6-31 1-6 0-10-1-15-4-14-6-26-10-69l-1-18 7-33 7-34 13 13c4 5 8 7 13 8 4 1 26 16 29 20 2 3 1 18-3 30l-2 10 2-3c2-3 2-3 0 3-1 4 9 9 12 6l1-12-3-17-2-16c-2-22-19-50-44-73-9-9-10-9-10-13 0-3 1-5 3-7 2-1 3-4 3-5l1-5c0-2 1-3 4-3 10-2 22-11 28-22 2-5 3-6 6-7 9-3 12-9 10-22-3-18-9-29-22-43l-5-7c1-2-2-6-4-7-3-1-5-5-5-9 0-3 1-2 15 4a49 49 0 0 1 30 39c0 7 1 6 3-1 0-6-2-18-5-24-3-5-11-14-17-18-4-3-10-5-17-6-2-1-3-1-3-6l-1-6-2-4-3-2-5-3c-3-4-5-4-8 1l-5 5c-3 1-7 8-6 10 2 4 1 4-4 3-4-2-17-10-25-18-4-3-5-4-5-9 0-3-1-6-3-7l-5-8-4-5 2-1c4-1 6-4 7-8v-3l-2 3c-4 4-5 4-4 0 1-2 3-3 12-7l12-6 3-1c1 1 5-1 5-2l-5-3c-6-1-7 0-8 3l-9 5c-8 3-10 4-10 2l14-8 2-2c2-2 0-3-5-3-3 0-4 0-5 2 0 2-8 8-9 7l4-4 3-4c-1-2-9-1-10 1zm50 79c2 0 3 2 1 2l-3-1c-1-2 0-2 2-1zm22 12-1 2c-2 0-3-2-2-3 0-1 2-1 3 1zm29 48 5 14c1 4 1 6-1 9-2 4-7 9-9 9l-1-5-1-9c-2-4-2-5-1-10l1-13c-1-8-1-8 1-7l5 12zm-37-1 6 11c1 4 1 4-1 6l-4 2h-2c-2 0-2-1-1-4 0-4-1-17-3-20-1-4 1-2 5 5zm-136 1-1 4c-1 2-1 1-1-2l1-5 1 3zm-6 12v8l-1 2-1-9c-1-9 0-9 2-1zm92 11 11 2c2 0 3 0 2 4l-2 6c-2 2-2 2 0 11v20l-7-4-17-14 7-2 9-3c2-1 2-1-4-1-7 0-12-1-20-4-4-2-5-3-8-8-4-5-4-6-3-6l1 2c1 2 1 2 4 2 5-1 12 1 14 3s7 3 9 1l6-1c10 0 12-2 4-3-5 0-8-1-9-2l-6-3c-4-1-5-3-2-2l11 2zm59 12c-1 9-6 20-10 22l-3 1 1-5c2-5 3-19 1-19l-2 1-4 3-3 1 3-5 3-7h12c3-3 3-1 2 8zm-61 66c6 3 7 4 7 5l-2 9v6h-5l-5-1-2-6c-2-7-3-17-1-17l8 4zm1 43-1 2h-1l-1-2 1-2 2 2zm-30 17 5 12 4 8 6 14-5-4c-5-3-6-6-7-9l-3-4c-2 0-8-20-8-26v-4l2 3 6 10z"/></svg>