<svg version="1.0" xmlns="http://www.w3.org/2000/svg" width="365" height="683" viewBox="0 0 274 512"><path d="M137 8c-3 0-7 2-8 3l-5 1c-3-1-5 0-6 3 0 1-1 2-3 2-5 0-13 6-18 13l-2 3 4-2 3-1-9 17c-2 2-1 2 3 0 3-1 3-1 3 1-2 3-2 13-2 17 1 3 1 3 3 1 1-2 1-2 3 5 2 6 2 6 3 4 0-3 1-3 2-2v4c-1 3-1 3 1 4l4-1v3c-1 1-1 1 1 1l3 1c-1 1 0 2 2 2l3 2-6 3-6 6-7 7-7 5c-4 4-6 6-8 6-3 0-3-1-3-3s-1-4-3-5c-4-4-5-4-5 1 0 4 0 4-2 3-2-2-2-2-5-1l-4 2-1-3c-1-5 2-12 7-14 2 0 3-2 3-3l1-2c1-1 2-8 1-13 0-4-1-5-5-6-5-2-5-2-6-6s-4-8-6-8v4c0 5-3 22-5 22l-1-1-7-8c-2 0-1 12 0 13 2 1 1 2-2 5s-3 3-1 4l4-1c3-1 3 0 0 7-2 7-2 12 1 14l1 5c0 9 3 24 7 31l4 8c2 0 7-2 12-6l7-3c2 0 4-1 5-3 2-3 11-10 12-10s-2 13-5 18l-4 9-3 7-2 4c1 1 2 0 3-1a110 110 0 0 0 13-35v13c0 13 0 14-2 19l-3 8-3 1c-2 0-3 1-4 4-1 2-2 3-3 2-4-1-5-1-7 1-2 4-3 10-2 13 0 2 1 3 3 3l4 1-11 29-8 18a835 835 0 0 1-28 57l-7 18-9 24-7 17-2 7 3 3c3 2 4 2 4 0a387 387 0 0 1 27-70l11-26 2 1c2 1 3 2 2 3-2 11-2 12 0 15s2 4 1 9c-1 6 0 7 3 8 2 1 2 1 2 12l-3 22-2 17c0 5 0 6-3 7-4 2-4 3-3 8 2 4 2 5 0 6l-2 24c-1 18-1 21-3 24l-2 5c0 3-7 12-11 15l-4 4-6 5c-4 2-5 4-7 7-3 10 0 13 13 13 6 0 7 0 11-3l7-4 3-4 3-2c3 0 10-3 12-6 1-1 2-5 2-13 0-17 0-17 6-34 4-13 6-15 8-17 3-2 3-2 4-8 0-10 1-14 2-17s0-5-2-5l1-9 2-18 1-16 1-6h7c7 0 7 0 8-2 0-8 3-15 5-17 1-3 2-4 1-7-1-4 0-19 3-34l1-10 2 6 4 15c3 7 4 12 5 18 1 9 2 12 6 12l1 1 2 3 3 9 2 6 5 1h4l3 8 6 13 8 16 10 19 5 10-2 2-3 3 3 4c2 2 3 3 2 4l-3 1c-1 2-1 2 1 7l3 9c0 3 1 4 3 7 4 3 10 16 11 23l1 6 1 29v11c3 4 17 5 23 2 3-1 4-2 4-6 1-4 0-5-4-24-5-16-5-19-5-34l-1-28c0-7-1-8-3-9-2 0-2-1-2-7l1-6h-4c-4 0-4 0-4-3-4-21-4-23-12-34-3-5-7-12-9-19-4-10-4-10-2-12l3-2 3-3 1-10-2-8c-1-1 0-3 4-5l5-6c0-2-10-21-18-33-3-6-3-9 0-5l16 23a433 433 0 0 1 29 51 373 373 0 0 1 35 65l3-3 2-3-10-20a1661 1661 0 0 0-33-59l-29-42c-9-12-10-15-9-18l-2-8c-1-5-2-8-1-10l-1-3-4-6-3-6 3-5c3-4 4-5 7-6 5-1 7-2 7-5 0-2 2-4 6-8 7-5 11-11 11-15a1899 1899 0 0 1-22-45l-6-12-7-4c-7-3-8-4-11-8-3-7-10-14-12-14l-1-1 2-1 3 2 1-2c-2-4-2-5 2-5s5 0 5-3l3-3c2-2 2-2 1-3l-1-2h2l3-4c2-5 1-4 4-3h3a194 194 0 0 0-8-16c-1-4-1-4 1-6l2-3h-2c-3 4-5 2-2-2 2-3 3-8 1-10h-1c0 1-2 1-7-1l-3-1 2-2 3-1-4-1-9-2-5-3 5-3 5-4h-6l-11 2zm28 20c-1 3-3 3-4 2-3-2-2-3 1-3l3-1v2zm-92 97c2 0 2 0 0 1l-3 2c0 2-2 0-2-2-1-2 0-2 1-1h4zm97 17a131 131 0 0 0 13 19l2 3-3 4-8 8-7 8c-2 3-2 4-7 4s-5 0-5-3l-3-5c-2-2-3-3-2-10 2-8 3-12 5-11h1l4 2c3 4 6 5 10 5 2 0 3 1-2-15l-3-17 5 8z"/></svg>