<svg version="1.0" xmlns="http://www.w3.org/2000/svg" width="341" height="683" viewBox="0 0 256 512"><path d="m61 12-2 9-4 10c-2 2-3 7-4 11l-3 8-12 15a97 97 0 0 0-21 27l1 6c1 2 1 3-2 7-8 10-9 25-2 33 3 3 10 6 21 7l8 1-7 8c-8 9-14 16-14 19s6 13 9 16l5 4c3 3 4 5 1 6-2 1-8 13-8 16 1 2-1 7-4 9-2 1-2 2-2 12l2 21 1 13v6l3 9 4 50c0 17 2 20 15 27 6 3 7 4 6 6 0 2 1 3 6 9l10 13 6 6a745 745 0 0 0 15 34l6 14v14c-1 16 0 19 5 23l4 10c2 10 3 12 7 14 5 2 9 3 18 1 8-2 9-2 4-11l-6-10a239 239 0 0 1-19-58l-6-30c-1-7-2-8 0-9l1-7 2-16c3-11 3-11 1-13-2-1-2-1 0-4l4-8 3-4 1 18v9l-3 3c-4 3-4 6-2 15l2 17c0 13 1 15 7 20 5 5 8 5 12 0 4-4 4-5 0-19-3-12-3-29 0-38 2-9 5-14 7-14l2-1c0-1 18-19 20-19l18 13c17 13 22 15 32 17h6l2-7 10-22c9-17 17-36 20-47 3-9 3-9-13-9h-13l-25 8-36 11-10 1-3-3a223 223 0 0 0-13-14l13-6c22-8 24-11 32-34 4-11 4-11 9-15 5-3 6-3 16-4l21-5c0-1-8-4-15-5-6-1-7-1-21 2-16 4-32 11-40 16l-19 10c-15 7-17 8-27 6-4 0-6-1-7-3l-2-3 10-1c9 0 10 0 12-2l4-2c3 0 11-4 14-7s6-9 6-12l-5-3c-3-2-5-2-6-1l-4 1-2 1h-1l-8-5c-7-4-14-6-15-3l-1 1-4 3-2 3-1-7c-1-9 2-16 9-25 6-8 6-8 6-14v-7c1-1 0-6-2-8l-1-4-3-5-3-3 6-1 9-5c4-2 4-2 5 0 2 1 2 1 2-2l3-4c2 0 4-2 6-4 3-2 4-3 5-2 2 2 3 1 2-2s-1-3 2-2c5 2 5 1 2-3-3-5-3-7 0-6h3l-2-4-3-9c-1-5-5-13-8-17l-5-4c-3-3-4-4-4-7 0-6 4-7 8-2l2 2v-2c0-7-12-8-15-1v3h-8c-8 0-9 0-15 2-7 3-10 4-14 2l-4-2c-1 0 1 6 3 8l1 2-3-1c-1-2-2-1-1 1v2H64c-2-1-2-1-1 1l3 4 3 4c3 1 3 1 2 3l-4 3c-5 2-4 3 0 3 3 0 3 0 1 2-1 1-1 1 1 1 4-1 4 2 1 5-2 2-2 2-4 1l-6-1c-5 0-14-4-16-8l-3-4 3-7c4-9 8-15 14-24l7-12 3-5 2-3c1-3-3-10-5-10-2 1-2 0 0-5 1-8 1-14-1-15l-3 3zm14 97 2 5-4-4c-4-5-4-5 0-6 1 0 2 2 2 5z"/></svg>