<svg version="1.0" xmlns="http://www.w3.org/2000/svg" width="456" height="683" viewBox="0 0 342 512"><path d="M190 30c-11 2-14 3-18 7l-4 4-6-2c-13-5-31-3-40 2-4 3-4 3-8 1l-8-1c-7 0-15 4-20 11-4 6-4 10-1 18l3 7-3 6c-2 5-3 7-3 15l1 12v3c-3-1-3 1-1 3 3 2 2 3-1 3s-8 3-10 7-3 4-6 4l-4-1-5-1c-3 1-6 0-11-3-7-3-7-3-11-13l-7-10c-2-2-3 0-1 2 3 3 3 4 1 2l-5-3-4 1c-2 0-6 8-6 12 0 5 5 11 15 16 4 2 7 2 14 3h15l8-1 7-1c11 2 16 1 19-6l2-3 5 4 6 7c5 5 6 7 4 10-1 2-2 2-4 2-3-1-2 1 1 2 3 2 4 2 8 1l7-3c2 0 2 0 3 2 0 3-1 6-4 6-4 1-4 4-1 3h4l-4 1-5 5-2 3-3-3c-5-4-7-3-8 5-2 7-3 8-4 6l-4-1c-3 0-4 0-5 2l-3 5c-2 1-2 3-2 4 1 2 0 2-6 3-4 1-5 3-3 7 3 2 2 3-2 3-6 0-14 2-16 4l-2 7c-1 6-1 6-4 6-5-1-6 0-6 2 0 1-1 2-4 2h-4v6l1 9c0 3 0 3-4 5l-9 1c-5-1-17 1-18 2v2c1 2 4 2 9 3h8l-4 4c-9 7-13 13-9 13l10-5v13c2 0 4-3 5-6l2-4 1 4 2 5c2 1 3-2 2-6 0-5 1-5 6-6l8-2 3-2 4 3c8 6 13 7 15 2 1-2 2-3 4-3s2 0 3-4l3-4 9-2c11-2 13-4 15-13l3-9 2-6c0-2 1-2 3-2 3 0 3 0 3-5 0-3 1-5 4-8l4-7c0-2 4-9 5-8l2 6 4 8a118 118 0 0 1 13 22v18l-6 23c-1 3-8 7-17 10-7 3-12 9-17 19l-4 10 4 4c4 3 5 3 9 2 8-1 20-5 22-8l3-2 1 8c0 6 0 7-2 7-3 0-3 1-4 9l-2 11-1 13-1 11-4 9c-2 6-2 7-1 9 2 2 11 6 14 6l5 1c1 2 0 3-9 7l-5 3-5-2c-6-2-9-2-16 0-7 3-9 6-4 13 1 1 1 2-2 6-5 8-4 24 2 29 4 2 9 3 12 2 4-1 5-2 2-4l-1-5c0-3 1-5 4-8l5-6c2-4 5-5 18-9 13-3 22-4 32-2 7 2 9 2 13 0l5-1c3 0-1 11-9 30-5 11-5 12-8 12-5 1-8 4-11 9-3 6-3 11 1 13 2 1 3 2 3 9l2 11c4 7 13 11 20 8 4-1 4-1 4-5l-1-5c-2 0-3-8-3-15l-1-5c-2-4 0-9 8-19l16-17 2 5 2 4 2-4c2-9 6-14 19-23 12-8 22-18 24-23l5-11c5-9 7-16 11-29 4-15 1-26-13-47l-5-8 3-4c3-3 4-4 4-7v-5l4 1 9 1c4-1 5 0 7 2s3 2 7 1c7-1 7-3 2-6-4-2-4-2 0-5l3-2 2 2 4 2 12-4c0-1-6-4-9-4h-3l5-3c8-5 8-5 12-2l5 3 9-4-4-3c-3-2-5-2-20-2s-17 0-23 2l-9 2c-2-1-3 0 8-7 5-3 6-5 6-6l-2-3 4-1c4 1 5 1 7-3l2-4-5-1c-3-1-4-1-6 2-2 2-2 3-3 2-2-3-1-6 3-9 3-1 10-8 17-14l17-14c4-2 7-7 7-9h-2c-5 0-7 1-8 5l-4 4-5 1c-2 1-2 1-1-1 0-2 0-2-4-2-4 1-7 4-7 7s-1 3-4 0l-3-6c0-6-1-6-5-3-2 2-3 3-3 6l-3 9-7 13-5 11c0 2-1 3-2 3l-3 4c-3 5-4 5-8 0-4-3-4-4-3-9 0-7-1-13-4-13-4-2-11 0-16 4l-4 3-3-6c-4-8-9-14-13-14l-7 3-6 2-1-6c-2-10-3-16-6-20l-2-5 5 3c6 3 10 3 12 0l1-5h-2c0 1-1 1-2-1-2-1-2-1-2 1s-2 3-5 2c-1-2-1-2 1-7l2-8c-1-3 0-4 3-1h3v-3c-1-2 0-2 5-2l8 1h4c1-1 4 0 8 1l10 2c4 0 5-1 9-4 2-3 5-5 6-4l3-1 5-2c2 0 6-5 6-7 0-4 11-1 18 5l7 5c2 0 0-9-1-10l-1-2-1-3c-2-1 1-1 4 1 4 2 5 1 5-1s-8-8-10-8l-4-2-4-2c-2-1-2-1 0-3 2-3 3-7 1-7l-5 2c-7 3-10 3-15-3-4-5-10-7-12-5l-4 1-3 1h-4l-8-3h-4l-8 7c-6 6-8 8-10 8l-4 2c-1 2-1 2-3-1-2-4-3-4-5-1-2 4-7 9-9 9v-2c2-2 1-4-2-3-3 0-4-1-5-5-1-3-1-3 2-3l7-2c3-1 4-1 1-2l-1-1-2-1-5-3-1-8c0-7 0-8 2-11l3-4 3-1c4 0 13-4 19-10l4-5-3-1c-2-1-4-3-7-8l-8-8c-5-1-5-1-4-3l2-13c1-8 2-11 4-14 2-2 2-3 0-3h-16zm-80 19-5 5c-5 4-6 5-5 3 3-7 4-9 7-9l3 1zm57 102c1 2 0 3-1 3l-1-2c0-2 2-3 2-1zm29 20h-9c0-3 8-3 9 0zm0 25c3 3 3 5 4 9v17c-1 0-5-11-5-14l-3-9c-2-6-3-13-1-10l5 7zm80 68-4 2 2-1c3-2 4-2 2 0zm-140 18-3 9c-3 5-5 6-11 9l-10 4h-3l3-6c1-4 4-8 5-9 2-3 16-11 18-11l1 4z"/></svg>