<svg xmlns="http://www.w3.org/2000/svg" width="441" height="683" version="1.0" viewBox="0 0 331 512"><path d="M125 12c-5 1-9 3-13 7-2 3-5 4-8 5-9 2-9 2-7 7v4c-2 0-5 4-5 7s-1 5-8 12c-9 9-17 15-31 23a82 82 0 0 0-38 37c-4 7-5 12-3 18 1 5 8 13 14 15 7 3 16 2 16-2 0-3-1-3-4-1-3 3-5 2-7-1-4-3-4-5 1-5l5-1-1-1c-3 1-6-3-7-8-1-10 4-15 19-17s25-6 34-15l9-10c2-4 3-4 7-4 3 1 5 1 7 4 3 4 4 4 3 1 0-2 0-2 2 1l7 8 1-2 2 1c2 2 2 2 1 4l-6 2c-5 0-9 2-11 5l-8 20-5 10-3 13c-2 16-3 18-10 26l-14 15c-3 5-7 9-8 9l-3 2-3 3c-4 1-14 1-23-1-4-1-7-2-11-1-7 2-7 2-5 3 1 1 3 2 7 2 3 0 4 0 3 1-3 0-11 10-9 11 1 1 4 0 6-3l5-2h3l-2 3c-1 1-2 3-1 5 0 4 3 9 4 9 2 0 4-5 4-6-1-3 2-4 8-4s7 0 12-3l7-4c5-2 22-15 31-24l11-14 9-14-4 10-6 15-2 6 2 4 3 5-3 3c-3 3-3 3-7 1-4-1-4-1-8 2-3 2-3 3-3 7s-1 5-3 8c-3 3-6 8-7 12 0 3-2 6-3 8l-5 7c-1 3-10 8-21 12-7 2-9 4-8 4l9 3 7 2 8-4 7-4v7l-2 14c-2 8-2 8 0 10s8 3 12 0c3-1 3-1 5 2 1 3 1 4 3 3 2 0 3 0 3 3 1 4 4 8 8 10 4 1 11 1 15-2h5c2 1 3 1 6-2l4-4 5 18 1 9-5 15c-6 18-13 35-15 37l-4 2c-4 0-7 2-10 9-3 5-4 13-2 13s1 3-2 8c-2 5-2 5-1 10 2 10 9 17 17 17 4 0 6-2 4-4-4-2 2-28 10-43 4-8 9-15 10-14a228 228 0 0 1 12 42c4 13 5 26 3 37-2 8-2 9 0 16 2 8 5 12 10 12 3 0 4 0 4 2 0 4 4 6 15 6 16 0 22-4 19-10-1-3-1-3-3-2-4 3-15-10-19-22a166 166 0 0 1-11-50l-1-22-2-32-1-13 3-4 11-13c7-7 8-8 10-15l7-21c1-3 1-3 4-1l21 7c3 0 3 0 5-15l3-14h3c3 1 5 2 6 5 3 5 4 5 6 1l2-3 5 7c4 7 5 7 5 5l-7-21c-2-3-2-4 0-4s1-2-5-12c-4-5-6-10-6-11l-3-6-2-4c1-1 17 2 26 5 11 3 18 7 25 15 3 4 5 6 6 5 2-4-2-23-7-33l-1-5c2-2 10 2 15 6 5 5 7 5 7-1 0-11-5-29-14-54-3-7-3-14 0-18l4-4 3-1 9-2 11-2c3-1 12-10 11-11l-6-1c-5 0-6 0-20 9-3 2-5 3-6 2l-3 1c0 1-4 4-8 5-11 6-20 12-34 25-13 13-26 23-32 26-4 2-4 2-8 0l-5-5c-1-3-8-10-10-10l-3-4c-3-4-5-4-4-1 0 3-6-4-7-7l-1-5-1-11v-8l7 2c6 2 7 3 7 1-1-1 0-1 2-1s3-1 1-3v-1c1-1 1-2-1-4l-6-6c-2-1-3-3 0-2l6-2c6-3 8-4 17-2 6 2 10 2 10 0l4-7 4-7 3 4 3 5c0 2-3 5-4 4l-1 1c0 1 3 1 6-1 2-1 2-1 2 1l-2 3c-2 2-2 2-5 1l-4-1c-1 1 2 6 5 8h6c7-4 10-16 7-28l-3-7-1-1c0-2 3 1 5 5 2 3 2 3 3 2l-1-5c-1-2-2-4-1-5l1-6c-1-5-1-5 2-5 4 0 5-4 2-8l-3-2 4-3c3-2 5-3 8-3 4 0 10-3 10-5l-3-2c-5-1-6-3-1-3 4-1 6-2 6-4l-5-1-8 1c-4 2-3 0 1-4s5-5 3-6c-1-2-13 8-25 20-3 3-5 4-8 4-5 1-9 3-8 7 1 2-3 4-6 2l-11-4c-14-4-19-9-24-26l-6-14c-2-1-2-2-1-4 1-3 1-4-3-5l-8-4c-6-6-13-9-22-9h-12zm43 64c1 5 6 15 10 19 4 5 4 5 0 3l-4-1c-2 0-11-4-12-6l1-8 3-8c0-3 2-2 2 1zm-69 2-1 1c-2 0-2-1-1-2l2 1zm26 11c0 2 0 2-1 1v-3c0-2 1-1 1 2zm21 1c2 2 2 3 0 3s-3-2-3-4 1-1 3 1zm-25 53-2 1c-1 0-3-9-2-10l4 9zm9 21c-3 2-3 1-2-4v-4l2 3v5z"/></svg>