<svg version="1.0" xmlns="http://www.w3.org/2000/svg" width="444" height="683" viewBox="0 0 333 512"><path d="M208 3c-6 2-6 3-5 11l11 30c3 6 38 121 38 123l-5 1h-15l-1-3c-1-3-6-6-10-6l-3-2c-1-2-2-2-12-2h-11l-1 4-2 3-3-7c-2-6-1-8 2-8 2 0 3-2 1-2v-2l4-3c2-2 2-3 1-3-2 0-2 0 0-3 2-2 2-3 1-4l2-4 2-4-3-1c-3 0-9-3-6-3 2 0 1-2-1-3h-2l2-3 1-2-5-1-5-2c-4-2-4-2-4-11l-2-13-1-2-4 3-9 7c-5 4-5 4-5 1l-1-5-1-2-2 4c-2 4-9 10-11 10l-3-3c-1-5-4-7-3-4 1 5-1 9-4 11s-4 2-4-3v-4l-2 4c-3 5-5 5-14 1l-6-3v5c0 5 3 18 6 23 2 3 2 3 0 6-1 3 0 4 3 2 2-1 2-1 1 3-2 5-4 9-6 9-2 1-1 3 3 3l6 2c3 2 3 3 2 6l-3 3v3l4-1c3-2 4-1 3 2 0 2 0 3 1 2 1 0 3 2 5 7 3 8 6 11 11 14 4 2 7 2 3 0-5-2-8-8-10-14v-4l6 6 8 6 4-3 3-2c6 2 5 2 3 4l-3 2-4 3-4 4c-2 0-7 5-8 9v8c1 4 0 8-4 14l-11 14-1-3c0-2-1-3-2-1l-9 4v-3c1-2 1-2-1-1s-5 5-5 7c0 3-11 11-13 10l-4 1c-3 2-4 2-10 1h-9l-4 2c-4 1-9 7-7 8h4c2-1 3 0 1 3-1 2-1 2 1 3l1 2c0 3 1 3 7 1l10-2 9-2 4-1c1-1 6-2 16-2 14-1 15-1 17-3l2-4 5-5 9-8c3-6 6-7 7-5l2 10-1 13c-3 6-3 6-5 5-1-1-3 1-4 4l-5 7-3 7c0 3 0 3-3 3l-12-3c-6-2-10-3-12-5l-5-3-5-1c-5-1-10 0-11 2l-7 2c-7 1-17 5-20 7l-3 2-5-2c-4-2-6-4-7-6-2-3-4-4-4-2h-2c-2-1-2-1-5 1l-2 4c0 2 7 5 12 6 4 0 7 1 7 2l-9 6-9 7 3 6 3 5c0 2-3 1-7-2l-5-3v1l3 3 3 2h-3l-7-2c-5-2-7-1-7 4 0 2 0 3 4 3h16l4-1c1 1-11 11-14 12l-11 2c-8 0-16 3-16 6 0 1 1 2 5 2l19 3c19 2 28 1 45-8l10-5-10 8-13 12a318 318 0 0 1-22 25c-2 3-3 10-5 37 0 12 0 14 7 18l27 8 3 1 3 3c6 2 8 5 8 9 0 3 0 3 4 3 3 0 3 0 2-2 0-3 1-4 3-1h3c1-1 2-1 13 4l15 9c3 4 4 5 13 8 10 4 29 21 30 27 0 3 1 5 6 11 1 1 6 1 8-1s3-9 2-14c0-3-1-7-4-10-3-6-3-6-1-8l2-8c0-5 0-5-3-8-3-2-4-2-11-2l-13-2-5-4-7-8c-1 0-6-4-10-10l-14-14c-3-3-4-4-4-7 0-4-5-12-6-9 0 1-1 1-2-1-2-2-1-5 2-5s8-7 8-11c0-3 1-4 2-4 5-2 9-1 10 1l5 4c2 1 5 3 5 5l2 2c7 3 12 5 21 13 14 11 17 14 24 23 5 6 6 8 9 17l4 18c2 11 7 16 14 12 7-3 9-11 5-22l-2-12c0-5 0-7-2-11l-4-6-5-4c-5-6-14-20-20-33l-7-14c-2-3-3-4-2-6 1-3 1-3-1-6l-5-9 1 1c2 1 3 1 6-1l4-2 5 5 5 6c0 1 6 5 8 5s16-8 23-14l7-5 3 2c3 3 4 2 1-2l-1-4 9 8c10 10 19 14 30 14 7 0 12-5 6-5l4-1c8-1 18-5 24-11 5-4 5-6 1-5-2 0-2 0 1-2l5-2 1 9 8 28 3 5h4l7-3 2-3-5-10-10-28c-1-5 2-30 6-50 3-15 4-32 3-47-1-17-2-20-9-29-4-6-6-10-9-20-3-11-3-14-4-30-1-8-5-21-8-23-2-2-8-12-20-37-11-23-14-27-25-35-8-6-9-9-9-17l2-18c1-14 2-19 4-22 2-2-1-2-5-1-3 2-7 6-9 11s-2 17 0 25c2 9 1 8-4-3-5-9-7-18-8-31l-1-12c-2-1-8-1-11 1zm24 66 7 8 4 6a143 143 0 0 1 20 44c4 15 4 17 2 22-1 3-1 4 1 8l3 8 2 5 5 7 3 4 1 1c0 2 0 2-2 1h-11l-3-2-5-7c-5-6-6-7-22-60a3525 3525 0 0 1-13-53l8 8zm-44 91c1 3 1 3-2 7l-5 3c-2-1-2-4 0-6l1-3c-1-1 0-2 1-2 3-2 4-3 1-3v-1c1-2 3 1 4 5zm-36 17c1 2-1 3-3 2l-1-2h4zm140 3-1 1-1-2 1-1 1 2zm-73 24 20 12c6 3 8 2 18-4l7-4c1 1 11 33 10 34h-13c-11 0-15 1-15 3l3 2c4 2 13 10 11 10-3 0-2 1 4 6 6 3 7 5 9 10l4 13c0 6 0 7-3 10-6 8-17 11-24 8l-12-9c-12-10-18-14-27-15-3-1-3-1-2-6 0-4 0-5-2-8-3-4-3-5 2-20 4-12 7-30 7-39 0-4 1-5 3-3zm63 7 6 2v6c0 5 1 8 2 9l1 4 1 4 1 6c0 3 1 5 3 6l3 3c2 0 4 6 3 7l-1 2c0 2-1 1-3-3-4-6-10-10-17-13l-5-2-10-34c0-1 11 1 16 3zM74 261l-2 2c-2 1-2 1-1-1s3-3 3-1zm133 59c2 2 8 18 7 18l-9-9c-3-4-3-10 0-10l2 1z"/></svg>