<svg version="1.0" xmlns="http://www.w3.org/2000/svg" width="497" height="683" viewBox="0 0 373 512"><path d="m163 1-1 6c0 9-2 15-4 13l-5-1-9-3-15-6c-8-3-9-3-16-2l-12 2c-2 1-3 0-8-4l-6-5-3 9-6 13c-2 3-3 4-2 6l2 5c0 2 0 2-3 2l-5-1h-4l-14 1c-13 1-16 2-26 12-5 5-6 7-6 9l3 10 3 15c1 12 3 18 10 29l16 24c1 1 5 2 11 2l10 1-19 12c-23 16-31 23-41 37-14 18-16 25-10 36 2 4 4 6 7 8 5 3 6 4 14 4l12-1c2-1 3 0 4 4 3 7 9 14 16 18 6 3 7 4 16 4 15 0 22-4 26-13l2-6v-2l-2 3c-2 5-9 11-14 13-3 2-5 2-8 1-4-1-14-8-17-12l-2-2h2c6 3 10 3 19 2 21-3 35-16 37-35l-1-10c-2-2-5-3-9 0-2 1-3 3 0 2 3-2 8 1 7 4 0 4-1 5-2 3l-3-1c-2 0-7 4-8 6-1 3-1 3 1 0 3-3 7-3 7 0s-8 11-14 14c-5 3-7 3-14 3-10 0-16-3-22-13-3-5-3-7 1-7 5 0 15-5 19-10s6-9 5-14l-2-9-1-5 8-7 11-13 5-5 2 5 3 7 2 4c-1 1 2 8 3 8l4 5 7 11c5 6 5 9 0 19-4 7-6 11-7 17-1 2-1 3 1 3l2 1-7 12c-22 36-33 58-32 65 1 4 6 11 9 13 4 1 17 2 34 0l12-1-1 11-2 10-1-4-2-8-3-3-2-1c-1-1-7 1-8 2-2 3-1 7 1 10l3 2-3-1c-2-1-2-1-1 1 2 3 6 6 13 8 5 1 5 1 5 5l-4 27-4 32c-3 23-10 54-15 62l-3 4-4 6-4 5-3 5c-3 6-6 8-11 9-3 0-4 1-5 4s-1 3 2 4c3 2 19 2 24 2l8-6 4-5h7c7 0 7 0 9-3 3-3 3-5 3-12 0-6 0-10-2-13l-1-9c0-7 6-28 8-31 3-2 6-13 5-14l5-16c8-20 10-28 10-38v-9h7c5 0 8 0 12-2 7-3 19-11 21-13 1-1 3-3 5-3 6-2 7 0 8 9 0 7 2 11 5 12 3 0 7-4 10-10l3-13c0-7 0-7 3-9 7-4 13-19 14-33 1-20-6-43-20-65l-4-7 11 4 28 7c21 4 23 5 33 11 6 3 9 5 10 8 2 3 3 7 2 7l-15 1c-15 1-15 2-15 4l-1 2c-2 0-7-7-9-12l-3-7c-2-2-6-1-9 2s-3 3-2 6c0 2 1 5 3 6 2 3 14 8 19 9 2 1 3 2 4 5l8 16 7 11-6 9-8 12-2 3c1 1 13-3 19-7 13-9 23-20 30-35a205 205 0 0 0 15-47c3-10 3-21 0-27-6-11-27-20-54-22l-12-1 4-7 4-10c0-2 1-3 2-2 12 5 20 6 27 4 5-1 19-9 20-12l1-4c0-2 0-2-1-1-2 4-5 7-9 9-7 4-23 2-34-4-4-2-5-2-5-6-1-7-4-12-9-17l-4-5 12-1c17-1 32 1 42 5 3 1 4 2 4 4 0 4-5 7-12 9-9 2-12 0-14-9-1-4-2-5-3-4-2 3-2 7 1 10 3 4 9 6 17 7 8 0 13-1 18-5l3-3 3 4c4 7 4 15-2 23-2 3-4 4-9 6-4 1-5 1-3 2a35 35 0 0 0 24-16c1-4 2-4 4-4 6 2 11-4 11-12 0-10-10-24-22-30-6-3-6-4-4-8 3-10-1-22-11-26-4-3-4-1 1 2 4 2 7 7 7 11l-4 8-5-4c-8-8-25-14-35-14-7 0-19 3-28 8l-8 4-5-2c-5-2-8-2-17-2-13 0-23 2-33 6l-9 2c-5 0-14-3-19-8-4-3-11-13-11-14l7 3c13 6 34 10 43 8 10-3 18-9 22-15 2-4 0-4-4 0-5 5-10 6-27 6-14 0-16 0-24-2-9-3-20-9-20-11l4-1c6 0 19-5 21-8s0-5-4-7c-5-2-6-1-3 1 4 5 2 9-5 9h-5l3-4 2-5c0-3-4-4-12-3-6 0-6 0-6-2s0-2 4-2h4l2-1 2-1c-1-1-4-1-9 1-2 0-2 0-1-2l2-2c0-4 1-7 2-6 2 0 4-3 4-4-1-1 0-3 1-4 3-2 3-6 0-8l-3-2c0-3-2-4-4-3-3 2-2-1 1-3l3-3c1-2 0-1-3 1s-4 1-1-2c2-4 0-7-3-4zm13 51-4 4c-2 2-4 2-6 1-3-1-4-3-2-3l3-2c0-1 9-2 9 0zM81 79l2 4v4c0 2-8 6-9 6l6-16 1 2zm70 18 3 6-3-3-5-3c-4 0-4-2-2-6s2-4 3-2l4 9zm164-3c6 3 12 8 11 9h-5c-10-3-27-2-41 1-9 1 6-9 17-11 8-3 12-2 18 1zm-57 2c3 2-23 7-35 7h-5l4-2 12-4c7-2 22-3 24-1zM77 97c5 0 5 1 1 8-6 10-9 10-7-3 1-5 2-6 3-6l3 1zm104 24c8 4 9 6 3 3-9-4-17-8-21-13-8-9-7-10 2-2 5 5 11 10 16 12zm-91-11-4 2 1-1c4-3 6-3 3-1zm150 7-12 1-8 1 11-2c13-2 15-2 9 0zm124 12c4 4 8 11 8 14 0 5-6 11-11 11l-1-10c0-11-1-16-6-21-3-4 5 1 10 6zm-196 17a900 900 0 0 1 63 43l-9 1-9 2h-3c-1-1-1-1 1-3s2-2 1-4c-1-3-6-4-13-4-6-1-6-1-5-3 1-4-2-11-5-13-4-3-5-3-7 2l-1 3-3-4c-2-3-5-6-6-4-1 1-16-8-18-11l-2-1-1-3 1-8v-4l4 3 13 8zM55 165c-7 11-10 17-13 26-3 6-3 7-4 5l-1-7c0-11 4-17 15-26l8-6-5 8zm134 8c0 3-1 4-3 1-3-2-2-8 1-6l2 5zm-113 5c2 4 0 10-5 15-4 4-13 10-16 10-2 0-1-5 2-9 4-7 15-18 17-18l2 2zm124 7v1l-2-1 1-1 1 1zM29 200l6 6c2 1 2 2 2 12v11l-5 1c-7 0-13-2-18-6-4-4-6-8-6-14 0-9 1-11 8-18l7-7 2 6 4 9zm49-6-4 4c-2 1-2 1 1-3l4-7v-3l1 3-2 6zm56 9h-1l1-2v2zm-4 6c-1 6-5 14-7 11-1-3 4-17 7-17v6zm169 57c2 3 0 5-4 5-2 1-2 0-2-2v-4c1-2 5-1 6 1zm-156 11-2 11-9-2-8-2 10-8 11-9-2 10zm48 17h-10c-1 0 0-4 4-12l5-12 1 10v14zm-3 21c-3 12-3 13-8 15l-11 5-6 3v-4l4-13 3-8h5l10-1c4 0 4 0 3 3z"/></svg>