<svg version="1.0" xmlns="http://www.w3.org/2000/svg" width="436" height="683" viewBox="0 0 327 512"><path d="M222 5c-4 6-13 11-17 9-3-1-3-1-5 4 0 3-3 5-24 20-19 13-24 16-26 15h-10l2-4c2-2 2-4 2-6-1-2-1-2-2 0 0 3-3 5-8 6l-8 1-3 2 1-4c0-3 0-3-1-2-1 2-1 2-2 0-2-2-2-2-2 2l-1 3-2-2c-2-4-3-4-3 0l-5 8c-4 4-4 5-5 3-1-1-1-1-4 7 0 2-1 1-3-3l-3-5v6l2 8c2 2 2 4 1 4-1 1 0 2 1 4 3 3 3 3 2 6-3 4-3 4 1 4 3 0 4 1 4 2l1 3-5 1-4 3c0 2-1 2-8 1-6-2-12-2-15-1-2 0-1 2 4 5 5 4 7 5 6 7l1 2 2 2c0 1-1 2-8 3-4 0-5 1-2 3v3c-2 3-5 4-7 2-1-1-1-1-2 1l-5 4-5 4-5 4c-2 0-2 1-2 2 2 4 2 5-8 11-11 6-15 8-19 7-3 0-8 4-12 12l-2 5h6c8 1 14-1 14-5 1-3 5-7 16-13l7-5 2 3 3 4 1 5c0 3 1 4 3 1 3-2 6-1 6 1l4 7 5 5-5 3c-6 4-9 8-10 16-2 7-3 20-1 22 1 1 1 1 4-2l10-6-1 5-2 11v8l-8 3-10 8c-3 4-9 7-16 11a166 166 0 0 0-30 23c-5 6-5 7-4 9 0 5 5 15 8 19 1 2 2 3 1 5-1 3-1 5 3 8 3 2 3 2 1 2l-6-2c-3-2-4-2-4-1 0 3 5 10 10 13l6 6 3 4 2 3c1 2 3 4 7 6l11 10c11 11 15 18 17 29 0 4 1 5 2 4l3 2c1 2 2 3 5 3s5 2 2 3c-1 1-2 1-1 3 0 2 0 2-2 2-4 0-4 2-1 3l2 4 1 2v12l-1 8c-1 8 0 11 6 14 3 2 4 2 7 1l7-4 6-4c4-1 6-5 4-9-2-3-2-4 0-9 2-3 3-6 5-6 2-1 3-5 2-9v-7c0-4 0-5-3-8l-5-3-1-1c1-1-1-7-2-7l-3 2c-2 2-4 1-4-1l-3-6c-4-5-7-11-9-24-3-14-5-20-9-25-2-3-3-4-2-6s1-3-2-5c-3-3-3-6 1-6s9-3 15-10l4-4 3 6 13 20 2-4c2-6 7-13 14-18 6-4 11-10 14-16 1-1 2 0 6 6 7 12 9 16 11 26l4 13 10 7c11 5 16 8 16 11s3 6 8 6c6 1 7 2 7 6 1 3 0 4-6 1-4-2-4-2-2 2 2 5 8 9 12 10 4 0 7 3 7 7l7 11c11 15 21 37 21 47l2 3 2 2c0 3 2 6 3 6l2 1-1 2-1 3c0 2-1 3-3 3l-3 1 3 3 3 5 1 4c2 1 2 4 1 5-1 2 1 20 3 24 2 3 2 3 7 3l9-2c5-1 10-6 10-9l2-3c2-2 2-4 1-17l1-8c2 0 1-4-2-12-3-9-3-10-8-11-3 0-3 0-2-2 2-3-1-8-3-7l-2-2-2-3c-2-1-5-11-8-30l-5-26c-2-5-2-5 0-9l2-5-3-4c-2-4-3-4-5-4-2 1-2 0-4-3l-6-8-5-5 1-7c2-11 1-14-3-18l-8-13-7-13c-3-4-6-11-6-15 0-2-1-3-3-4l-8-7-6-6 4-3c6-3 13-5 17-5 3 0 3 0 2-2l-2-5v-4c2 0 5 6 8 14l6 10 7 8 18 21c9 8 13 11 22 14l8 3h20l23 1 6 1c1-2-25-31-37-41-6-5-7-6-5-8h5l9 2c4 0 4 0 3-2l-1-14c-1-14-3-20-7-26-4-7-8-9-21-11-10-2-13-2-23-1l-20 2h-9l-4-4a96 96 0 0 1-15-22c-3-2-4-12-2-15 1-1 1-1 1 3 0 8 2 12 6 16l13 9 6 3h20c7 0 8-1 9-3 1-1 2-2 3-1 3 2 7 1 10-2s4-4 11-4 12-1 16-5c3-2 3-10 0-15l-2-4 5 1h5l-1-3c-1-5-7-14-11-16l-4-2-8 2-14 5-7 4-4 1-4 1c-2 0-2-1-1-3l1-5 5-12c2-3 9-1 13 4l3 3 2-4c1-3 2-5 4-5 3-2 9-8 10-12l3-2c1-1 6 1 8 4s5 4 9 3c4 0 4-1 0-4l-4-4-5-5-4-3h7c7 1 10 0 14-4 3-3 3-3-6-4h-15l-3 1 3-2c1-2 4-4 7-5 3-2 7-4 7-6 2-2 4-9 2-9l-5 3c-8 6-22 12-23 12-1-1 0-6 4-12 2-4 3-6 3-10l-1-6-13 19-3 4-2-4-2-4-2 4c-1 3-3 4-7 6l-8 6-4 2-7 1c-4 2-5 2-8 0l-7-1h-5c-3-2-3-2-1-3 3-3 9-2 13 2l2 1c0-2-5-8-8-9-2 0-3-1-1-5 3-4 11-6 16-4h2c0-1-3-4-5-4-3 0 0-6 5-9 4-3 7-2 10 4 1 3 2 4 2 2 1-3 1-7-1-9s-2-2 2-7c4-4 4-4 12-5l9-1-6-8c-5-6-6-8-7-13v-9c0-3 0-4-2-5s-2-2-2-6c1-6 1-6-8-4-7 2-11 1-16-6l-4-5-4 4zM103 140c1 4 1 5-2 8l-2 5-2 4-2 4c2 2-1 2-3 1-3-3-7-8-7-13v-4l1 1 4-3c4-5 9-9 11-8l2 5zm-18-2c0 3-1 4-2 1-2-2-2-3-1-3l3 2zm145 4 1 4-2 3-6-5-7-6 14 4zm-29 12 8 4c4 2 5 3 4 4h-3l-4-2-4-3-4-3-1-1c0-1 1-1 4 1zm62 14c-2 7-3 8-7 8s-8 2-10 7c-1 3-1 3-3 2h-7l-6-2-6-1-4-2-4-2c-3-2-3-2-1-2l3-2 5-1c5 0 9-2 12-4 2-2 2-2 10-1h12c6-2 6-2 6 0zM91 189l-3 4c-3 4-4 3-2-2 1-3 5-4 5-2z"/></svg>