<svg version="1.0" xmlns="http://www.w3.org/2000/svg" width="455" height="683" viewBox="0 0 341 512"><path d="M100 21c-6 2-9 5-9 8 0 4 1 4 3 0s6-7 10-6 8 4 9 9c0 3 0 4-5 1-4-2-8-1-11 4-3 3-3 4-2 5l1-1c1-3 6-5 10-4 2 0 2 1-2 5l-7 8-5 5c-2 0-2 0 0 2h2l1 1c0 5-9 10-12 8-1-1-1-1-1 2 1 3 1 4-1 3l-14-7c0-2 5-4 10-5l3-1c2-1 0-3-8-7-13-6-19-7-24-5-6 3-7 9-2 16 4 6 5 7 12 10 6 3 20 6 27 6 8 0 8 1 6 10-2 7-2 11 0 13v-1c-1-3 0-9 1-11h1c-1 3 2 12 4 14s5 2 7 0c1-1 1-1-1-1-3 0-3 0-3-4l1-8 1-3 4 2 8 6 5 4-4 5-7 5c-3 2-3 3-3 4 1 3 1 3-2 2s-3-1-7 2l-4 4-9-3-11-4-4 2-4 2c-4-2-10 6-10 12 0 2 1 4 4 6 4 4 4 4 2 4-4 0-8 2-9 4 0 1-1 2-2 1-7-3-7-3-9-1-2 3-1 7 1 9l9 5 8 5-8 5c-6 3-10 4-16 2-2-1-5-2-8-1l-5 1 5 2c11 5 23 4 32-3l5-3 11 5c7 4 11 6 12 8l3 5 2 4c0 2-1 2-7 2-4 0-6 0-5 1l-2 1-4 2c-3 2-3 3-3 7l1 5h-4c-4 0-5 1-2 4 2 1 2 1-3 5l-5 3h10l-3 5-2 6 4-1c4-3 4-2 3 1-4 6-13 15-21 19-10 5-16 11-19 20-4 8-4 11 0 11 2 0 3-2 8-10 4-8 5-10 9-12l5-3-3 8-9 18-3 10v12c1 12 4 30 6 34 1 2 20 12 21 11l-5-14-6-17-6-34c0-5 12-25 13-22l2 7 4 11 2 6-4 17-4 19 5 6c4 3 4 4 4 8l-1 5 6 4c5 3 10 6 19 8l4 15c0 4 0 4-2 3-3 0-3 3 1 8l2 5 2 5c1 2 1 2-1 6s-3 11-1 13l5 2c3 0 3 0 4 9a161 161 0 0 1-2 45c-2 2-8 4-17 7-4 0-9 2-10 3-3 2-3 3-3 7l4 8c4 3 13 6 21 6 6 0 8-1 11-3l3-2 1 2c2 3 9 3 15 0 3-2 4-3 4-7 0-6-1-15-4-24-2-5-2-9-2-21 0-13 0-17 2-28 3-15 4-21 2-29-2-4-2-8-1-12 0-5 0-5-3-7s-4-3-4-6v-4l6-1 12-3 6-3 2 4c1 2 2 5 1 7l4 10c7 10 17 38 19 52v6l-3 1-6 1-6 2c-3 1-3 2-3 6 1 5 2 6 10 10 6 2 7 2 9 1s4-1 4 2c0 4 14 4 17 0 2-2 1-9-1-16l-3-10-2-8c-3-12-5-31-3-38 1-2 1-2 3 2s5 5 6 2l-5-6c-4-6-4-6-2-6 3 0 3 0 3-3s-1-4-3-6c-4-2-6-6-8-12 0-4-1-5-3-5s-4-2-6-5l-4-6 6-5 6-4 7 2c14 3 28 1 37-5 7-4 8-6 5-9l-2-3 3-1 4-3c2-2 5-1 12 3s7 4 12 3l10-4 7-3 7 5c12 9 14 10 17 9 7-2 4-9-6-17l-7-5 4-4c10-11 16-24 16-34 0-7-1-8-13-10l-7-1c-1-2 24-15 35-19l6-2-8-2c-7 0-16 0-39 3h-5l10-6c20-11 27-17 29-27 2-7 1-17-2-25-4-11-22-25-32-25-5 0-6 1-16 18-12 20-23 34-28 37-8 4-9 3-16-10-4-7-5-11-6-16-1-7-3-10-10-14-4-2-7-5-16-18l-4-6 4 3c4 4 8 5 11 3s3-6-1-11c-3-3-4-4-2-5 1-2 2-2 4-2l11 2c7 0 7 0 9-3 3-3 4-5 1-8-1-2-2-2-4-2-3 1-4 0-3-1 0-2 0-2-3 0-3 4-11 8-12 8l-4-2c-3-3-11-6-16-6l-5-1c-2-1-1-1 6-4l14-4c15-7 38-26 49-41 9-12 14-26 13-32-1-3-7-4-17-4-15 0-23 3-50 16l-27 12-4-5-8-8c-4-3-5-4-5-7v-4l-2 2c-3 3-3 3-10 2l-10 1-3 1v-4c0-4 0-5-3-7-3-3-9-3-16 0zm121 18c3 2 6 7 6 12 0 9-5 16-17 22-11 6-12 6-6 0 7-7 13-16 12-22-1-4-7-9-12-11l-4-2c2-1 18-1 21 1zm-33 17c0 3-2 7-2 5l-3-4c-3-3-3-4 2-4 3 0 3 0 3 3zm-9 2c1 2 1 4-1 8l-1 3-2-2c-1-3-3-4-2-2 0 3-3 8-6 9-7 2-7 2-4-1l1-5c0-3 1-4 6-7l6-4c2-1 3-1 3 1zm-70 28 1 4-5-6c-1-4 2-3 4 2zm48-2c1 1 0 2-2 3l-3 2c-2 0-1-4 1-5h4zm31 31-8-2h4l4 2zm3 5h-2c-3 0-2-1 0-1l2 1zm-6 3h-3l-2-2c0-1 4 0 5 2zm7 6c2 2 3 4 1 4-1 0-7-4-6-5 1-2 2-1 5 1zm-33 35 2 5-17 11c-1 0-3-3-3-5l6-10c7-9 8-9 12-1zm28 197 1 3c0 2-3 0-3-2-1-2 0-3 2-1zm-85 38-1 5v-9c1-2 1-1 1 4z"/><path d="m52 233-7 1-5 1c1 1 0 2-1 3-2 1-3 3 0 3v2l-4 3c-2 0-3 1-3 2 1 0 12-3 13-5l2-1c1 0 4-2 6-5 3-2 4-4 3-4h-4z"/></svg>