<svg version="1.0" xmlns="http://www.w3.org/2000/svg" width="533" height="683" viewBox="0 0 400 512"><path d="m214 0-3 16c-1 3-1 4-3 4l-3 1c-2 2-3 1-3-1s-2-5-5-8l-5-5v6c0 7-1 8-5 8l-7 2c-8 4-13 10-16 20l-4 15c-4 11-4 21 0 25l2 4 2 4c1 3-3 2-8-1l-3-2-3 3-2 3h-2v-2c2-2 1-5-2-7-4-2-6-1-8 4 0 2-2 4-3 4l-3 4c-1 2-1 2-1-2-1-7-8-8-11-2-2 3 0 7 5 8 3 0 2 1-3 1H95l-4-2h-5l-4-1-7-1-6-1-10-1-10-2c-2 0-2 0-2 2l-4 1-4 1-2 1c-4-1-5 1-4 3h-2c-3 0-3 0-2 2 1 3 5 6 9 7l18 1 15 1 4 1c3 0 8 3 8 4s7 1 8-1l-2-2h1c3 0 7 1 10 3s6 3 7 2l4-1c7 1 7 1 8 8 2 8 6 16 15 29 8 13 9 14 8 19-1 11-8 19-21 26s-22 13-30 22c-9 9-14 16-20 28l-4 8h-7c-5 0-8 1-14 4l-8 5c-2 1-3 9-1 9l1 2c0 2 4 5 6 5l3-5c3-5 8-11 14-13l4-2-3 7-2 14c-1 7-1 7 1 5l17-23 8 1h7l-5 6-11 13c-6 7-7 8-15 10-14 5-32 15-44 26l-12 6c-5 2-6 2-5 3 4 2 25-1 36-5l14-9c7-6 21-13 28-15l5-1-8 15c-8 12-19 35-19 37l4 1c7 0 10 2 16 10 6 9 13 15 25 22l14 8c5 3 14 7 17 7l1-12c0-18 2-34 10-76v-3l1 4c2 8 3 13 5 14l2 6c1 10 10 23 14 22 3-1 7-6 7-8 0-4 1-1 3 8 1 4 2 9 1 11 0 1 0 3 2 4 2 3 4 14 6 35 2 18 2 29 0 37l-1 12-1 6-2 5-2 6-1 5v3l-1 11v12l2 4c0 2 2 3 12 3l7-1a233 233 0 0 1 5-26l3-9c0-6 1-9 3-11 3-4 3-12-2-21-5-11-5-18 1-45 5-25 5-40 2-53l-6-27 2-2c3 0 7 6 16 23 10 20 15 34 18 51 1 4 1 4 4 4l26-13 17-14c15-12 20-16 27-18h11l7 2c3 2-11-12-22-20l-41-29c-28-18-32-21-34-25l-2-4h3l8 2c5 0 6 1 13 7 11 9 21 16 30 20 16 9 30 15 33 15l22-7c7-3 16-4 25-3l4 1-7-7-13-11c-5-4-6-5-5-6a290 290 0 0 1 50 19c1-1-1-7-4-11-4-6-11-13-17-16-5-3-8-7-11-17s-5-14-11-21c-6-6-14-10-19-10l-32 6-15 2h-5l-10-9c-10-11-11-13-17-33-3-17-7-25-13-34l-5-8c0-1-1-5-3-7-3-6-5-14-5-17l-1-3c-2-1-1-5 1-12l2-9c0-3 0-3-5-3-6-1-7-2-9-5-1-3-2-4-6-1-3 1-4 1-5-1-3-2-3-6 1-7l3-1 5-4c3-3 4-4 4-9 1-6 2-8 3-6 1 1 0 3-2 9l2-2 2-2c1 3 3 2 3-1l-1-3 2 2c2 3 5 4 5 2l-5-11c-8-14-10-25-12-48l-1-13h-1zm-36 87c1-1 2 0 4 2 4 3 3 4-4 4-6-1-7-2-4-4l2-4v-3l1 3c0 2 0 3 1 2zm-5 2-2-4 2 1v3zm-22 57c0 3 0 3-1 1v-6l1 5zm51 14c1 6 2 7 0 7-2-1-5-8-5-11 1-4 2-4 5 4zm15 31v5l-5-2c-3-3-3-4-1-10l1-3 2 2c3 2 3 3 3 8zm-96 42c-4 5-26 19-22 15 3-4 22-17 24-17l-2 2zm155 17c22 5 19 6-4 2-11-2-14-3-18-8l-4-4 6 3c5 3 11 5 20 7zm46 21 11 7-8-3-14-5-7-2 3-2 4-1 11 6zm-156 55 3 8 3 7c-2 1-8-4-12-9l-4-6 8-2 2 2z"/><path d="m158 48-1 2 2-2 1-2-2 2zm-3 7-2 5 2-3 2-6-2 4zm-3 9h1v-2l-1 2zM18 130c-5 3-9 8-10 12s0 4 9-1c7-4 10-4 18-6 9-1 10-1 13 1 4 2 5 2 3 0-4-3-14-7-21-8-6 0-8 0-12 2zm30 17c0 2 4 5 8 6 6 2 5 0-2-5-5-3-6-4-6-1zm-22 87c0 3 4 13 7 16 1 2 3 2 8 2l7-1-2-1c-4 0-9-4-13-12-5-9-7-10-7-5zm371 4-5 9c-4 8-8 14-11 14l-3 2-3 2 4-1c12-3 21-13 21-23 0-4 0-5-3-3z"/></svg>