<svg version="1.0" xmlns="http://www.w3.org/2000/svg" width="343" height="683" viewBox="0 0 257 512"><path d="m61 12-1 8v13c0 8-1 10-2 9l-23 3c-1 1-1 1 1 1l10 4c10 4 12 5 16 4h3c1 2 1 3-2 4-7 2-14 2-18 1-7-3-20-6-21-5s-1 3 1 6l2 9c0 4 1 5 11 18 7 9 7 13 3 25-2 4-2 5-1 6 2 0 1 2-3 15-5 16-5 19-4 27 1 6 2 8 4 9 3 2 4 1 12-4l5-3 1 3c1 2 1 2 3 0l1-2 2-1c1 0 2 1 3 6l4 12 4 7-2 2-9 4c-7 3-8 4-8 12l-4 10c-4 8-11 25-14 37l-14 65c-2 13-1 17 1 19l4 10 2 7 4-1c5 0 5-1 2 10-2 16-3 16 13 16 11 0 13 0 15 2 3 2 7 10 7 15 2 6 3 7 6 6l6-4 3-2 6 9c15 22 21 34 21 39-1 3 0 6 3 9 2 2 2 4 2 13l-1 18c-1 7-1 8 1 10 2 3 8 6 11 6s6-2 8-6c2-3 3-6 1-12l-5-16c-2-10-2-11-1-14 3-6 3-9 0-18-4-10-6-20-6-27l-1-6v-7l4 3 27 18-1-4-9-20c-8-16-23-44-28-50-2-3-3-4-3-9 0-6 4-20 8-27l2-5 6 3 12 8 10 9 8 7 40 57c6 11 10 22 10 29s1 7 4 1l1-19 2-17c2-3 3-11 2-14 0-2-2-4-6-7l-5-4a163 163 0 0 1 38 8l4 2a207 207 0 0 0-31-20l-12-6-1-6-3-14c-2-8-4-9-14-12-6-2-8-3-11-7-1-3-5-6-7-8-3-2-3-2-9-1l-6 1-6-6c-4-4-9-10-11-15-5-6-6-9-7-14v-9l-1-3c-1-2-5-18-5-23l-2-13c-2-15-1-20 6-23 5-3 8-3 11 0l7 4c6 3 13 10 16 17 2 3 2 6 3 12 0 8-1 9-3 13-3 4-3 4-2 6h4l1-5 2-12c4-18 1-34-8-51l-3-6 6-5c7-6 8-8 6-10-2-1-2-1 0-2l3-5c1-3 1-3 1-1 0 4 2 3 2 0s-2-6-5-8-16-5-20-5c-4 1-8-1-7-3 0-1-4-8-7-9v-4l-1-3v-5l-1-6c-1-2-1-3 9-10 6-4 13-13 17-21 8-15 8-31 1-39-3-3-4-3-8 2l-10 8c-7 5-8 5-16 5h-8l-3-4-6-5-11-8c-9-9-15-12-20-12-4 0-5 1-7 6l-4 6c-1 1-5-5-6-11l-1-6v6zm-3 77v3c-2 2-2 2-3-1s0-4 3-2zm3 12-2-1c-2-2-2-2-1-5l1-3 1 4 1 5zm2 3c6 1 11 5 11 7 0 1-1 1-5-1l-6-2v2c0 4-4 12-5 12-2 0-3 2-3 5 0 2-4 5-4 4v-7l3-6 1-9c0-7 0-8 2-7l6 2zm66 23c3 5 4 6 7 3l2-1c-2 2 0 6 2 7l-2 1c-4 1-5 1-6-1l-2-3-2-5-2-5 3 4zm28 3-3 1c-1-1 0-1 1-1h2zm-8 5c-4 2-6 1-3-1l4-1-1 2zm-6-1h-2c-1-1 0-1 1-1s2 0 1 1zm22 2-2-1c-1-2-1-2 1-1l1 2zm3 4-1 3v-4c1-1 1-1 1 1zm-59 253 1 6c-1 2-2-4-3-11-1-5 1-2 2 5z"/></svg>