<svg version="1.0" xmlns="http://www.w3.org/2000/svg" width="400" height="683" viewBox="0 0 300 512"><path d="m151 8-13 10c-6 6-7 7-8 11 0 3-1 4-4 7l-4 3-2 2c-1 2-1 2-7 0-5-2-5-2-7 0v11c1 1 0 2-1 2-2 1-2 2-2 4 1 4 1 4-4 5-8 2-21 9-26 13-4 4-4 5-4 9 0 5 4 11 11 15 4 2 5 2 15 2 9 0 11 0 16-2l10-7 6-3c2 0 1 4-2 6l-1 3-1 2-5 11-3 9-12 2c-17 4-24 7-29 12l-4 4-3-2-6-2-7-2c-8-3-10 0-3 5l4 2h-4l-10 1-8 2c-2 1-2 2-1 3v2c0 2 1 2 7 2l9 1 3 1-3 3c-5 5-4 6 4 8l7 1-1 4-1 5v7c1 5 0 7-1 9l-3 2c-3 0-3 2-1 4l3 5c0 3 2 3 4 0 0-2 2-3 4-4s3-4 1-4c-2-1-4-5-3-8l4-5 3-4c0-3 4-11 6-11l4 1 20 19a164 164 0 0 1-37 22c-7 3-10 3-17 3-12 0-16-1-25-10-6-5-6-6-5-9l-1-6-3-3-2 4c-2 4-2 4 0 6 2 1 2 2 2 12 0 21 1 23 23 40 7 6 13 11 12 12l-2 14c-3 17-3 23 1 31l10 16c6 9 6 10 6 14-1 3-1 4 4 6l4 2v-5c1-4 1-5-2-7l-3-4 3-15c3-14 5-20 15-33l9-11 2-2v8l1 11c3 9 8 17 9 14h1l11 35 1 15c0 26 6 41 27 77l9 16c3 6 3 7 3 14-1 6-1 8 1 12 3 7 4 14 4 20-1 9 1 16 6 20 7 6 11 7 14 1 2-4 2-18 0-22a494 494 0 0 0-24-85l-6-20c-8-32-10-40-10-51v-11h4l7-4c4-3 5-4 7-1s4 3 10-2c5-3 5-2 6-18 1-3 1-3 5 5 11 17 15 28 18 42 1 9 1 10-4 11h-3l2 3c2 1 3 4 3 5 0 2 2 3 2 1l5-4c3-2 4-2 2-4-3-2-2-3 0-6 9-8 22-36 25-54l1-6h11l17-1c7-1 20-7 23-11l5-2c3 0 4-1 6-4l3-4h-4c-4 0-5 1-8 3l-3 3h-8l-14-3c-5-1-5-1-4-2 3-3 2-4-3-4l-8-1c-1-1-1-1 2-2l3-3-15-6-9-4c-3-2-6-9-9-18l-3-9a239 239 0 0 1-9-42l4-2c5 0 9-2 10-4 0-2-1-2-3-2-4 0-10-6-10-10l-1-4-2-4c0-5-2-15-4-18l-1-9c-1-4-1-7-3-9-2-3-8-6-12-6-2 0-3-1-3-2 0-5 5-5 9-1l3 3 1-3 3-3 11-2 7-2 7 4 16 9 11 6 3 8c3 15 13 35 17 35l1 7c0 5 0 7 2 9 3 6 0 13-6 14-4 1-4 3-1 6 2 0 3 2 3 4 1 4 3 4 5 1l4-3 3-1c1-1 1-1-1-4-3-3-4-7-3-8l1-3 2-4c2-3 2-5 2-9 0-5 1-6 3-7 1-1 2-3 2-9 1-7 1-8-2-12l-18-21a108 108 0 0 1-24-31c-2-3-2-3-1-6 6-10 10-17 11-22 1-4 1-5-1-9-3-6-17-15-31-19l-8-2-6 2-12 5-7 3-3-5c-1-2-3-5-5-5-5-3-6-5-2-8s10-5 15-4c9 2 9-1 0-7l-9-3h-10c-9-3-12-2-18 2zm84 78h-1l-1-1 1-1 1 2zm-82 18h-5c-3 0-4-1-4-2l1-2 8 4zm-13 2h-1l1-3h1l-1 3zm137 31 2 5c0 1-1 1-2-2l-4-7-2-3 2 1 4 6zm-194-3c-3 3-6 4-6 3l9-6-3 3zm34 6-4 4-2 3c-2 2-3 2-6 2l-4 1c0 2 3 5 6 5l2 2-5 6c-4 0-15-4-17-7-3-2-3-2-1-4l10-5a165 165 0 0 0 23-11l-2 4zm-15 1-8 4h-2l2-2 11-4-3 2zm163 13c-1 1-4-2-4-4l1 1 3 3zm-79 19 1 9 1 10v4l-1-4c-2-3-5-20-5-21 2-2 3-1 4 2zm-47 55v6l-2 4v-4l-2-5c0-2 2-3 4-1zM91 33l3 1c4 0 3-3-1-3-2 0-3 0-2 2zm-18 4c-2 0-2 1-1 2 2 2 2 2 4 1s3-2 2-3h-5zM51 52c-4 4-4 4-2 4l4 1 4-3c4-4 4-4 2-4l-3-1-5 3zm-6 19-6 2c-2 0-2 0-2 2v6l-2 4 5-3 7-2c1 0 2-1 1-3l1-6 1-2-5 2z"/><path d="M48 101c-2 4-6 8-9 9-4 0-5 2-1 3 3 2 4 5 6 10v3l3-4c2-4 7-8 10-8s2-1-1-3-4-4-5-7c-2-5-2-5-3-3z"/></svg>