<svg version="1.0" xmlns="http://www.w3.org/2000/svg" width="488" height="683" viewBox="0 0 366 512"><path d="M178 9c-2 2-3 8-1 11l1 3c-1 1 0 4 3 5 2 1 2 1 1 4-2 6-2 7 2 8 4 0 5-2 2-6l-2-5c2-1 5 1 6 4l4 4 2 1c-4 7-5 12-7 21-1 13-4 19-12 32-7 10-9 12-25 26l-23 22c-6 8-14 21-16 28-2 4-3 5-26 19-17 11-38 28-45 38-7 8-9 15-10 24 0 6-1 10-3 13l-9 29-3 11c-2 2-6 15-7 21v8l3-4 5-4 1 12 2 18c1 6 1 6-2 11-2 5-2 5 3 2 3-2 3-2 6 0 3 4 7 5 10 3s3-2 4 2c2 7 7 16 11 22l4 5-4 2c-6 3-5 3 2 1 5-1 5-1 17 7 3 3 8 5 8 3l-3-2c-4-3-10-11-9-12h9l8-2h-3c-6 1-3-2 8-5 22-8 34-14 42-20 6-6 7-6 5-3a342 342 0 0 1-18 23l20-8 15-10c8-5 8-5 13-15a594 594 0 0 0 18-43l-2 11c-2 11-4 35-3 38l1 1c3 0 3 2 1 8s-2 9-3 38c0 29-1 31-3 36l-2 9v23c-1 5-1 6 1 10 3 5 8 11 10 11l4-5c3-5 3-6 2-11v-47l4-16 6-21 2-5v11c2 32 0 53-4 59-4 5-5 7-2 16l3 10c0 2 2 5 4 4l1-5v-4l2 2c2 2 4 5 4 8l3 7 17 4c4 1 4 1 4-1 0-3-3-8-8-13-3-4-6-14-9-28-2-11 0-31 7-61a2464 2464 0 0 0 15-56c1-7 4-17 9-29a232 232 0 0 0 19-70l4 5c4 6 7 9 15 13 4 3 5 3 5 8 2 11 1 17-4 27-2 6-3 6-7 8l-10 1h-4c1 1 7 3 11 3 3 0 3 0 2 2l-8 4-3 1h3c4 0 7-2 12-7l8-8c5-4 9-12 12-21 2-4 2-5 2-3 2 5 1 7-3 14-5 10-7 12-22 23-22 16-30 28-33 53-1 8-1 20 1 20l3-7 6-12c2-4 2-4 2-1-3 13-2 30 2 40 2 6 8 15 7 11-2-5-2-17-1-22l5-14c4-7 6-11 19-23a114 114 0 0 0 24-30l-3 24c-5 21-15 34-27 34-2 0-2 0-1 1l6 1h3l-4 3c-5 3-3 3 4-1s20-16 27-25c4-7 10-19 12-28 3-10 4 3 2 21-1 9-1 10-4 12-2 2-6 5-10 6-7 4-7 4-4 4l9-2 6-3-1 3c-2 10-6 17-13 21-3 1-4 2-2 2 3 0 10-4 13-7 2-4 7-17 7-21l5-7a52 52 0 0 0 15-39c0-14-1-21-8-34-3-6-4-10-4-13 0-11-5-26-12-36-4-5-18-17-29-23-7-4-7-4-6-8v-12l3 4c3 6 5 11 4 14l1 2c3-2 0-12-5-21l-7-14-6-13-5-11-1-3v-5c2-8 2-12 0-19-3-7-7-24-8-30l-4-7c-2-3-13-9-17-9-3 0-9-7-11-15-1-3-1-4 1-3l1-1 2-1c2-1 4-4 2-5v-1l-1-1-1-9V46c-1-2-1-2 3-1 10 2 10 0 0-3-6-3-15-10-15-12l-5-1c-7-1-17-6-19-10-2-3-4-6-6-6l-5 4-5 3-3-4-2-5-2-1-2-2c0-1-3-1-6 1zm68 84-3 1c-3 0-3 0-3-4v-4l3 3 3 4zm0 10-3 1c-1 0 2-3 4-3l-1 2zm-73 1a305 305 0 0 1-13 16c11-15 16-22 13-16zm90 8a121 121 0 0 1 1 26c-1-5-3-7-11-13l-6-7c-1-3-1-3 1-6l4-4c2-1 11 2 12 4zm-111 13-9 14c-3 5-7 10-15 17l-12 11 9-18a143 143 0 0 1 31-31l-4 7zm34 24c0 10-3 17-11 25l-12 9-15 6c16-10 31-29 35-44 2-6 3-4 3 4zm-34 16-21 21-10 5c-4 3-4 3 5-6 7-7 25-22 27-22l-1 2zm31 10c-5 23-10 33-25 48a97 97 0 0 1-58 33h-5l1-7c2-16 5-25 9-30l3-4 2 4c2 5 6 10 8 10l-1-3c-2-1-4-5-5-8l-2-5 4-3c12-9 19-13 38-19 16-6 25-13 32-23l2-3-3 10zm88-5v3l3 2v2c-1 1-1 1 1 1 1 0 3 2 4 5l7 8 3 6 2 11-2-3-11-14c-8-8-10-10-9-11 2-2 1-5-1-9s-2-4 0-3l3 2zm-58 9-3 5c-12 19-14 21-14 19l2-3c2-1 2-2 2-6 0-3 1-4 3-6l2-3s1-2 3-2c3-1 3-2 0-5-2-3-1-4 3-3 1 1 2 2 1 4zm70 25c4 7 4 8 7 6 2-1 2-1 2 3l-1 4c-1 0-11-10-14-16-3-4-4-6-3-7 2-1 4 1 9 10zm-220 9a400 400 0 0 0-29 38c5-20 11-29 27-39l6-3-4 4zm24 9-5 11c-5 11-6 16-6 22v6l-7 2-8 3c-4 1 8-23 17-36l10-13-1 5zm98 5-1 2v-2c1-2 2-1 1 0zm136 15c8 7 15 19 14 27 0 3-1 3-6-5a218 218 0 0 0-27-32l-4-3 9 4 14 9zm-39 7c4 3 7 10 5 10l-11-8c-2-1-4-5-5-7l-2-8 1-3 5 6 8 10zm-102-2-6 24c-6 26-10 34-22 49-22 28-44 47-72 65l-8 4-4-4c-8-7-13-20-16-37l-1-12c0-2 37-43 38-42l1 7c2 11 7 21 13 25 4 3 5 2 1-1-5-6-10-19-10-27v-4l2 2c4 7 13 12 26 15 7 2 19 1 23-2 4-2 4-3 0-1s-15 1-20-1l-3-2h10c3-1 3-1-3-1-10-1-21-9-26-18l-2-4 4-5c8-6 22-15 32-20l17-5c10-1 14-2 14-5 0-2 0-2 1-1 1 2 8-4 11-8l3-4-4 13zm-96 12-2 1c-1-1-1-2 1-10l1-4 1 6-1 7zm212 27-2 5 1-6 1-5v6zm-105 10-2 4v-4l2-6 2-3v3l-2 6zm151 27c4 15 3 35-2 42l-2 3v-11a280 280 0 0 0-2-44l-1-8 2 4 5 13zm-311-1c-4 26-7 33-7 17l3-20c2-7 4-11 6-10l-2 13zm9 43c-1 2-6 1-9-2l-3-3 5-5 4-5 2 7v8zm25 24c3 2 3 3 2 3-1 1-2 0-3-2-3-5-2-5 1-1z"/></svg>