<svg version="1.0" xmlns="http://www.w3.org/2000/svg" width="337" height="683" viewBox="0 0 253 512"><path d="m108 9-4 3c-5 3-12 10-12 12h-2c-2 0-2 0-2 2l-3 6c-3 4-3 7-1 11 0 2 0 2-1 1l-2-2-3-1c-4 0-7 4-7 11 0 5 1 6 3 8 3 3 6 4 6 2l1-1c2 0 1 10-2 19v10l3 7 2 2v-2c-2-3 1-3 3 0 2 4 1 5-6 4-7 0-8 1-5 5l1 3c-2 0-1 3 1 6 2 2 2 3 0 10l-2 8-3-2-4-3c-2 0-3 8-2 15s0 16-2 19l-3 7c-1 6-1 7 1 10s2 4 0 3c-2 0-3 1-3 5l-2 6c-1 2-2 3-5 2-2 0-3 0-5 4-2 3-3 4-8 5-3 1-7 3-8 5-4 5-10 17-8 17l4-2 4-2 3 5 3 4 2-5c3-12 6-17 7-13 1 3 1 3 3 2l5-2c2-1 2 0-3 4l-5 5v9l1 10-5 10a320 320 0 0 0-26 68c-4 9-5 11-2 11l3-1c1-1 2 0 3 1 2 2 2 2 6 1 3-2 4-2 4-1l6 14 9-1c6-2 7-2 7 0 4 5 4 5 8 3l4-1 6 5c4 4 6 6 7 5 2 0 2 1 2 7 0 9 2 15 8 29 10 21 17 41 17 49 0 4 0 4-2 3h-7l4 7c2 5 3 7 2 9 0 3 1 4 5 2 2-1 2-1 2 4-4 26-3 31 1 36 4 4 5 4 9 3 6-2 10-12 7-22l-1-10-2-9-1-12-4-19c-5-13-7-26-8-51a531 531 0 0 0 0-28c1 0 3 3 7 13 9 23 9 22 9 60-1 30-1 34 1 37 3 6 9 5 13-3 2-4 2-4 0-22 0-5 0-6 2-6 3-1 4-2 1-6v-7c2-10 1-13-3-9-2 2-2 1-2-8l2-22v-17c0-5 0-6 3-9l4-4 7 2 9 3c2 0 9-13 9-16h2l4 1c3 0 3 0 5-3 1-4 2-4 7-4 10 1 11 0 13-3l2-7c1-3 1-4 4-4s4-1 4-4c1-2 2-3 4-3 4 0 11-4 11-6l-2-6c-4-6-3-10 2-10l7-2c3-2 3-2 3-6l-1-8c-1-4-1-5 1-6l1-4c-1-3 0-4 3-7l4-5c0-1-4-3-9-4-4-1-9-3-10-5l-8-5-16-10-23-12c-12-6-16-9-11-9 2 1 3 0 3-4 0-3-1-4-3-6l-3-1-6 1c-4 1-6 1-9-2-3-2-3-2-2-5l5-6c4-4 4-6 2-27l-1-13c1 3 4 5 5 4v-9c1-7 2-10 5-17l4-9c0-1-1-2-3-2-4-3-6-5-6-7 1-1 0-2-1-3l-3-5-2-5v-3l1-4c0-2 1-2 3-1l1 3c-1 3 1 4 2 1 0-1 1-2 3-2h3l-3-1-3-3-2-5a250 250 0 0 1-7-13l1 2 1 5-2-4-1-3v-3h1c3 0 6-2 6-4l1-5c1-1 0-4-1-7-2-4-2-4-6-4s-5-1-4-3c0-2-5-10-7-9l-1-1c1-3 0-4-2-4h-3c0-2-7-7-14-10l-12-5-1 1zm45 76c-1 1-1 0-1-2 0-1 0-2 1-1v3zm-49 14c3 0 3 1 3 4l-4 3c-5 2-7 2-7 0l1-1c2 0 2 0 0-2l-2-3h2c1-1 2-2 3-1h4zm24 1c-1 1-1 1 2 1 4 0 5 0 2 1-2 2-2 2 0 2s2 0 1 2c-1 3-1 3-5 1-3-1-4-3-4-7l3-1c3 0 3 0 1 1zm-41 58c-1 1-1 0-1-1s0-2 1-1v2zm52 3c1 6 1 7-1 10s-5 4-5 2l4-17c0-3 2 0 2 5zm-51 7c1 3 1 3-1 2-1-2-1-2-2-1-2 1-2 1-1-2l1-5h2l1 6z"/></svg>