<svg version="1.0" xmlns="http://www.w3.org/2000/svg" width="683" height="487" viewBox="0 0 512 365"><path d="m190 13-6 3-12 4c-1 1 0 1 4 1l5-1-2 4c-2 3-3 3-8 3l-9-1c-5-2-8-2-8-1 0 2 5 12 8 15l7 6 4 2-4 1c-4 2-4 2-7 0l-6-3c-4-3-5-2-3 1 3 5 7 7 14 7l6 1-5 5c-6 6-10 8-13 7l-1 1c2 2 11 4 15 4h3l-2 1v1l1 2h7l-8 3c-9 1-21 1-31-1l-3 1c0 2-1 2-5 1-4 0-5-1-9-4l-4-5h-11c-11-1-14-1-14 1l3 2 3 1-7 7-9 10-5 3c-5 1-7 3-7 7l-1 5c-1 1-20 6-27 6-5 1-7 1-13 5-9 5-10 7-8 9 4 2 21 2 23-1l3-1 9-3a267 267 0 0 1 37-8c0 2 3 3 7 3l7 1c2 0 3-1 5-5l3-6 4 1 6 1 12 4c11 3 14 5 17 8 1 2 1 2 4 0 2-2 2-3 2-6-1-4-1-4 6-3 4 1 6 2 9 5l7 4 1 2 4 3 4 2-3 6c-5 6-14 11-18 9-3-1-3-1-2 1 1 1 3 3 6 3l4 2-6 5c-10 9-21 14-27 12-4-1-3 1 2 3 4 1 14 1 21-1l6-1-29 32c-12 12-18 19-16 21 0 2 5 5 6 5v-2c-2-3-1-8 1-10 2-3 16-14 17-13l-1 5-2 13-1 8-5 4a410 410 0 0 0-37 30c-17 15-17 16-10 16 3 0 3 0 2 1-4 2-21 0-28-2-3-2-7-3-11-3-6 1-6 1-9 4l-3 4c0 3 16 4 48 4 18 0 24-1 29-6l4-3 1 3 11 11c10 9 10 9 27 7 10-1 10-1 13-6 4-6 14-10 26-12 14-1 13-1 13 2l-7 8c-5 5-5 5-4 7l5 4 2 1v5c-1 3-1 4-4 5-2 1-3 3-3 7-1 4-2 5-6 9-5 6-5 7 2 7 3 0 7-3 11-8l3-5c5 0 12 9 16 21 2 8 6 14 9 14s2-4 0-11l-4-9-2-5c-1-3 2-3 10 0 5 2 7 3 10 8 4 5 10 8 12 7 3 0 2-1-1-4-2-3-3-4 0-4s3-2 0-3l-3-3 5 1 9 4c3 0 4 0 7-3 2-2 2-3 2-6s-2-7-4-10c-4-6-5-11-3-14v-3c-1-3 0-7 4-10l2-5c0-2 2-6 6-10l2-5c0-2 9-17 14-22 3-3 3-3 4-2 4 8 13 41 13 49 0 6 0 6 2 6 3-1 10-11 16-22l4-7 4 5a119 119 0 0 0 56 39l7 3 11 5c9 3 11 3 11-1l3-3c1-1 2-2 2-5l1-4 1-1c0-2-16-5-23-4-10 0-31-6-43-15-6-4-20-17-24-23-3-4-3-4-2-8l1-4 9 4c19 9 38 9 56 1 6-3 6-3 14-2l28 1c20 0 23 0 20-4l-2-3-3-2-3-1c-1-1-9 0-17 2-16 4-51-3-68-14l-5-3 6-2 8-3c2 0 9-5 9-6s-4-4-7-4c-4-1-9 1-12 4-2 2-10 5-12 5s-41-38-41-40 0-2 5 0c10 4 16 2 7-2-5-3-17-15-22-22-2-3-2-3 0-3l4 2c10 2 27 14 33 23 5 7 6 7 4-3v-5c2 0 19 11 23 15 7 6 14 17 17 23l2 5c2 0-3-11-8-19a173 173 0 0 0-37-42l7 2 16 3c8 0 10 0 15-2 2-1 6-3 7-5l2-2-3 2c-7 4-20 4-42-2-11-2-12-3-18-8l-16-11-10-6h8c10 0 18-2 25-6a49 49 0 0 0 20-22l2-6 1-3-2 3c-5 10-21 15-43 15-14 0-22-1-34-5-11-3-13-5-7-5l5-1c1-1 1-1-2-1h-4l5-2c5-2 6-4 10-10 2-5 2-7 2-12v-8c-1-3-6-1 90-25l76-20c11-4 18-7 17-8l-15-1c-15 1-15 1-97 19l-34 7-86 19c-1 0-10-17-10-21 0-2-2-5-9-13l-11-11-15-2-16-2c-4-1-3-1-7 2zm113 56c1 2-3 8-9 12-7 5-11 8-16 9h-3l3-4c1-2 3-5 3-8l1-4-2 4c-3 6-9 10-15 10-5 1-6 1-7-1l-3-2 4-4c4-3 5-4 22-8l21-4zm62 45-2 1v-1h2zm-188 79-6 12-5 4-1-8c0-8 0-9 2-11 2-1 15-9 16-8l-6 11zm8-3-6 8c-4 5-4 3 2-6 3-5 5-6 4-2zm-10 16-2 1 1-2 1-2v3zm224 19c2 2 1 2-3 1l-2-2c1-1 3-1 5 1zm-176 18c-3 4-3 5-3 11 1 6 0 6-2 6l-7-2-4-2 1-1c3 0 7-4 9-8l8-10-3 6zm249 14c0 2-3 1-6-1-1-1-2-1-1-2s7 2 7 3zm-206 4 7 2v4c-2 13-4 19-6 21-2 0-4 6-5 12-1 4-1 6 1 9l1 10v7l-2-3-6-4c-5-2-7-4-6-6 0-4-3-13-7-18v-5l2-8 6-15c5-10 3-10 15-6zM67 277c1 1-4 4-6 4-2-1-1-3 1-4h5zm367 34c2 1 1 4-2 6s-4 2-8 1l-2-1 3-4c3-3 4-4 6-3l3 1z"/></svg>