<svg version="1.0" xmlns="http://www.w3.org/2000/svg" width="424" height="683" viewBox="0 0 318 512"><path d="M152 8c-3 8-5 10-13 15-3 2-3 2-6-1l-2-3 1 6c0 7-1 13-4 13-2-1-3 0-1 1l1 3c1 4-7 13-11 14l-4 1 3 1 5 1c3 0 3 0 2 3l-2 3-1 1-2 4c-4 3-4 4 2 1l4-1-1 17-1 4-5-1c-5 0-6 0-8 2-5 4-3 8 4 8h2l-2-3c-3-2-2-4 2-4 5 1 5 3-1 14-5 10-5 11-9 13s-5 2-7 1c-4-4-14-30-14-38 0-4 3-8 10-10l6-3 5-4v-2l-6 1c-5 3-7 2-6-3 1-4 2-5 4-3 2 3 2 1 0-2-1-4-1-4 6-4 5-1 5-2 0-3l-4-1 3-5 4-6c0-1-5 2-9 6l-7 5-2 2c1 0 0 2-2 3-6 4-7 6-11 16-4 12-4 12 1 36 2 17 5 24 9 29l4 6 2 2-5 6-21 22c-27 27-46 51-53 66-5 10-13 32-12 33l3-4 22-28c4-2 8-9 15-22l6-10-2 9-2 8 5-4c2-3 7-6 10-7 9-5 13-10 19-24 2-4 12-15 13-15 1 1-3 8-5 10l-5 6c-1 4-2 17 0 17 5 0 28-20 36-32 5-7 5-7 6-4l1 3 4 7c4 8 11 28 12 35 0 4 0 6-2 10-5 9-13 21-18 26-5 4-5 5-12 5l-8-1-4-1-2-2c0-2-1-2-2-3h-4c-1 0-2 0-2 2l-1 2c-2 0-1 2 2 3 2 0 3 1 3 2 0 4 17 4 26 0 7-3 17-13 23-21 3-4 3-4 3-2l1 20 1 18-8 15-11 21c-5 9-4 19 3 25l2 3c0 2-15 10-22 13l-12 3c-5 0-5 0-4 1l6 4 3 2a52 52 0 0 1-32 9c-12 1-18-1-28-8-6-4-9-9-8-16v-1l-2 9c0 6 1 9 3 13 3 7 11 13 22 18 5 3 7 3 11 3l10-3c4-1 6-2 11-1 9 2 21 1 30-2 9-4 17-8 25-16l6-6 6 6c5 6 6 7 6 11l-1 11-2 13c0 19-6 53-13 78-5 19-5 20-9 23s-4 4-4 7 1 4 3 3c4 0 16-6 23-10 4-3 5-3 5-8 2-12 3-14 5-7 2 5 3 6 5 5s2-2 1-14c0-13 0-14-4-19l-3-6 1-6c3-11 17-46 17-45a1068 1068 0 0 1 6 38l1 9 3 2c2 0 8-6 11-10 5-7 5-11 4-16-2-5-3-14-1-14l4 3c2 3 3 3 5 2l1-2c0-2-11-24-13-25l-8-3-7-2 1-4v-14c1-8 1-11-1-18-3-12-3-33 1-33h4c3-2 18 10 23 19 3 6 6 9 8 9 3 0 16-7 20-12l5-5 9 6c13 7 13 10 1 23-16 18-34 26-44 21-4-3-4-1 1 6 4 6 9 9 15 10 3 0 4 0 4-2 2-4 6-8 11-11l5-2c0 3-4 9-9 12-4 2-4 3-6 9-3 9-5 19-4 20l18-9 11-6v-5c0-7 0-9 3-11l3-2-1 4-2 10-1 6 3 5 11 13v-12c0-13 1-24 4-39 2-8 2-11 1-13-3-8-1-19 7-38 4-10 6-18 4-19-1-1-7-3-17-4-18-2-35-6-40-7-2-2-4-4-8-12-9-17-9-18-9-42l-1-25-1-5 5-6 4-6 9 6a94 94 0 0 0 13 7l2 1-3 5c-3 6-3 9 1 13l3 7c0 4 1 6 2 5l1-3c0-3 0-3 3-2s6 5 5 6h-4c-4 0-3 1 2 3l4 1-3 1c-4 2-4 3-1 3l5-1 3-1v5l1 6 3-9c0-3 2-2 8 1 6 5 11 11 13 19 1 5 1 5-1 7-2 1-3 4-1 6l2 6 1 5 1-4 4-7c2-2 2-2 1-5l-2-5c-2-6-11-18-18-23-7-6-7-6-7-10 0-8-11-31-16-34l-19-18c-1-2-1-3 1-5 4-6 6-14 6-25 0-14-2-21-8-26-4-4-4-5-5-10-1-6-1-6 2-6 4 0 5 2 5 6 0 7 1 10 9 19l12 15 3 5 2-2c4-8 5-31 2-40-2-6-5-10-12-13-7-4-3-3 8 1l15 6c10 2 26 4 31 3l3-1h-4c-5-1-63-18-72-22-9-3-23-10-29-14-5-4-8-8-13-17-3-6-4-7-2-7l2-1-2-1-4-5c0-3-3-7-4-10l-4-6 4-5 3-6-6 4-5 3-6-2-8-2-5-2c-3-3-3-3-3-11l-1-7-2 7zm-5 14-1 1v-1l1-1v1zm-3 3-4 3v-2c2-2 4-3 4-1zm60 85c5 9 11 23 12 32l1 14v8l-7-7-6-7v-9l-1-8-1 1-3-1-8-3c-5-2-5-2-8-9l-3-9c0-2 0-2 4 2l4 4 1-11-1-11 6 4c5 3 8 6 10 10zm-30 42c-1 1-1 1 5 3 7 2 13 6 23 15l11 11c2 2 1 6-1 12l-1 3-4-3-11-6c-6-3-18-12-18-13l-4-3c-4-2-8-7-9-11s0-7 4-12l3-5 2 4v5zm60 26c-2 1-2-1-1-3v-3l1 3v3zm20 37c-2 10-3 11-5 5-1-2 0-3 1-6 3-4 4-4 4 1zm5 13-1 2-1-2c1-2 2-1 2 0zm6 2 2 4-4-2c-4-4-3-5 2-2zM89 253h-1l-2-1h2l1 1zm126 37 13 15 7 7-5 2c-11 5-16 4-24-6-4-6-4-6-4-12 1-7 5-17 6-15l7 8z"/></svg>