<svg version="1.0" xmlns="http://www.w3.org/2000/svg" width="583" height="683" viewBox="0 0 437 512"><path d="m154 5-4 13h-3l-4-1c-3-1-3-1-2 2 0 2-1 1-3-3-3-6-10-13-12-13l-8 4c-5 4-9 7-18 18-3 3-5 4-7 4-11 0-23 5-34 15-5 4-6 5-9 4-5 0-19 2-25 5l-9 6c-4 3-4 3-4 9 0 12 5 24 15 35 4 6 4 6 4 13 0 14 4 39 9 53 5 16 33 27 68 27l14 2c1 2 1 2 3 2 1-1 1-1 1 2-2 6-6 7-10 3l-11-5c-3 0-4 0-7 4-3 2-4 4-4 6v2H80l-18 2-4 1v8l3 15 3 7H49c-15 0-28-1-42-4l-7-1a71 71 0 0 0 22 24c6 4 18 8 26 8 5 1 8 2 13 5l10 5c3 0 4 0 16-10a153 153 0 0 1 29-19c7-5 8-3 1 3-9 8-14 18-16 32-1 7-1 9-5 12-3 4-3 5-3 12 0 5 8 28 10 31 2 2 2 2 7 0l14-7 10-4 2 3c4 5 10 10 19 14a237 237 0 0 0 54 44l13 9c1 1 0 2-4 3l-16 6c-9 4-12 5-13 4-6-4-7-4-13-2-4 2-6 3-8 2-2 0-4 0-6 2l-3 2-5-2c-7-3-11-4-15-1-3 2-7 8-10 16l-5 13c-4 7-4 19-1 25 2 4 7 8 10 8 4 0 7-3 8-6 0-3 1-4 9-15l4-5 4 4 8 7c3 3 5 3 8 3h3l-1 6-1 7c1 2 0 5-2 9-4 9-4 19-1 22l5 2c4 0 11-4 12-7l3-4 3-5 2-4 4 3c6 4 13 6 13 3h13c4-2 4-2 6-9v-15l-1-7a242 242 0 0 0 34-28c3 0 11-9 13-14 2-3 2-6 2-12s-2-23-5-35v-3l12 2c18 3 48 3 62 0a130 130 0 0 0 74-45c11-17 15-42 11-61-3-15-12-28-20-34-10-6-23-8-39-7-11 1-13 1-20 5-6 3-10 5-16 12a46 46 0 0 0-16 38v9l-5 6c-9 11-22 15-43 15-14 0-23-1-24-3-1-1-1-2 2-7l3-14 1-10c2-3 1-10-1-16-3-7-6-8-13-8-11 2-12 2-12-1l1-5 1-6c1-4 1-4 7-4l10-4 24-12c7-3 11-2 19 2l6 2c-1-2-13-10-17-11-9-3-30 0-41 4l-4 1-2-10a631 631 0 0 0-10-56c-2 0-6-5-5-7l1-15 4-24a1851 1851 0 0 0 15-48l5-7c2-4 5-7 7-8 4-3 4-5 1-6-3 0-8 2-10 4l-4 1c-3 0-4-1-8-5l-7-9c-2-4-7-9-10-9s-3 0 0 4l6 12v3l-7-5c-4-3-6-4-9-4s-3 0-3 3l6 6c4 4 5 8 2 6l-4 1c-1 0-1 1 1 2s4 3 4 5l4 5 4 2-3 3-5 3c-3 1-5 6-4 8l-1 4c-2 2-1 4 2 3 3-2 3-1-1 6-3 6-5 9-5 6l-3-4-8-14c-8-15-17-27-27-35l-4-3 2-3c2-4 3-10 1-13-1-2-5-3-7-3-3 1-3-2 0-8 3-4 3-5 1-8-2-6-3-7-3-1zm-31 207c0 1-2 3-5 3l1-1c3-3 4-4 4-2zm21 12a303 303 0 0 0 9 25c0 2 0 2-7-4l-9-7-6 3-4 3 3-4 8-14c0-2 3-6 5-6l1 4zm-4 24c3 4 0 6-5 4-2-1-3-4-1-5 1-2 4-1 6 1zm80 197-6 6c-3 0-6 2-7 4l-6 3-6 4-3 2c-2-1-1-2 1-7l2-9c1-3 1-3 11-4 16-1 15-1 14 1z"/></svg>