<svg version="1.0" xmlns="http://www.w3.org/2000/svg" width="451" height="683" viewBox="0 0 338 512"><path d="M222 8c-2 4-2 5-6 6-3 1-5 3-9 7l-6 9-2 3c-2 0-3 2-3 10l2 9c2 2 2 3 1 4-2 3-5 2-6-1l-2-2c-2 0 0 8 3 9 1 1 1 2-1 5-3 4-7 5-8 3l-2-1 2 3 3 3-2 2c-2 1-4 2-9 2l-13 4c-8 5-9 6-8 10 0 3 0 3-2 2l-5-4c-6-6-7-6-8-4-2 3-1 7 2 7l-4 2-6 2-5-2-6-2c-2 0-3-1-4-3 0-3-6-8-9-9-2 0-3-1-3-3s-6-9-8-9l-3-3-4-2c-2 0-2 0 0-5l3-8c1-8-5-13-6-7l-2 5c-1 2-1 2-1-2 0-7 3-10 10-11 6-1 6-3 1-3l-2-1-7-1c-5 0-6-1-6-2 0-3 0-5-2-7-3-3-4-2-2 1 3 4 2 5-1 2-3-4-7-6-13-6-4 0-4 0-2 1l4 5c1 3 1 4-1 6s-2 4-2 10c0 14 6 24 16 29 5 1 5 2 5 5 0 6 2 15 3 16l5 2c3 0 3 0 3 5 1 5 3 10 7 12l4 4 7 5 9 3c4 2 8 2 11 1s3-1 7 2c8 7 16 9 22 7h7c4 1 8 0 8-3l-2-6c-2-5-2-6 0-3 2 4 8 5 13 5 3-1 4-1 4 1 0 4-7 12-12 14-4 0-4 2 0 3l3 2-3 2c-3 1-4 3-2 3l1 1c0 2-9 4-21 6-21 2-30 5-41 12l-5 3H98c-12-1-12-1-10 1 1 2 1 2-6 1l-13-2-7-1 5 5 4 4H61l-13 1-2 1 2 3c2 4 13 12 18 13h21l-15 2-19 2c-9 2-20 7-25 10-5 4-12 12-11 13l15 1a146 146 0 0 0 90-22c11-7 19-9 28-9 6 1 10 3 14 8 3 4 2 8-2 20l-2 9-4 9c-3 8-3 8-2 13l1 5-7 9c-6 8-6 8-9 7l-4-2c-4 0-7-3-11-11-2-5-6-10-12-16l-9-9-1 4-1 11 1 6-3-1c-4 0-4 0-4 2l4 7 6 8 7 4 11 7-8-3-12-3c-5 0-5 0-4 2 2 2 2 2-3 0l-14-1-7 1 3 3c3 4 4 5 2 5-4 0-26 13-24 14l35 3c5 0 7-1 9-3l6-2c4-1 12 1 12 2 0 2-2 4-6 7-3 3-5 3-7 3-3-1-3-2-6 13l-3 4-3 4c0 2-1 3-2 3l-2-1c1-3-1-2-9 1-7 3-10 5-6 5l5 1 2 1-2 3c-6 6-9 5-8-3l-1-5c-1-1-2 2-4 5-3 5-3 6-4 3-1-2 0-4 1-7l2-8v-8l-3-12c-1 0-19 61-18 62l3-3c3-2 4-3 4-5 0-5 3-9 6-9l2 2a110 110 0 0 1-18 35c-3 9-10 22-17 28l-7 8-8 16-8 16 5-4a919 919 0 0 1 29-28c2-4 13-16 22-22 6-5 7-6 9-12l3-6 7-4c7-5 9-5 11-1 2 3 0 6-5 8-4 2-5 3-7 6l-2 5 20-11a374 374 0 0 1 34-20c2-2-4-2-8 0l-9 1-8 4c-3 1-5 3-6 2l-4-6c9-7 32-26 31-27s-8 1-10 3c-4 3-5 3-5-2s-1-6-3-4h-2l2-3 3-3c0-3 1-4 9-8 9-4 9-4 7-6s-1-8 2-12l3-4 4-4c3-3 5-4 13-5 18-4 39-12 52-21 6-4 6-4 9 0 1 2 0 2-2 4l-5 4c-2 2-2 2 1 3l7 2 4 1-6 4c-10 8-17 17-19 25l1 3a159 159 0 0 0 37-15c1 0 5 10 5 15l1 5-9 6c-12 7-17 14-25 30-7 13-16 28-20 32l-9 3c-7 1-9 2-13 10l-6 10c-4 4-5 9-3 12 1 1 1 2-3 7-2 2 0 11 2 14 4 5 7 6 12 3 5-2 5-2 12-17a182 182 0 0 1 47-59l3-2-1 4-2 30-1 27-3 6-5 8c-4 2-7 8-7 13l-2 11c-4 7-4 9 0 11 2 1 2 2 2 7l1 8c3 4 7 6 11 7 3 0 4 0 7-4 4-4 5-5 3-11-2-5 4-42 12-68l13-51c4-18 7-27 11-32s4-8 3-16c-2-7-2-8 0-14l5-19c3-11 4-13 7-16 11-12 18-24 21-38l4-11c6-8 7-12 8-27 0-12 0-16 2-21l2-12c1-4 2-5 4-7 4-3 7-4 10-4 4 1 4-1 0-3l-3-3c0-2 7-6 11-8l3-1-4-1c-6-2-10 0-15 7-2 2-2 2-3 0l-7-7c-6-6-5-4-11-32l-2-10 2-2 2-3 2-2 5-4c1-3 4-4 6-5 5-2 6-3 4-5s-2-5 0-7h4c3 1 3 1 4-1a291 291 0 0 1 9-26l-9 6a1075 1075 0 0 0-17 15l2 1c2 1-3 4-8 5-3 1-3 1-4 4l-1 4-3 4-4 6c-2 2-2 2-5-5l-4-8c-3 0-3 7 0 13 2 3 1 6-1 5-2 0-3 6-2 10 1 1 0 3-2 5-3 4-4 4-5 1 0-4-6-8-11-10l-8-3-2-1 5-5c6-6 8-9 9-18 4-25-2-44-15-48l-5-3c-2-2-4-2-9-2h-6l1-4 1-8c0-4-1-4-2-2l-1 3V9c0-6-2-7-3-1zm-5 9c-1 2-6 4-7 3-1 0 5-5 7-5v2zm-6 7c-2 2-4 2-3-1l3-1v2zm-6 5-1 1v-2l1-2v3zM67 44c0 10 0 11-2 8-2-6-1-23 1-21l1 13zm115 37-6 3c-6 2-9 1-4-1 3-2 11-3 10-2zm-70 34 2 4-7-6c0-2 3-1 5 3zm173 12 1 7-2-3-3-7c-2-5-2-6 0-7 1-2 1-2 3 0l1 9zm-111 1-1 3c-2 1-7 0-7-1 4-8 4-8 6-7l2 5zm11-3h-2c-1-1 0-1 1-1s2 0 1 1zm-28 5h-2c-1-1 0-1 1-1s2 0 1 1zm63 38 2 7-8 11-8 10 1-11c0-11 2-18 4-18l1-2c0-2 1-2 3-2s3 1 5 5zm-11-3c-1 2-3 2-3 1l2-2 1 1zm-18 49a270 270 0 0 1-19 23l5-15c3-5 4-6 6-6l6-2h2zm1 16-1 5c1 3 0 6-5 16-7 15-15 26-20 28-2 2-5 2-9 2h-5l6-8c7-9 8-10 10-9l4-8a266 266 0 0 1 20-25zm-80 91 2 2-2 3-3 1-1-2c-2 1-2-1 0-4 2-2 2-2 4 0zm-20 26c-7 6-8 6-3 0 8-9 8-8 8-7l-5 7zm-21 21c-1 1-2 2-3 1l3-3v2zm-11 3c-1 1-1 0-1-1s0-2 1-1v2zm19-1-2 2c-3 2-4 1-2-2 1-1 4-2 4 0z"/></svg>