<svg version="1.0" xmlns="http://www.w3.org/2000/svg" width="333" height="683" viewBox="0 0 250 512"><path d="m162 1-7 3h-4c-1-1-3 0-10 8-14 15-15 16-16 28-1 9-2 10-3 10-3-1-2 1 2 4 4 4 4 4 3 6-2 6-8 12-13 15-8 3-5 6 7 6l7 1-1 1 1 1h6c3-1 3-1 1 4-1 4-1 4 1 4 1-1 2 0 3 1 1 2 1 3-1 4l-2 4c0 2-4 5-10 9-8 4-9 5-9 8 0 2-1 3-6 6-12 8-17 9-23 6-7-4-15-3-35 5-20 7-25 9-32 14-13 8-21 18-21 26l1 4v-1c-1-5 2-10 8-15l11-9 5-2-3 4c-3 4-6 11-6 15s3 10 7 14c4 3 9 6 9 4l-1-1-5-3c-2-3-3-3-2-12 0-8 0-11 2-15 4-9 8-11 26-12h11l7 4c7 3 8 3 13 3 4-1 6 0 10 1l4 3-7 4c-15 7-36 23-44 33-15 18-26 43-33 74-2 8-3 10-4 10l-4 8-3 8 3 3 2 4-2 6-1 6 4 5 4 6 1-4-2-11v-7l3-1 3-3 1-8c1-5 2-6 11-15 6-7 11-10 14-12 7-3 29-14 34-18l5-3 3 2c1 2 6 4 10 6l7 3v6l3 12c2 3 3 7 2 7l1 2 3 10 6 21c3 14 4 21 2 26l-7 10-8 12c-3 4-4 5-6 5-5 0-11 2-14 5s-4 6-2 14c1 4 1 6-1 14l-2 14c0 5 1 14 4 19 2 3 2 6 2 17l-1 16c-1 3-2 11-1 29 1 12 1 13 3 15 7 6 18 6 23 2l2-3-2-6-3-9c-3-4-5-17-5-24 0-9 5-30 9-41l1-3 2 2c2 3 3 1 6-9l4-12c2-4 2-6 3-15v-10l9-16 11-19c2-7 3-18 4-33v-16l6-2 6-2 1 9 3 19c2 16 3 25 7 32 4 8 6 19 5 22l-3 10c-2 9-2 13 2 19l4 12c2 13 3 15 6 11l2-2 3 14c4 17 5 38 2 49-4 16-2 22 9 22 5 0 6 0 8-3 3-3 3-4 3-10l-1-12a218 218 0 0 1 1-58c2 2 7 2 7 1l-1-6c-2-4-2-6-3-24v-22l-6-5c-4-3-5-4-6-7 0-2-2-8-5-13-4-9-4-10-4-17l1-10 2-21c2-33 0-28 14-41 12-12 18-20 24-31 2-7 3-9 3-15 0-8-2-19-6-27l-1-5 10-11 7-21c0-5-7-16-13-21-2-2-2-3-2-6 0-4-1-5-6-11-6-9-9-12-10-17l-1-5-1-4c0-3 1-3 3-4h3l-5-5-4-6 3-2 2-1-4-2c-5-2-5-5 0-5l6-1c1-1 1-1-1-1-4 0-7-4-10-11-2-6-2-10 0-13l-1-2-3-5c-3-9-7-17-11-20l-5-3c-1 1-4 0-7-2-6-3-15-4-22-2zm42 87-1 4c-2 0-3-3-2-7 0-4 2-3 3 3zm-3 16 4 3c3 2 3 3 3 7v6l-2-2c-2 0-3-3-4-5-2-7-4-8-9-10-6-1-7-2-5-4h3c4 2 4 2 3 0s-1-3 1-4c1-2 1-2 3 3l3 6zM83 134c1 2 1 2-3 1l-7-1c-3-1-3-1 2-1l8 1zm72 119c0 2 0 4-2 6l-2 2v-25l2 7 2 10z"/></svg>