<svg xmlns="http://www.w3.org/2000/svg" width="465" height="683" version="1.0" viewBox="0 0 349 512"><path d="M140 17c-6 5-7 5-11 5l-5-1h-6l-7-1h-2l-19 1-20 1c-2 2-2 2 0 3l16 4c4 0 6 1 4 3-1 2-1 2 3 4l31 11c5 1 4 3-1 5-3 1-3 1-1 4a155 155 0 0 1-9 42l-6 16c-3 8-6 13-12 17l-8 8c-5 4-5 7-1 12l2 3-19 3-2-3c-1-3-1-4 1-6 2-3 6-6 12-10 6-3 6-3 4-5-3-3-14-7-18-7-7-1-10-3-10-4l-1-2-2-3c-1-3-2-3-4-2-6 1-8 0-13-4l-7-4c-2 0-8 8-11 14-2 5-3 7-3 14l2 12c4 6 9 12 16 17 4 2 7 5 6 5v3l3-1c4-1 5 0 4 4-3 5-2 9 1 4 2-2 5-2 5 1l1 3c1 3 3 0 3-4s1-4 4 0c1 2 2 2 3 1 0-1 2-1 7 1l8 2-2 4c-1 2-2 3-4 3l-4 1h-4l-5-2c-2 1-3 0-4-1h-3l-2 2c-3 0-7 4-7 6s-1 3-6 6l-6 4h8c4-2 5-1 1 3-5 5-7 6-14 6-7 1-13 4-16 9s-2 7 2 9c5 3 6 2 7-4 1-4 4-9 7-9l2-1h6l-5 7c-6 6-11 17-9 21 1 3 4 4 9 3l4-1-1-7 1-12c2-6 7-13 9-13l1-1 4-1h4l-3 5c-3 6-2 11 1 9l5-6 3-4c2 1 7-2 8-5l2-2c2 0 3-5 3-11l1-4 3-3c2-3 2-3 6-3s5 0 8-4c2-3 4-4 9-5 7-1 7-1 7 2s1 4 4 8l4 4h-10c-9 0-11 0-16 2-12 6-18 14-18 25v6l-6 2c-3 0-5 2-5 2l-2 3c-2 2-2 12 1 14 3 3 2 5-4 8l-13 11-7 8v5l3 11c2 4 4 5 8 8 7 3 13 9 13 12 0 2 2 3 7 6 6 3 20 16 30 28l3 4-2 7c-2 6-3 8-6 9l-3 6a254 254 0 0 1-5 25l-6 12-6 17-3 9-5 8c-6 7-9 11-7 11l2-1c1-2 3 0 1 1l-3 7-3 7c-2 3-11 23-11 26l4 5c4 3 5 4 9 3 6 0 12-3 17-9 6-6 7-8 8-13 0-3 1-5 3-5 3 0 7-5 8-9v-19l1-5v-3l1-4c-1-3 0-4 4-10 7-8 12-16 12-18-1-1 1-6 2-6l1 5c-2 10-2 10 2 10h5l-1-5-1-9c-2-4-2-4 0-7l3-2 2 4c2 4 2 5 8 3 4-2 6-6 8-17 1-7 1-7-1-10-2-5-3-8 0-8 2-1 3-5 4-13l1-5-4-1c-2-2-5-2-6-2l-2-1 8-12 7-11h5l6-1-1 9-2 8 4-3a85 85 0 0 1 31-20v2c0 3 1 2 3-1s3-4 8-5l12-3 9-2c3-2 6-7 7-12 0-4 1-4 4-5 4 0 12-5 12-7l5-4 2-1c-2 2-2 3-1 3 2 0 7-7 9-15 1-4 4-7 7-11l7-10c1-4 1-4-1-6l-2-2 3-5 5-4 5 1h4v7l-2 11c-3 10-11 26-21 38-3 3-5 6-4 7l7 1c12 0 13 0 17 7 3 7 2 7 12 5h5l11 10 12 10c1 0 10-20 14-34 8-25 8-50 1-69-6-16-21-35-36-45l-6-4 7-7c7-6 7-7 7-11l-2-9c-3-9-6-11-24-17l-10-4-8-9c-8-9-8-9-8-15 0-4 0-5 3-7l2-1-4-5c-4-5-4-5-2-7l1-3c0-2 2-2 10 1 8 2 12 3 14 0l1-1-4-2-9-6a247 247 0 0 0-20-14h-2c-2 1-4 0-11-4l-13-6c-2 0-3-1-3-3l-3-4-5-4-6-4c-4 0-5-2-1-2 2 0 3 0 3-2s-1-2-3-2l-4-2-8-2-8-1c-3-3-9-5-12-5-1 1-4 0-6-1l-5-1c-3 0-2 3 1 5l3 2h-5c-5-1-5-1-6-3 0-3-2-4-6-4l-7 5zm75 57c5 1 6 4 9 18l2 12c1 1 0 1-2 2-5 2-7 2-10-2s-4-4-6-3h-6c-5-1-5-1-10 2-4 2-5 3-7 2l-3-4c-1-3-1-3 2-2l2-1c-1-1 0-1 3-1h3l-3-2c-4-3-5-6-2-7 2-2 3-2 2 0l3-1c3-4 5-5 9-7 1 0 3-2 3-4 1-2 2-3 3-2l1 1v-3c0-2 0-2 2-1 1 1 3 3 5 3zm33 4c2 1 2 1 1 3l-6 3c-4 2-4 2-3 5l2 7c0 3 0 4-1 3v-2l-3-11-3-9 13 1zm-111 4c2 4 5 4 3 1-1-2-1-2 1-1s4 3 4 6l7 10c5 4 7 6 9 6s3 1 3 2h-2c-3-1-4-1-7 2l-7 5c-3 1-5 3-8 8l-6 7-3 1-3 2-5 4c-2 2-3 4-2 7 0 4 0 4-4 6-2 2-6 3-10 3l-10 2c-4 0-4 0-4-2 0-4 5-10 14-16l8-7 13-37 4-12c0-2 3 0 5 4zm115 37c3 4 4 4 18 8 16 4 25 8 29 11 2 3 3 8 1 13-2 4-13 14-15 14l-4-2c-6-4-24-12-32-14-11-2-11-2-7-4 3-1 3-1 5-12v-12c-2-9-1-9 5-3zm-12 38c8 3 15 8 20 15 6 7 12 19 11 20l-6-5c-7-7-16-14-29-22-8-6-9-7-6-8 2-2 4-2 10 0zM90 169h-5c-1-1-1-1 2-1l3 1zm23 1c-3 3-19 3-19 0l10-2c8 0 10 1 9 2zm26 7h-6c-2 1-2 2-1 7l-1 7c-2 2-6 2-9 0-2-1-2-3-2-8v-6l8-3 7-3 2 2 2 4zm51 7 1 19c0 24-1 30-7 40l-3 5 1-17 3-29 1-5c-1-2 0-5 1-7l1-4 1-2h1zM57 195c3-2 8 1 9 3l-2 8-3 4c-1 4-3 5-5 2-1-3 0-4 3-5 2-1 4-6 2-8s-6-1-8 1c-1 2-4 3-3 1 1-1 0-2-1-3-2-1-2-1-1-3h9zm62 8-10 4c-10 2-15 6-19 12l-5 5c-5 1-6 1-4-1v-4c-2-2-2-11 0-12 1-1 14-3 26-3l10-1h2zm8 3-5 3 7-7-2 4zm154 12c1 3 1 3-1 3-4 0-4-1-3-3l2-3c0-2 2 0 2 3zm-18 4-1 3c1 2-2 6-3 5l2-6 3-4-1 2zm-151 51-12 18-6 8 2 2 2 2h-2c-2 0-4-1-6-4l-4-6c0-2-4-4-10-5l-5-1c-2-1-2-1 2-3l4-2 3 3 4 2 4-3 17-12 13-9-6 10zm-21 32 7 4c3 2 4 2 5 1h3l1 2c1 1-3 17-4 17l-6-10-7-12c-2-2-3-4-1-4l2 2z"/><path d="M60 99c-4 1-7 5-7 10 1 3 1 3 5 4 8 2 17-2 20-8l3-4 2-1c0-2-17-3-23-1zm7 8c0 2-2 3-7 3l-4-1c0-3 2-4 7-4 3 0 4 0 4 2zm199 200c-3 0-7 2-8 3-6 3-16 11-20 17-6 8-15 28-12 28l2-2c4-4 11-8 22-11 12-5 12-5 19-10 6-5 10-11 13-19l2-6-3-1c-3-1-8-1-15 1zm13 3c0 3-4 9-8 11-4 3-15 5-15 4 0-2 3-7 6-9 4-5 17-9 17-6z"/></svg>