<svg version="1.0" xmlns="http://www.w3.org/2000/svg" width="561" height="683" viewBox="0 0 421 512"><path d="m176 4-9 12c-5 11-6 19-4 24 2 2 2 4 0 2l-3-3c-1-3-2-3-2-1-1 1 0 5 3 10 0 2 0 2-6 2l-7-3c-3-3-3-10 0-13 3-4 1-4-2-1-4 3-6 8-5 12 1 5 4 7 7 9 5 2 4 4-2 4-6 1-13-1-16-3l-3-2c-1 0-5-5-5-8l2-4c3-3-1-2-4 1s-4 5-1 11c2 3 2 4 1 4-4 0-3 6 1 8l2 3c0 3 4 5 9 4h9l5-1c2-1 2-1 2 1 0 1-2 2-6 2-5 0-7 1-7 3l-4 3c-3 2-4 4-1 6l3 4c1 2 2 2 5 2 3-1 4 0 4 1l1 4c2 1 2 1 1-2v-6c1-3 1-3 3 5s1 11-5 14-13 9-13 11l1 2c2 0 16-8 17-10l4 3c3 3 4 4 8 4l7-1c2-1 2-1 5 1l2 3-8 4c-10 5-12 8-13 17l-2 8c-5 6-6 13-3 19l1 3-7 8c-5 8-6 9-8 8A6118 6118 0 0 1 3 76c-2 0-1 2 4 7l9 13c7 9 13 29 11 32-1 1-1 2 1 3 1 2 2 4 2 12 1 11 3 21 5 25l2 3h-4l-4 2 12 12c3 3 5 6 11 18l8 14 3-4c2-3 3-4 8-6 6-2 10-2 10 0l1 1c2 0 4-3 4-7l1-4 6 3c5 3 5 3 4 7 0 3 0 4 2 4l2 2 3 2 3 2 4 2 3 1 2 1c3-2 4 2 2 7-2 4-2 5-1 7v4l-1 8v4l-10 7c-9 7-27 25-30 29v14c3 4 9 10 14 11h13l11-1 18-4c2-1 2 0-1 5-4 9-5 12-7 13l-1 3-2 8-4 6c-2 0-3 1-2 5 0 10 3 15 8 21 3 4 4 4 3 5-2 1-2 2 0 8 2 4 3 6 4 5l3 4c3 6 4 7 5 5 1-1 3 1 8 9a391 391 0 0 0 31 42c2-1 2-1 3 1 1 1 1 2-1 2l-2 3c0 5 8 13 12 12h2c0 3 5 12 6 12 3 0 3-2 1-5l-1-3 7 10 5 8c5 5 6 7 6 11 2 10 2 11 6 12 8 2 11-1 11-9v-4h6c6 1 7 1 7-5v-4h-6l-5-1 1-10 1-8 4 1c7 1 7 1 8-4s1-6-5-6-6 0-5-3c0-3 0-3-6-5-4-2-7-2-7-1h-3l-7-1c-4 0-6-1-7-2l-3-1c-3 0-15-17-17-23l-2-4-5-15c-4-13-8-22-11-25l-4-9 16 10c4 3 7 3 7 0-1-3-8-9-15-11-8-2-6-4 5-4 9 0 13-1 10-3-2-2-11-2-17 0s-6 2-6 0c0-5-10-11-12-7 0 2-1 2-2 1-2-2-1-4 1-6l2-4c0-3 5-11 12-20l12-16c4-7 8-10 10-10s1 3-2 8l-3 6 2 3 3 3c2 0 4-7 5-16v-8l4 8c1 5 3 9 4 9s7-6 7-8l-2-5c-3-5-3-6 1-3 2 1 3 4 4 7 4 11 11 11 18 1l5-7c0-2 3-1 7 1 5 2 5 2 4 6l-8 12-8 3c-12 2-13 3-14 7-2 10 7 20 15 14 4-2 10-9 13-15l5-7 4-3 2-6 2-2c2 0 15 9 22 15l8 7 1-3c0-3-4-8-12-15-6-4-7-6-6-7 1-2 0-2-2-4l-6-1-4-1c-1-2 2-2 6 0 9 3 22 5 31 6 22 1 57-9 80-23 22-13 51-49 42-52a311 311 0 0 0-72 14c-4-6-10-13-14-16-5-4-5-4-3-4l6-4 6-5 4-5c0-2 1-4 6-6 6-4 13-11 15-16 2-10-14-24-28-24h-5l-3 5c-2 7-4 15-4 24 0 5 0 6-2 6l-5 4c-1 2-4 4-7 5l-7 4-4 2-2 2-3 2-5 1-8 2c-7 0-9-2-9-8-1-5-5-11-10-13s-4-4 2-5c5-1 10-3 14-6l6-5 7-5 6-8 4-7 4-7 2-8 2-8v-7c-1-3-1-5 1-7v-9l1-6c2-6 2-13 1-19-2-3-2-4-6-4l-7-1c-4-1-14 4-19 10l-4 5c0 3 5 12 10 16l5 5-2 4v12c-1 1-2 0-4-3l-2-6c0-3-4-8-8-10l-6-3c-3-2-6-2-18-2-7 1-8 0-8-1l1-3c1-1-1-10-3-12l-1-3c0-4-4-4-5-1 0 2 0 2-1 1-2-3-3-2-3 0s0 2-3 2c-4-1-8-4-9-6-2-3 0-3 4-2 4 2 11 3 12 1 1-1 1-1-1-1-3 0-7-3-9-7l-2-3h4c4 1 16-1 19-3 3-3 3-10-1-12-2-1-2-1-1 2 0 3 0 5-2 6-3 3-8 2-14-4l-3-4 3-1c3 0 7-3 7-4h-2l-8-2 4-2c6-2 11-6 16-17l6-14v-4l-2 3c-4 4-6 5-15 5l-8 1v-6l-2 3c-1 2-4 3-8 4l-7 3h-2l6-4c7-3 8-5 6-7-2-1-8 1-13 5l-6 3c-3-2-4-15 0-20l1-3c-1-1-6 5-8 8-2 5-3 8-1 12s2 4-2-1l-6-3c-3 0-7-3-8-8-1-4 0-10 3-13 3-4 1-4-4 0zM49 116c13 11 17 16 16 17-3 8-4 16-2 22 0 2 1 2 3 2 3-1 5 0 6 3 1 4 0 10-4 14l-5 3c-3 0-7-4-7-6l-3-3c-4-2-8-10-11-25-3-13-9-32-13-40-2-3-2-3 0-3l20 16zm162-7v3c-1 1-8-1-8-2 0-2 3-3 7-4l1 3zm19 3c-1 5-2 6-3 1l-2-4c0-2 0-2 2-2 3 0 3 0 3 5zm-126 52 29 26-4 4c-3 3-4 3-9 3l-9-3-6-1-6-5c-2-3-5-5-6-5l-3-3c-1-2-2-2-7-1-5 0-5 0-5-2-1-2 0-5 1-8 2-7 1-13-4-20l-6-15 3 3 32 27zm160-20 2 4c0 4-2 11-4 13l-3 4c0 2-2 4-4 5-3 2-4 3-5 1l-8-3-7-2 4-5c4-4 5-6 4-12 0-2 5-6 9-7s10 0 12 2zm-29 36c1 1 1 1-1 1l-3-2c-1-1-1-1 1-1l4 2zm-77 16 1 6c1 2 1 3-1 4-1 1-1 1-1-2 0-2 0-3-4-3l-5-1 9-7 1 3zm-20 16c1 1 0 2-2 2l-6 2c-2 0-2 0 1-3 4-4 5-4 7-1zm9 0h-2c-1-1 0-1 1-1s2 0 1 1zm-20 33h-2l-1-2h1l2 2zm104 39c-1 1-2 0-3-1-2-2-1-3 2-1 2 1 2 2 1 2zm18 9-4-1-4-2 4 1 4 2zm-86 70c-1 1-2 0-4-2-2-3-1-5 2-2l2 4zm23 93 3 3c-1 1-6-1-7-3s-1-2 4 0z"/></svg>