<svg version="1.0" xmlns="http://www.w3.org/2000/svg" width="587" height="683" viewBox="0 0 440 512"><path d="m204 3 1 3c2 2 1 3-2 4l-11 9c-4 4-8 7-10 7-3 1-2 3 2 3l2 1c0 1-5 7-7 7v1l4 1h2l-2 3-5 3v1l4 1c3 0 3 0 2 4-3 7-3 11-2 14 2 4 4 6 3 2-1-2 1-9 2-7 1 1 1 1 2-1 0-3 2-4 2-1 0 2 2 4 2 2 1-2 3 0 3 2l1 2 1 2c0 3-8 11-14 15l-14 5-11 3-3 11-3 11a443 443 0 0 1-64-74c-2-1-2-4-2-6v-4h-5c-6 0-14-3-22-10l-6-5 7 11c4 6 8 12 7 13l4 4c5 3 5 4 5 8 0 5 0 5 3 5l4 1 3 2 4 2 4 3 27 28 28 30 2 3-2 13-6 21c-4 10-6 18-6 22 0 3 0 3-3 3l-5 1-10 2c-17 4-26 8-31 13-4 3-4 3-5 1v-5c0-2 0-2-1-1-2 1-3 7-1 8 1 1-4 10-5 10l-14-7c-2-3-2-3 0-5v-2c-1 0-4 4-4 6 0 3 9 11 14 13 2 1 3 2 4 6 1 5 9 13 15 16 5 3 9 4 8 2l2-2c3-1 2-1-3-2-6-1-9-4-11-10-1-5 0-6 7-7 6 0 22-7 29-13l6-3v27c2 0 2 1 1 14v9l-5 1h-12c-14-1-37 3-54 10-13 5-32 19-44 32-8 8-18 26-13 23l6-2 5-1v10l-1 19c0 10 0 10 5 13 2 1 2 1 1-1 0-2 0-2 2 0 4 6 11 3 12-6 1-3 1-4-1-6-2-1-4-6-5-10l-4-10c-1-1-2-2-1-3l1-3v-3l9-2c9-2 12-4 16-10l3-3h18c2 0 5-4 7-8l12-16c8-7 9-8 16-10 8-3 20-4 27-2h4l-17 10c-30 17-43 28-48 38-3 6-4 7-4 23s0 20 3 20c1 0 11-12 24-31 2-1 2-2 3-1 2 2 6 10 10 24 6 20 10 27 20 37l9 8 2-6 2-7 12-6 16-10c5-4 5-4 6-13l14-60 4-10v20c0 16 0 21-2 27l-2 19a390 390 0 0 1 0 32c1 5 1 6-1 6l-7 10-10 15-6 6 1 4c2 6 6 12 8 12s3 4 5 12c0 5 9 15 17 18 5 2 5 3 5 6 0 4 3 11 5 12l2 7c1 8 3 12 9 17 6 6 12 9 17 9 3 0 7-3 7-6 0-2-4-16-7-20l-6-20-1-10v-9c0-2 0-4-2-7l-3-19c-2-31-2-35-1-37 1-1 2-1 2 4l1 4h4c7 0 21-8 32-16l12-10 4-2v5c-1 7 1 8 6 4l3-4v-14c-1-18-9-77-13-94a529 529 0 0 1 34 125c1 1 6-2 10-7l4-3 1 5c1 2 1 2-4 8l-10 9c-4 3-5 4-5 7 0 4 2 8 5 9l2 1 3 1c4-1 9-8 12-15l2-4-7 14v2c3-1 8-10 9-16v-23c-2-4-2-5 1-14l3-15 2-7 7 8c5 5 6 7 5 7-2 1-2 2-2 8v8h15l1-4c0-3 0-3 3-3 2 0 3 1 3 6s0 6 2 6c4 0 13 3 18 6 5 4 11 12 13 21l2 7 20 8 21 7-13-40-5-2c-10-3-20-10-24-18l-3-11v-7h-6c-5-1-5-1-6-3 0-3 0-3 4-3l4-1v-15h-7c-8-1-9-1-9 2l-9 1-9-1 1-6v-6l-6-1c-4 0-5 0-5 2l-1 2-1-3c0-1 0-2-2-2l-2-1a299 299 0 0 1-36-35c-16-17-23-26-28-33-9-15-12-20-14-34-4-17-7-25-9-28-5-7-7-20-4-40l2-14V99l-4-4c-7-2-21-12-26-20l-2-4 2-2 3-3 1 3 2 5 4 5 3 5h1c2-1 1-4-3-9l-5-7v-4c-1-2 4-7 5-7h1c0-2 2-1 3 2 1 4 2 1 2-4s0-5 2-5c4 0 4 0 1-4-2-1-3-3-3-5s1-2 3-2h2l-2-2-2-4c1-3-6-15-9-17l-5-7-2-5c-2-1-2-1-2 2 0 4-2 4-14-2l-4-1zm-26 135v1l-2-2c0-2 1-1 2 1zm-2 14-11 14 4-11c4-10 4-10 6-8s2 2 1 5zm12 10c2 3 2 5 1 10 0 9-4 19-8 27l-3 9-3 8c-4 6-19 22-21 22l-2-4-1-5 5-16c4-13 5-16 4-17-3-4 0-9 10-19a66 66 0 0 0 15-20l3 5zm-17 10-4 4c-3 3-5 4-5 3l4-4 5-3zm-40 20c0 4-22 12-31 12-2 0-1-1 4-3 5-3 23-10 26-10l1 1zm-25 18-10 2c-5 0-5 0-4-2 1-1 2-2 10-2h10l-6 2zm40 34-1 1c-1 1-2 0-1-2 0-2 2-2 2 1zm175 59c2 5-1 3-4-2-2-4-2-4 0-2l4 4zm21 13-1 1-3 2c-1 1-1 1-1-2s0-3 3-3l2 2zm13 2-1 2-1-1-1-2-2-1 3-1c2 0 2 1 2 3zm-24 3v9l-2-6-3-7c-1-2 3 1 5 4zm57 10c0 4 0 4-2 4s-3 0-3-2 0-3-2-3-3 0-3-2 1-2 5-2h5v5zm-27 2v5l-2 2h-4c-3-1-4-6-1-6l2-1c1-3 5-2 5 0zm19 2-1 1-1-1 1-2 1 2zm10 14 1 4v4l-5-2-5-3-1-3 5-1 5 1zm-35 9-1 1c-2 0-2-1-1-2l2 1zm-5 1c0 2 1 3 3 3l2 2c0 2-1 2-5 2-5 0-5 0-5-3 0-4 1-6 3-6l2 2zm21 3c2 2 4 8 4 9l-4-1c-3 0-3 0-3-5s1-6 3-3zm17 5 6 9c-1 0-9-7-9-9h3zm27 18c3 2 4 3 6 10l4 9c2 0 4 7 3 8s-8-2-8-3l-8-5-8-3-3-6-4-7 8 5c14 11 16 12 16 11l-8-13-8-13 3 3 7 4z"/></svg>